<?xml version="1.0" standalone="no"?>
 <!DOCTYPE svg PUBLIC "-//W3C//DTD SVG 1.1//EN" 
 "http://www.w3.org/Graphics/SVG/1.1/DTD/svg11.dtd"> 
<svg xmlns="http://www.w3.org/2000/svg" version="1.1" 
    width="29.7002cm" height="21.0007cm" viewBox="0 0 116930 82680 ">
<title>SVG Picture created as EnergyMonitor-rev1-B_Paste.svg date 2014/12/23 08:50:04 </title>
  <desc>Picture generated by PCBNEW </desc>
<g style="fill:#000000; fill-opacity:1;stroke:#000000; stroke-opacity:1;
stroke-linecap:round; stroke-linejoin:round; "
 transform="translate(0 0) scale(1 1)">
</g>
<g style="fill:#000000; fill-opacity:0.0; 
stroke:#000000; stroke-width:39.3701; stroke-opacity:1; 
stroke-linecap:round; stroke-linejoin:round;">
</g>
<g style="fill:#000000; fill-opacity:0.0; 
stroke:#000000; stroke-width:59.0551; stroke-opacity:1; 
stroke-linecap:round; stroke-linejoin:round;">
<rect x="69685.9" y="65357.2" width="42519.7" height="12598.4" rx="0" />
</g>
<g style="fill:#000000; fill-opacity:0.0; 
stroke:#000000; stroke-width:39.3701; stroke-opacity:1; 
stroke-linecap:round; stroke-linejoin:round;">
</g>
<g style="fill:#000000; fill-opacity:0.0; 
stroke:#000000; stroke-width:59.0551; stroke-opacity:1; 
stroke-linecap:round; stroke-linejoin:round;">
<rect x="3937.01" y="3937.01" width="109056" height="74806" rx="0" />
</g>
<g style="fill:#000000; fill-opacity:0.0; 
stroke:#000000; stroke-width:39.3701; stroke-opacity:1; 
stroke-linecap:round; stroke-linejoin:round;">
</g>
<g style="fill:#000000; fill-opacity:0.0; 
stroke:#000000; stroke-width:59.0551; stroke-opacity:1; 
stroke-linecap:round; stroke-linejoin:round;">
<rect x="4724.41" y="4724.41" width="107481" height="73231.2" rx="0" />
</g>
<g style="fill:#000000; fill-opacity:0.0; 
stroke:#000000; stroke-width:39.3701; stroke-opacity:1; 
stroke-linecap:round; stroke-linejoin:round;">
</g>
<g style="fill:#000000; fill-opacity:0.0; 
stroke:#000000; stroke-width:59.0551; stroke-opacity:1; 
stroke-linecap:round; stroke-linejoin:round;">
<path d="M23622 4724
L23622 3937
" />
</g>
<g style="fill:#000000; fill-opacity:0.0; 
stroke:#000000; stroke-width:39.3701; stroke-opacity:1; 
stroke-linecap:round; stroke-linejoin:round;">
</g>
<g style="fill:#000000; fill-opacity:0.0; 
stroke:#000000; stroke-width:59.0551; stroke-opacity:1; 
stroke-linecap:round; stroke-linejoin:round;">
<path d="M43307 4724
L43307 3937
" />
</g>
<g style="fill:#000000; fill-opacity:0.0; 
stroke:#000000; stroke-width:39.3701; stroke-opacity:1; 
stroke-linecap:round; stroke-linejoin:round;">
</g>
<g style="fill:#000000; fill-opacity:0.0; 
stroke:#000000; stroke-width:59.0551; stroke-opacity:1; 
stroke-linecap:round; stroke-linejoin:round;">
<path d="M62992 4724
L62992 3937
" />
</g>
<g style="fill:#000000; fill-opacity:0.0; 
stroke:#000000; stroke-width:39.3701; stroke-opacity:1; 
stroke-linecap:round; stroke-linejoin:round;">
</g>
<g style="fill:#000000; fill-opacity:0.0; 
stroke:#000000; stroke-width:59.0551; stroke-opacity:1; 
stroke-linecap:round; stroke-linejoin:round;">
<path d="M82677 4724
L82677 3937
" />
</g>
<g style="fill:#000000; fill-opacity:0.0; 
stroke:#000000; stroke-width:39.3701; stroke-opacity:1; 
stroke-linecap:round; stroke-linejoin:round;">
</g>
<g style="fill:#000000; fill-opacity:0.0; 
stroke:#000000; stroke-width:59.0551; stroke-opacity:1; 
stroke-linecap:round; stroke-linejoin:round;">
<path d="M102362 4724
L102362 3937
" />
</g>
<g style="fill:#000000; fill-opacity:0.0; 
stroke:#000000; stroke-width:39.3701; stroke-opacity:1; 
stroke-linecap:round; stroke-linejoin:round;">
</g>
<g style="fill:#000000; fill-opacity:0.0; 
stroke:#000000; stroke-width:59.0551; stroke-opacity:1; 
stroke-linecap:round; stroke-linejoin:round;">
<path d="M14169 4562
L13877 4562
" />
<path d="M14023 4562
L14023 4050
L13974 4123
L13925 4172
L13877 4196
" />
</g>
<g style="fill:#000000; fill-opacity:0.0; 
stroke:#000000; stroke-width:39.3701; stroke-opacity:1; 
stroke-linecap:round; stroke-linejoin:round;">
</g>
<g style="fill:#000000; fill-opacity:0.0; 
stroke:#000000; stroke-width:59.0551; stroke-opacity:1; 
stroke-linecap:round; stroke-linejoin:round;">
<path d="M33562 4099
L33586 4074
L33635 4050
L33757 4050
L33805 4074
L33830 4099
L33854 4147
L33854 4196
L33830 4269
L33537 4562
L33854 4562
" />
</g>
<g style="fill:#000000; fill-opacity:0.0; 
stroke:#000000; stroke-width:39.3701; stroke-opacity:1; 
stroke-linecap:round; stroke-linejoin:round;">
</g>
<g style="fill:#000000; fill-opacity:0.0; 
stroke:#000000; stroke-width:59.0551; stroke-opacity:1; 
stroke-linecap:round; stroke-linejoin:round;">
<path d="M53222 4050
L53539 4050
L53368 4245
L53442 4245
L53490 4269
L53515 4294
L53539 4342
L53539 4464
L53515 4513
L53490 4537
L53442 4562
L53295 4562
L53247 4537
L53222 4513
" />
</g>
<g style="fill:#000000; fill-opacity:0.0; 
stroke:#000000; stroke-width:39.3701; stroke-opacity:1; 
stroke-linecap:round; stroke-linejoin:round;">
</g>
<g style="fill:#000000; fill-opacity:0.0; 
stroke:#000000; stroke-width:59.0551; stroke-opacity:1; 
stroke-linecap:round; stroke-linejoin:round;">
<path d="M73175 4221
L73175 4562
" />
<path d="M73053 4026
L72932 4391
L73248 4391
" />
</g>
<g style="fill:#000000; fill-opacity:0.0; 
stroke:#000000; stroke-width:39.3701; stroke-opacity:1; 
stroke-linecap:round; stroke-linejoin:round;">
</g>
<g style="fill:#000000; fill-opacity:0.0; 
stroke:#000000; stroke-width:59.0551; stroke-opacity:1; 
stroke-linecap:round; stroke-linejoin:round;">
<path d="M92885 4050
L92641 4050
L92617 4294
L92641 4269
L92690 4245
L92812 4245
L92860 4269
L92885 4294
L92909 4342
L92909 4464
L92885 4513
L92860 4537
L92812 4562
L92690 4562
L92641 4537
L92617 4513
" />
</g>
<g style="fill:#000000; fill-opacity:0.0; 
stroke:#000000; stroke-width:39.3701; stroke-opacity:1; 
stroke-linecap:round; stroke-linejoin:round;">
</g>
<g style="fill:#000000; fill-opacity:0.0; 
stroke:#000000; stroke-width:59.0551; stroke-opacity:1; 
stroke-linecap:round; stroke-linejoin:round;">
<path d="M112545 4050
L112448 4050
L112399 4074
L112375 4099
L112326 4172
L112302 4269
L112302 4464
L112326 4513
L112350 4537
L112399 4562
L112497 4562
L112545 4537
L112570 4513
L112594 4464
L112594 4342
L112570 4294
L112545 4269
L112497 4245
L112399 4245
L112350 4269
L112326 4294
L112302 4342
" />
</g>
<g style="fill:#000000; fill-opacity:0.0; 
stroke:#000000; stroke-width:39.3701; stroke-opacity:1; 
stroke-linecap:round; stroke-linejoin:round;">
</g>
<g style="fill:#000000; fill-opacity:0.0; 
stroke:#000000; stroke-width:59.0551; stroke-opacity:1; 
stroke-linecap:round; stroke-linejoin:round;">
<path d="M23622 77955
L23622 78742
" />
</g>
<g style="fill:#000000; fill-opacity:0.0; 
stroke:#000000; stroke-width:39.3701; stroke-opacity:1; 
stroke-linecap:round; stroke-linejoin:round;">
</g>
<g style="fill:#000000; fill-opacity:0.0; 
stroke:#000000; stroke-width:59.0551; stroke-opacity:1; 
stroke-linecap:round; stroke-linejoin:round;">
<path d="M43307 77955
L43307 78742
" />
</g>
<g style="fill:#000000; fill-opacity:0.0; 
stroke:#000000; stroke-width:39.3701; stroke-opacity:1; 
stroke-linecap:round; stroke-linejoin:round;">
</g>
<g style="fill:#000000; fill-opacity:0.0; 
stroke:#000000; stroke-width:59.0551; stroke-opacity:1; 
stroke-linecap:round; stroke-linejoin:round;">
<path d="M62992 77955
L62992 78742
" />
</g>
<g style="fill:#000000; fill-opacity:0.0; 
stroke:#000000; stroke-width:39.3701; stroke-opacity:1; 
stroke-linecap:round; stroke-linejoin:round;">
</g>
<g style="fill:#000000; fill-opacity:0.0; 
stroke:#000000; stroke-width:59.0551; stroke-opacity:1; 
stroke-linecap:round; stroke-linejoin:round;">
<path d="M82677 77955
L82677 78742
" />
</g>
<g style="fill:#000000; fill-opacity:0.0; 
stroke:#000000; stroke-width:39.3701; stroke-opacity:1; 
stroke-linecap:round; stroke-linejoin:round;">
</g>
<g style="fill:#000000; fill-opacity:0.0; 
stroke:#000000; stroke-width:59.0551; stroke-opacity:1; 
stroke-linecap:round; stroke-linejoin:round;">
<path d="M102362 77955
L102362 78742
" />
</g>
<g style="fill:#000000; fill-opacity:0.0; 
stroke:#000000; stroke-width:39.3701; stroke-opacity:1; 
stroke-linecap:round; stroke-linejoin:round;">
</g>
<g style="fill:#000000; fill-opacity:0.0; 
stroke:#000000; stroke-width:59.0551; stroke-opacity:1; 
stroke-linecap:round; stroke-linejoin:round;">
<path d="M14169 78580
L13877 78580
" />
<path d="M14023 78580
L14023 78069
L13974 78142
L13925 78190
L13877 78215
" />
</g>
<g style="fill:#000000; fill-opacity:0.0; 
stroke:#000000; stroke-width:39.3701; stroke-opacity:1; 
stroke-linecap:round; stroke-linejoin:round;">
</g>
<g style="fill:#000000; fill-opacity:0.0; 
stroke:#000000; stroke-width:59.0551; stroke-opacity:1; 
stroke-linecap:round; stroke-linejoin:round;">
<path d="M33562 78117
L33586 78093
L33635 78069
L33757 78069
L33805 78093
L33830 78117
L33854 78166
L33854 78215
L33830 78288
L33537 78580
L33854 78580
" />
</g>
<g style="fill:#000000; fill-opacity:0.0; 
stroke:#000000; stroke-width:39.3701; stroke-opacity:1; 
stroke-linecap:round; stroke-linejoin:round;">
</g>
<g style="fill:#000000; fill-opacity:0.0; 
stroke:#000000; stroke-width:59.0551; stroke-opacity:1; 
stroke-linecap:round; stroke-linejoin:round;">
<path d="M53222 78069
L53539 78069
L53368 78263
L53442 78263
L53490 78288
L53515 78312
L53539 78361
L53539 78483
L53515 78532
L53490 78556
L53442 78580
L53295 78580
L53247 78556
L53222 78532
" />
</g>
<g style="fill:#000000; fill-opacity:0.0; 
stroke:#000000; stroke-width:39.3701; stroke-opacity:1; 
stroke-linecap:round; stroke-linejoin:round;">
</g>
<g style="fill:#000000; fill-opacity:0.0; 
stroke:#000000; stroke-width:59.0551; stroke-opacity:1; 
stroke-linecap:round; stroke-linejoin:round;">
<path d="M73175 78239
L73175 78580
" />
<path d="M73053 78044
L72932 78410
L73248 78410
" />
</g>
<g style="fill:#000000; fill-opacity:0.0; 
stroke:#000000; stroke-width:39.3701; stroke-opacity:1; 
stroke-linecap:round; stroke-linejoin:round;">
</g>
<g style="fill:#000000; fill-opacity:0.0; 
stroke:#000000; stroke-width:59.0551; stroke-opacity:1; 
stroke-linecap:round; stroke-linejoin:round;">
<path d="M92885 78069
L92641 78069
L92617 78312
L92641 78288
L92690 78263
L92812 78263
L92860 78288
L92885 78312
L92909 78361
L92909 78483
L92885 78532
L92860 78556
L92812 78580
L92690 78580
L92641 78556
L92617 78532
" />
</g>
<g style="fill:#000000; fill-opacity:0.0; 
stroke:#000000; stroke-width:39.3701; stroke-opacity:1; 
stroke-linecap:round; stroke-linejoin:round;">
</g>
<g style="fill:#000000; fill-opacity:0.0; 
stroke:#000000; stroke-width:59.0551; stroke-opacity:1; 
stroke-linecap:round; stroke-linejoin:round;">
<path d="M112545 78069
L112448 78069
L112399 78093
L112375 78117
L112326 78190
L112302 78288
L112302 78483
L112326 78532
L112350 78556
L112399 78580
L112497 78580
L112545 78556
L112570 78532
L112594 78483
L112594 78361
L112570 78312
L112545 78288
L112497 78263
L112399 78263
L112350 78288
L112326 78312
L112302 78361
" />
</g>
<g style="fill:#000000; fill-opacity:0.0; 
stroke:#000000; stroke-width:39.3701; stroke-opacity:1; 
stroke-linecap:round; stroke-linejoin:round;">
</g>
<g style="fill:#000000; fill-opacity:0.0; 
stroke:#000000; stroke-width:59.0551; stroke-opacity:1; 
stroke-linecap:round; stroke-linejoin:round;">
<path d="M3937 23622
L4724 23622
" />
</g>
<g style="fill:#000000; fill-opacity:0.0; 
stroke:#000000; stroke-width:39.3701; stroke-opacity:1; 
stroke-linecap:round; stroke-linejoin:round;">
</g>
<g style="fill:#000000; fill-opacity:0.0; 
stroke:#000000; stroke-width:59.0551; stroke-opacity:1; 
stroke-linecap:round; stroke-linejoin:round;">
<path d="M3937 43307
L4724 43307
" />
</g>
<g style="fill:#000000; fill-opacity:0.0; 
stroke:#000000; stroke-width:39.3701; stroke-opacity:1; 
stroke-linecap:round; stroke-linejoin:round;">
</g>
<g style="fill:#000000; fill-opacity:0.0; 
stroke:#000000; stroke-width:59.0551; stroke-opacity:1; 
stroke-linecap:round; stroke-linejoin:round;">
<path d="M3937 62992
L4724 62992
" />
</g>
<g style="fill:#000000; fill-opacity:0.0; 
stroke:#000000; stroke-width:39.3701; stroke-opacity:1; 
stroke-linecap:round; stroke-linejoin:round;">
</g>
<g style="fill:#000000; fill-opacity:0.0; 
stroke:#000000; stroke-width:59.0551; stroke-opacity:1; 
stroke-linecap:round; stroke-linejoin:round;">
<path d="M4208 13864
L4452 13864
" />
<path d="M4160 14011
L4330 13499
L4501 14011
" />
</g>
<g style="fill:#000000; fill-opacity:0.0; 
stroke:#000000; stroke-width:39.3701; stroke-opacity:1; 
stroke-linecap:round; stroke-linejoin:round;">
</g>
<g style="fill:#000000; fill-opacity:0.0; 
stroke:#000000; stroke-width:59.0551; stroke-opacity:1; 
stroke-linecap:round; stroke-linejoin:round;">
<path d="M4367 33428
L4440 33452
L4464 33476
L4489 33525
L4489 33598
L4464 33647
L4440 33671
L4391 33696
L4196 33696
L4196 33184
L4367 33184
L4416 33208
L4440 33233
L4464 33281
L4464 33330
L4440 33379
L4416 33403
L4367 33428
L4196 33428
" />
</g>
<g style="fill:#000000; fill-opacity:0.0; 
stroke:#000000; stroke-width:39.3701; stroke-opacity:1; 
stroke-linecap:round; stroke-linejoin:round;">
</g>
<g style="fill:#000000; fill-opacity:0.0; 
stroke:#000000; stroke-width:59.0551; stroke-opacity:1; 
stroke-linecap:round; stroke-linejoin:round;">
<path d="M4489 53332
L4464 53356
L4391 53381
L4342 53381
L4269 53356
L4221 53308
L4196 53259
L4172 53161
L4172 53088
L4196 52991
L4221 52942
L4269 52893
L4342 52869
L4391 52869
L4464 52893
L4489 52918
" />
</g>
<g style="fill:#000000; fill-opacity:0.0; 
stroke:#000000; stroke-width:39.3701; stroke-opacity:1; 
stroke-linecap:round; stroke-linejoin:round;">
</g>
<g style="fill:#000000; fill-opacity:0.0; 
stroke:#000000; stroke-width:59.0551; stroke-opacity:1; 
stroke-linecap:round; stroke-linejoin:round;">
<path d="M4196 73066
L4196 72554
L4318 72554
L4391 72578
L4440 72627
L4464 72676
L4489 72773
L4489 72846
L4464 72944
L4440 72993
L4391 73041
L4318 73066
L4196 73066
" />
</g>
<g style="fill:#000000; fill-opacity:0.0; 
stroke:#000000; stroke-width:39.3701; stroke-opacity:1; 
stroke-linecap:round; stroke-linejoin:round;">
</g>
<g style="fill:#000000; fill-opacity:0.0; 
stroke:#000000; stroke-width:59.0551; stroke-opacity:1; 
stroke-linecap:round; stroke-linejoin:round;">
<path d="M112992 23622
L112205 23622
" />
</g>
<g style="fill:#000000; fill-opacity:0.0; 
stroke:#000000; stroke-width:39.3701; stroke-opacity:1; 
stroke-linecap:round; stroke-linejoin:round;">
</g>
<g style="fill:#000000; fill-opacity:0.0; 
stroke:#000000; stroke-width:59.0551; stroke-opacity:1; 
stroke-linecap:round; stroke-linejoin:round;">
<path d="M112992 43307
L112205 43307
" />
</g>
<g style="fill:#000000; fill-opacity:0.0; 
stroke:#000000; stroke-width:39.3701; stroke-opacity:1; 
stroke-linecap:round; stroke-linejoin:round;">
</g>
<g style="fill:#000000; fill-opacity:0.0; 
stroke:#000000; stroke-width:59.0551; stroke-opacity:1; 
stroke-linecap:round; stroke-linejoin:round;">
<path d="M112992 62992
L112205 62992
" />
</g>
<g style="fill:#000000; fill-opacity:0.0; 
stroke:#000000; stroke-width:39.3701; stroke-opacity:1; 
stroke-linecap:round; stroke-linejoin:round;">
</g>
<g style="fill:#000000; fill-opacity:0.0; 
stroke:#000000; stroke-width:59.0551; stroke-opacity:1; 
stroke-linecap:round; stroke-linejoin:round;">
<path d="M112477 13864
L112721 13864
" />
<path d="M112428 14011
L112599 13499
L112769 14011
" />
</g>
<g style="fill:#000000; fill-opacity:0.0; 
stroke:#000000; stroke-width:39.3701; stroke-opacity:1; 
stroke-linecap:round; stroke-linejoin:round;">
</g>
<g style="fill:#000000; fill-opacity:0.0; 
stroke:#000000; stroke-width:59.0551; stroke-opacity:1; 
stroke-linecap:round; stroke-linejoin:round;">
<path d="M112635 33428
L112708 33452
L112733 33476
L112757 33525
L112757 33598
L112733 33647
L112708 33671
L112660 33696
L112465 33696
L112465 33184
L112635 33184
L112684 33208
L112708 33233
L112733 33281
L112733 33330
L112708 33379
L112684 33403
L112635 33428
L112465 33428
" />
</g>
<g style="fill:#000000; fill-opacity:0.0; 
stroke:#000000; stroke-width:39.3701; stroke-opacity:1; 
stroke-linecap:round; stroke-linejoin:round;">
</g>
<g style="fill:#000000; fill-opacity:0.0; 
stroke:#000000; stroke-width:59.0551; stroke-opacity:1; 
stroke-linecap:round; stroke-linejoin:round;">
<path d="M112757 53332
L112733 53356
L112660 53381
L112611 53381
L112538 53356
L112489 53308
L112465 53259
L112440 53161
L112440 53088
L112465 52991
L112489 52942
L112538 52893
L112611 52869
L112660 52869
L112733 52893
L112757 52918
" />
</g>
<g style="fill:#000000; fill-opacity:0.0; 
stroke:#000000; stroke-width:39.3701; stroke-opacity:1; 
stroke-linecap:round; stroke-linejoin:round;">
</g>
<g style="fill:#000000; fill-opacity:0.0; 
stroke:#000000; stroke-width:59.0551; stroke-opacity:1; 
stroke-linecap:round; stroke-linejoin:round;">
<path d="M112465 73066
L112465 72554
L112587 72554
L112660 72578
L112708 72627
L112733 72676
L112757 72773
L112757 72846
L112733 72944
L112708 72993
L112660 73041
L112587 73066
L112465 73066
" />
</g>
<g style="fill:#000000; fill-opacity:0.0; 
stroke:#000000; stroke-width:39.3701; stroke-opacity:1; 
stroke-linecap:round; stroke-linejoin:round;">
</g>
<g style="fill:#000000; fill-opacity:0.0; 
stroke:#000000; stroke-width:59.0551; stroke-opacity:1; 
stroke-linecap:round; stroke-linejoin:round;">
<path d="M78881 76293
L78881 75703
L79022 75703
L79106 75731
L79162 75787
L79190 75843
L79219 75956
L79219 76040
L79190 76153
L79162 76209
L79106 76265
L79022 76293
L78881 76293
" />
<path d="M79725 76293
L79725 75984
L79697 75928
L79640 75899
L79528 75899
L79472 75928
" />
<path d="M79725 76265
L79669 76293
L79528 76293
L79472 76265
L79444 76209
L79444 76153
L79472 76096
L79528 76068
L79669 76068
L79725 76040
" />
<path d="M79922 75899
L80147 75899
" />
<path d="M80006 75703
L80006 76209
L80034 76265
L80090 76293
L80147 76293
" />
<path d="M80568 76265
L80512 76293
L80400 76293
L80343 76265
L80315 76209
L80315 75984
L80343 75928
L80400 75899
L80512 75899
L80568 75928
L80597 75984
L80597 76040
L80315 76096
" />
<path d="M80850 76237
L80878 76265
L80850 76293
L80822 76265
L80850 76237
L80850 76293
" />
<path d="M80850 75928
L80878 75956
L80850 75984
L80822 75956
L80850 75928
L80850 75984
" />
</g>
<g style="fill:#000000; fill-opacity:0.0; 
stroke:#000000; stroke-width:39.3701; stroke-opacity:1; 
stroke-linecap:round; stroke-linejoin:round;">
</g>
<g style="fill:#000000; fill-opacity:0.0; 
stroke:#000000; stroke-width:59.0551; stroke-opacity:1; 
stroke-linecap:round; stroke-linejoin:round;">
<path d="M69685 76577
L112205 76577
" />
</g>
<g style="fill:#000000; fill-opacity:0.0; 
stroke:#000000; stroke-width:39.3701; stroke-opacity:1; 
stroke-linecap:round; stroke-linejoin:round;">
</g>
<g style="fill:#000000; fill-opacity:0.0; 
stroke:#000000; stroke-width:59.0551; stroke-opacity:1; 
stroke-linecap:round; stroke-linejoin:round;">
<path d="M70220 77395
L70220 76805
" />
<path d="M70557 77395
L70304 77058
" />
<path d="M70557 76805
L70220 77142
" />
<path d="M70810 77395
L70810 77002
" />
<path d="M70810 76805
L70782 76833
L70810 76861
L70838 76833
L70810 76805
L70810 76861
" />
<path d="M71429 77339
L71401 77367
L71316 77395
L71260 77395
L71176 77367
L71120 77311
L71091 77255
L71063 77142
L71063 77058
L71091 76946
L71120 76889
L71176 76833
L71260 76805
L71316 76805
L71401 76833
L71429 76861
" />
<path d="M71935 77395
L71935 77086
L71907 77030
L71851 77002
L71738 77002
L71682 77030
" />
<path d="M71935 77367
L71879 77395
L71738 77395
L71682 77367
L71654 77311
L71654 77255
L71682 77199
L71738 77171
L71879 77171
L71935 77142
" />
<path d="M72469 77395
L72469 76805
" />
<path d="M72469 77367
L72413 77395
L72301 77395
L72244 77367
L72216 77339
L72188 77283
L72188 77114
L72216 77058
L72244 77030
L72301 77002
L72413 77002
L72469 77030
" />
<path d="M73201 77086
L73397 77086
" />
<path d="M73482 77395
L73201 77395
L73201 76805
L73482 76805
" />
<path d="M73735 77339
L73763 77367
L73735 77395
L73707 77367
L73735 77339
L73735 77395
" />
<path d="M74016 77395
L74016 76805
L74157 76805
L74241 76833
L74297 76889
L74325 76946
L74354 77058
L74354 77142
L74325 77255
L74297 77311
L74241 77367
L74157 77395
L74016 77395
" />
<path d="M74607 77339
L74635 77367
L74607 77395
L74579 77367
L74607 77339
L74607 77395
" />
<path d="M74860 77227
L75141 77227
" />
<path d="M74804 77395
L75000 76805
L75197 77395
" />
<path d="M75394 77339
L75422 77367
L75394 77395
L75366 77367
L75394 77339
L75394 77395
" />
<path d="M76575 77395
L76575 76805
" />
<path d="M76631 77171
L76800 77395
" />
<path d="M76800 77002
L76575 77227
" />
<path d="M77053 77395
L77053 77002
" />
<path d="M77053 76805
L77025 76833
L77053 76861
L77081 76833
L77053 76805
L77053 76861
" />
<path d="M77588 77367
L77531 77395
L77419 77395
L77363 77367
L77334 77339
L77306 77283
L77306 77114
L77334 77058
L77363 77030
L77419 77002
L77531 77002
L77588 77030
" />
<path d="M78094 77395
L78094 77086
L78066 77030
L78009 77002
L77897 77002
L77841 77030
" />
<path d="M78094 77367
L78037 77395
L77897 77395
L77841 77367
L77813 77311
L77813 77255
L77841 77199
L77897 77171
L78037 77171
L78094 77142
" />
<path d="M78628 77395
L78628 76805
" />
<path d="M78628 77367
L78572 77395
L78459 77395
L78403 77367
L78375 77339
L78347 77283
L78347 77114
L78375 77058
L78403 77030
L78459 77002
L78572 77002
L78628 77030
" />
<path d="M79528 77620
L79500 77592
L79444 77508
L79415 77452
L79387 77367
L79359 77227
L79359 77114
L79387 76974
L79415 76889
L79444 76833
L79500 76749
L79528 76721
" />
<path d="M79725 76861
L79753 76833
L79809 76805
L79950 76805
L80006 76833
L80034 76861
L80062 76917
L80062 76974
L80034 77058
L79697 77395
L80062 77395
" />
<path d="M80428 76805
L80484 76805
L80540 76833
L80568 76861
L80597 76917
L80625 77030
L80625 77171
L80597 77283
L80568 77339
L80540 77367
L80484 77395
L80428 77395
L80372 77367
L80343 77339
L80315 77283
L80287 77171
L80287 77030
L80315 76917
L80343 76861
L80372 76833
L80428 76805
" />
<path d="M81187 77395
L80850 77395
" />
<path d="M81018 77395
L81018 76805
L80962 76889
L80906 76946
L80850 76974
" />
<path d="M81693 77002
L81693 77395
" />
<path d="M81553 76777
L81412 77199
L81778 77199
" />
<path d="M82003 77171
L82453 77171
" />
<path d="M83043 77395
L82706 77395
" />
<path d="M82874 77395
L82874 76805
L82818 76889
L82762 76946
L82706 76974
" />
<path d="M83268 76861
L83296 76833
L83352 76805
L83493 76805
L83549 76833
L83577 76861
L83606 76917
L83606 76974
L83577 77058
L83240 77395
L83606 77395
" />
<path d="M83859 77171
L84309 77171
" />
<path d="M84702 76805
L84759 76805
L84815 76833
L84843 76861
L84871 76917
L84899 77030
L84899 77171
L84871 77283
L84843 77339
L84815 77367
L84759 77395
L84702 77395
L84646 77367
L84618 77339
L84590 77283
L84562 77171
L84562 77030
L84590 76917
L84618 76861
L84646 76833
L84702 76805
" />
<path d="M85237 77058
L85180 77030
L85152 77002
L85124 76946
L85124 76917
L85152 76861
L85180 76833
L85237 76805
L85349 76805
L85405 76833
L85433 76861
L85462 76917
L85462 76946
L85433 77002
L85405 77030
L85349 77058
L85237 77058
L85180 77086
L85152 77114
L85124 77171
L85124 77283
L85152 77339
L85180 77367
L85237 77395
L85349 77395
L85405 77367
L85433 77339
L85462 77283
L85462 77171
L85433 77114
L85405 77086
L85349 77058
" />
<path d="M86361 77086
L86446 77114
L86474 77142
L86502 77199
L86502 77283
L86474 77339
L86446 77367
L86390 77395
L86165 77395
L86165 76805
L86361 76805
L86418 76833
L86446 76861
L86474 76917
L86474 76974
L86446 77030
L86418 77058
L86361 77086
L86165 77086
" />
<path d="M86699 76805
L87093 76805
L86699 77395
L87093 77395
" />
<path d="M87655 77395
L87458 77114
" />
<path d="M87318 77395
L87318 76805
L87543 76805
L87599 76833
L87627 76861
L87655 76917
L87655 77002
L87627 77058
L87599 77086
L87543 77114
L87318 77114
" />
<path d="M88639 76805
L88358 76805
L88330 77086
L88358 77058
L88414 77030
L88555 77030
L88611 77058
L88639 77086
L88667 77142
L88667 77283
L88639 77339
L88611 77367
L88555 77395
L88414 77395
L88358 77367
L88330 77339
" />
<path d="M88864 76805
L89230 76805
L89033 77030
L89117 77030
L89174 77058
L89202 77086
L89230 77142
L89230 77283
L89202 77339
L89174 77367
L89117 77395
L88949 77395
L88892 77367
L88864 77339
" />
<path d="M89792 77395
L89455 77395
" />
<path d="M89624 77395
L89624 76805
L89567 76889
L89511 76946
L89455 76974
" />
<path d="M89989 76805
L90383 76805
L90130 77395
" />
<path d="M90552 77620
L90580 77592
L90636 77508
L90664 77452
L90692 77367
L90720 77227
L90720 77114
L90692 76974
L90664 76889
L90636 76833
L90580 76749
L90552 76721
" />
<path d="M91001 77171
L91451 77171
" />
<path d="M91733 77002
L91733 77592
" />
<path d="M91733 77030
L91789 77002
L91901 77002
L91958 77030
L91986 77058
L92014 77114
L92014 77283
L91986 77339
L91958 77367
L91901 77395
L91789 77395
L91733 77367
" />
<path d="M92267 77395
L92267 77002
" />
<path d="M92267 77114
L92295 77058
L92323 77030
L92379 77002
L92436 77002
" />
<path d="M92717 77395
L92661 77367
L92633 77339
L92604 77283
L92604 77114
L92633 77058
L92661 77030
L92717 77002
L92801 77002
L92858 77030
L92886 77058
L92914 77114
L92914 77283
L92886 77339
L92858 77367
L92801 77395
L92717 77395
" />
<path d="M93420 77395
L93420 76805
" />
<path d="M93420 77367
L93364 77395
L93251 77395
L93195 77367
L93167 77339
L93139 77283
L93139 77114
L93167 77058
L93195 77030
L93251 77002
L93364 77002
L93420 77030
" />
<path d="M93954 77002
L93954 77395
" />
<path d="M93701 77002
L93701 77311
L93729 77367
L93786 77395
L93870 77395
L93926 77367
L93954 77339
" />
<path d="M94489 77367
L94432 77395
L94320 77395
L94264 77367
L94235 77339
L94207 77283
L94207 77114
L94235 77058
L94264 77030
L94320 77002
L94432 77002
L94489 77030
" />
<path d="M94657 77002
L94882 77002
" />
<path d="M94742 76805
L94742 77311
L94770 77367
L94826 77395
L94882 77395
" />
</g>
<g style="fill:#000000; fill-opacity:0.0; 
stroke:#000000; stroke-width:39.3701; stroke-opacity:1; 
stroke-linecap:round; stroke-linejoin:round;">
</g>
<g style="fill:#000000; fill-opacity:0.0; 
stroke:#000000; stroke-width:59.0551; stroke-opacity:1; 
stroke-linecap:round; stroke-linejoin:round;">
<path d="M69685 75396
L112205 75396
" />
</g>
<g style="fill:#000000; fill-opacity:0.0; 
stroke:#000000; stroke-width:39.3701; stroke-opacity:1; 
stroke-linecap:round; stroke-linejoin:round;">
</g>
<g style="fill:#000000; fill-opacity:0.0; 
stroke:#000000; stroke-width:118.11; stroke-opacity:1; 
stroke-linecap:round; stroke-linejoin:round;">
<path d="M104022 76293
L103825 76012
" />
<path d="M103684 76293
L103684 75703
L103909 75703
L103965 75731
L103994 75759
L104022 75815
L104022 75899
L103994 75956
L103965 75984
L103909 76012
L103684 76012
" />
<path d="M104500 76265
L104444 76293
L104331 76293
L104275 76265
L104247 76209
L104247 75984
L104275 75928
L104331 75899
L104444 75899
L104500 75928
L104528 75984
L104528 76040
L104247 76096
" />
<path d="M104725 75899
L104865 76293
L105006 75899
" />
<path d="M105231 76237
L105259 76265
L105231 76293
L105203 76265
L105231 76237
L105231 76293
" />
<path d="M105231 75928
L105259 75956
L105231 75984
L105203 75956
L105231 75928
L105231 75984
" />
</g>
<g style="fill:#000000; fill-opacity:0.0; 
stroke:#000000; stroke-width:39.3701; stroke-opacity:1; 
stroke-linecap:round; stroke-linejoin:round;">
</g>
<g style="fill:#000000; fill-opacity:0.0; 
stroke:#000000; stroke-width:59.0551; stroke-opacity:1; 
stroke-linecap:round; stroke-linejoin:round;">
<path d="M70192 76265
L70276 76293
L70417 76293
L70473 76265
L70501 76237
L70529 76181
L70529 76124
L70501 76068
L70473 76040
L70417 76012
L70304 75984
L70248 75956
L70220 75928
L70192 75871
L70192 75815
L70220 75759
L70248 75731
L70304 75703
L70445 75703
L70529 75731
" />
<path d="M70782 76293
L70782 75899
" />
<path d="M70782 75703
L70754 75731
L70782 75759
L70810 75731
L70782 75703
L70782 75759
" />
<path d="M71007 75899
L71316 75899
L71007 76293
L71316 76293
" />
<path d="M71766 76265
L71710 76293
L71598 76293
L71541 76265
L71513 76209
L71513 75984
L71541 75928
L71598 75899
L71710 75899
L71766 75928
L71795 75984
L71795 76040
L71513 76096
" />
<path d="M72048 76237
L72076 76265
L72048 76293
L72019 76265
L72048 76237
L72048 76293
" />
<path d="M72048 75928
L72076 75956
L72048 75984
L72019 75956
L72048 75928
L72048 75984
" />
<path d="M72751 76124
L73032 76124
" />
<path d="M72694 76293
L72891 75703
L73088 76293
" />
<path d="M73538 75899
L73538 76293
" />
<path d="M73397 75674
L73257 76096
L73622 76096
" />
</g>
<g style="fill:#000000; fill-opacity:0.0; 
stroke:#000000; stroke-width:39.3701; stroke-opacity:1; 
stroke-linecap:round; stroke-linejoin:round;">
</g>
<g style="fill:#000000; fill-opacity:0.0; 
stroke:#000000; stroke-width:59.0551; stroke-opacity:1; 
stroke-linecap:round; stroke-linejoin:round;">
<path d="M103684 77395
L103684 76805
" />
<path d="M104219 77395
L104219 76805
" />
<path d="M104219 77367
L104162 77395
L104050 77395
L103994 77367
L103965 77339
L103937 77283
L103937 77114
L103965 77058
L103994 77030
L104050 77002
L104162 77002
L104219 77030
" />
<path d="M104500 77339
L104528 77367
L104500 77395
L104472 77367
L104500 77339
L104500 77395
" />
<path d="M104500 77030
L104528 77058
L104500 77086
L104472 77058
L104500 77030
L104500 77086
" />
<path d="M105540 77395
L105203 77395
" />
<path d="M105372 77395
L105372 76805
L105315 76889
L105259 76946
L105203 76974
" />
<path d="M106215 76777
L105709 77536
" />
<path d="M106721 77395
L106384 77395
" />
<path d="M106553 77395
L106553 76805
L106496 76889
L106440 76946
L106384 76974
" />
</g>
<g style="fill:#000000; fill-opacity:0.0; 
stroke:#000000; stroke-width:39.3701; stroke-opacity:1; 
stroke-linecap:round; stroke-linejoin:round;">
</g>
<g style="fill:#000000; fill-opacity:0.0; 
stroke:#000000; stroke-width:59.0551; stroke-opacity:1; 
stroke-linecap:round; stroke-linejoin:round;">
<path d="M69685 73821
L112205 73821
" />
</g>
<g style="fill:#000000; fill-opacity:0.0; 
stroke:#000000; stroke-width:39.3701; stroke-opacity:1; 
stroke-linecap:round; stroke-linejoin:round;">
</g>
<g style="fill:#000000; fill-opacity:0.0; 
stroke:#000000; stroke-width:157.48; stroke-opacity:1; 
stroke-linecap:round; stroke-linejoin:round;">
<path d="M70257 74099
L70707 74099
" />
<path d="M70384 74886
L70482 74099
" />
<path d="M70871 74886
L70937 74361
" />
<path d="M70970 74099
L70927 74136
L70960 74174
L71002 74136
L70970 74099
L70960 74174
" />
<path d="M71199 74361
L71499 74361
" />
<path d="M71345 74099
L71260 74774
L71288 74849
L71359 74886
L71434 74886
" />
<path d="M71809 74886
L71738 74849
L71710 74774
L71795 74099
" />
<path d="M72413 74849
L72334 74886
L72184 74886
L72113 74849
L72085 74774
L72123 74474
L72169 74399
L72249 74361
L72399 74361
L72469 74399
L72498 74474
L72488 74549
L72104 74624
" />
<path d="M72793 74811
L72826 74849
L72783 74886
L72751 74849
L72793 74811
L72783 74886
" />
<path d="M72844 74399
L72877 74436
L72835 74474
L72802 74436
L72844 74399
L72835 74474
" />
</g>
<g style="fill:#000000; fill-opacity:0.0; 
stroke:#000000; stroke-width:39.3701; stroke-opacity:1; 
stroke-linecap:round; stroke-linejoin:round;">
</g>
<g style="fill:#000000; fill-opacity:0.0; 
stroke:#000000; stroke-width:59.0551; stroke-opacity:1; 
stroke-linecap:round; stroke-linejoin:round;">
<path d="M70417 73070
L70220 73070
" />
<path d="M70220 73380
L70220 72789
L70501 72789
" />
<path d="M70726 73380
L70726 72986
" />
<path d="M70726 72789
L70698 72817
L70726 72845
L70754 72817
L70726 72789
L70726 72845
" />
<path d="M71091 73380
L71035 73352
L71007 73295
L71007 72789
" />
<path d="M71541 73352
L71485 73380
L71373 73380
L71316 73352
L71288 73295
L71288 73070
L71316 73014
L71373 72986
L71485 72986
L71541 73014
L71570 73070
L71570 73127
L71288 73183
" />
<path d="M71823 73323
L71851 73352
L71823 73380
L71795 73352
L71823 73323
L71823 73380
" />
<path d="M71823 73014
L71851 73042
L71823 73070
L71795 73042
L71823 73014
L71823 73070
" />
<path d="M72554 73070
L72751 73070
" />
<path d="M72835 73380
L72554 73380
L72554 72789
L72835 72789
" />
<path d="M73088 72986
L73088 73380
" />
<path d="M73088 73042
L73116 73014
L73172 72986
L73257 72986
L73313 73014
L73341 73070
L73341 73380
" />
<path d="M73847 73352
L73791 73380
L73679 73380
L73622 73352
L73594 73295
L73594 73070
L73622 73014
L73679 72986
L73791 72986
L73847 73014
L73876 73070
L73876 73127
L73594 73183
" />
<path d="M74129 73380
L74129 72986
" />
<path d="M74129 73099
L74157 73042
L74185 73014
L74241 72986
L74297 72986
" />
<path d="M74747 72986
L74747 73464
L74719 73520
L74691 73548
L74635 73577
L74550 73577
L74494 73548
" />
<path d="M74747 73352
L74691 73380
L74579 73380
L74522 73352
L74494 73323
L74466 73267
L74466 73099
L74494 73042
L74522 73014
L74579 72986
L74691 72986
L74747 73014
" />
<path d="M74972 72986
L75113 73380
" />
<path d="M75253 72986
L75113 73380
L75057 73520
L75028 73548
L74972 73577
" />
<path d="M75478 73380
L75478 72789
L75675 73211
L75872 72789
L75872 73380
" />
<path d="M76238 73380
L76181 73352
L76153 73323
L76125 73267
L76125 73099
L76153 73042
L76181 73014
L76238 72986
L76322 72986
L76378 73014
L76406 73042
L76435 73099
L76435 73267
L76406 73323
L76378 73352
L76322 73380
L76238 73380
" />
<path d="M76688 72986
L76688 73380
" />
<path d="M76688 73042
L76716 73014
L76772 72986
L76856 72986
L76913 73014
L76941 73070
L76941 73380
" />
<path d="M77222 73380
L77222 72986
" />
<path d="M77222 72789
L77194 72817
L77222 72845
L77250 72817
L77222 72789
L77222 72845
" />
<path d="M77419 72986
L77644 72986
" />
<path d="M77503 72789
L77503 73295
L77531 73352
L77588 73380
L77644 73380
" />
<path d="M77925 73380
L77869 73352
L77841 73323
L77813 73267
L77813 73099
L77841 73042
L77869 73014
L77925 72986
L78009 72986
L78066 73014
L78094 73042
L78122 73099
L78122 73267
L78094 73323
L78066 73352
L78009 73380
L77925 73380
" />
<path d="M78375 73380
L78375 72986
" />
<path d="M78375 73099
L78403 73042
L78431 73014
L78487 72986
L78544 72986
" />
<path d="M78741 73155
L79190 73155
" />
<path d="M79472 73380
L79472 72986
" />
<path d="M79472 73099
L79500 73042
L79528 73014
L79584 72986
L79640 72986
" />
<path d="M80062 73352
L80006 73380
L79894 73380
L79837 73352
L79809 73295
L79809 73070
L79837 73014
L79894 72986
L80006 72986
L80062 73014
L80090 73070
L80090 73127
L79809 73183
" />
<path d="M80287 72986
L80428 73380
L80568 72986
" />
<path d="M81103 73380
L80765 73380
" />
<path d="M80934 73380
L80934 72789
L80878 72874
L80822 72930
L80765 72958
" />
<path d="M81356 73323
L81384 73352
L81356 73380
L81328 73352
L81356 73323
L81356 73380
" />
<path d="M81637 73380
L81637 72789
" />
<path d="M81693 73155
L81862 73380
" />
<path d="M81862 72986
L81637 73211
" />
<path d="M82115 73380
L82115 72986
" />
<path d="M82115 72789
L82087 72817
L82115 72845
L82143 72817
L82115 72789
L82115 72845
" />
<path d="M82649 73352
L82593 73380
L82481 73380
L82424 73352
L82396 73323
L82368 73267
L82368 73099
L82396 73042
L82424 73014
L82481 72986
L82593 72986
L82649 73014
" />
<path d="M83156 73380
L83156 73070
L83127 73014
L83071 72986
L82959 72986
L82903 73014
" />
<path d="M83156 73352
L83099 73380
L82959 73380
L82903 73352
L82874 73295
L82874 73239
L82903 73183
L82959 73155
L83099 73155
L83156 73127
" />
<path d="M83690 73380
L83690 72789
" />
<path d="M83690 73352
L83634 73380
L83521 73380
L83465 73352
L83437 73323
L83409 73267
L83409 73099
L83437 73042
L83465 73014
L83521 72986
L83634 72986
L83690 73014
" />
<path d="M83831 73436
L84280 73436
" />
<path d="M84421 72986
L84421 73577
" />
<path d="M84421 73014
L84477 72986
L84590 72986
L84646 73014
L84674 73042
L84702 73099
L84702 73267
L84674 73323
L84646 73352
L84590 73380
L84477 73380
L84421 73352
" />
<path d="M85208 73352
L85152 73380
L85040 73380
L84983 73352
L84955 73323
L84927 73267
L84927 73099
L84955 73042
L84983 73014
L85040 72986
L85152 72986
L85208 73014
" />
<path d="M85462 73380
L85462 72789
" />
<path d="M85462 73014
L85518 72986
L85630 72986
L85687 73014
L85715 73042
L85743 73099
L85743 73267
L85715 73323
L85687 73352
L85630 73380
L85518 73380
L85462 73352
" />
</g>
<g style="fill:#000000; fill-opacity:0.0; 
stroke:#000000; stroke-width:39.3701; stroke-opacity:1; 
stroke-linecap:round; stroke-linejoin:round;">
</g>
<g style="fill:#000000; fill-opacity:0.0; 
stroke:#000000; stroke-width:59.0551; stroke-opacity:1; 
stroke-linecap:round; stroke-linejoin:round;">
<path d="M69685 71459
L112205 71459
" />
</g>
<g style="fill:#000000; fill-opacity:0.0; 
stroke:#000000; stroke-width:39.3701; stroke-opacity:1; 
stroke-linecap:round; stroke-linejoin:round;">
</g>
<g style="fill:#000000; fill-opacity:0.0; 
stroke:#000000; stroke-width:59.0551; stroke-opacity:1; 
stroke-linecap:round; stroke-linejoin:round;">
<path d="M70192 72289
L70276 72317
L70417 72317
L70473 72289
L70501 72260
L70529 72204
L70529 72148
L70501 72092
L70473 72064
L70417 72036
L70304 72007
L70248 71979
L70220 71951
L70192 71895
L70192 71839
L70220 71782
L70248 71754
L70304 71726
L70445 71726
L70529 71754
" />
<path d="M70782 72317
L70782 71726
" />
<path d="M71035 72317
L71035 72007
L71007 71951
L70951 71923
L70867 71923
L70810 71951
L70782 71979
" />
<path d="M71541 72289
L71485 72317
L71373 72317
L71316 72289
L71288 72232
L71288 72007
L71316 71951
L71373 71923
L71485 71923
L71541 71951
L71570 72007
L71570 72064
L71288 72120
" />
<path d="M72048 72289
L71991 72317
L71879 72317
L71823 72289
L71795 72232
L71795 72007
L71823 71951
L71879 71923
L71991 71923
L72048 71951
L72076 72007
L72076 72064
L71795 72120
" />
<path d="M72244 71923
L72469 71923
" />
<path d="M72329 71726
L72329 72232
L72357 72289
L72413 72317
L72469 72317
" />
<path d="M72666 72260
L72694 72289
L72666 72317
L72638 72289
L72666 72260
L72666 72317
" />
<path d="M72666 71951
L72694 71979
L72666 72007
L72638 71979
L72666 71951
L72666 72007
" />
</g>
<g style="fill:#000000; fill-opacity:0.0; 
stroke:#000000; stroke-width:39.3701; stroke-opacity:1; 
stroke-linecap:round; stroke-linejoin:round;">
</g>
<g style="fill:#000000; fill-opacity:0.0; 
stroke:#000000; stroke-width:59.0551; stroke-opacity:1; 
stroke-linecap:round; stroke-linejoin:round;">
<path d="M77559 75396
L77559 76577
" />
</g>
<g style="fill:#000000; fill-opacity:0.0; 
stroke:#000000; stroke-width:39.3701; stroke-opacity:1; 
stroke-linecap:round; stroke-linejoin:round;">
</g>
<g style="fill:#000000; fill-opacity:0.0; 
stroke:#000000; stroke-width:59.0551; stroke-opacity:1; 
stroke-linecap:round; stroke-linejoin:round;">
<path d="M102756 75396
L102756 77955
" />
</g>
<g style="fill:#C2C200; fill-opacity:0.0; 
stroke:#C2C200; stroke-width:59.0551; stroke-opacity:1; 
stroke-linecap:round; stroke-linejoin:round;">
<circle cx="43425" cy="52875" r="656.168" /> 
<path d="M42440 52875
L44409 52875
" />
<path d="M43425 51890
L43425 53859
" />
<circle cx="85675" cy="11600" r="656.168" /> 
<path d="M84690 11600
L86659 11600
" />
<path d="M85675 10615
L85675 12584
" />
<path d="M45000 52000
L45000 32500
" />
<path d="M84000 52000
L45000 52000
" />
<path d="M84000 13000
L84000 52000
" />
<path d="M45000 13000
L84000 13000
" />
<path d="M45000 32500
L45000 13000
" />
</g>
<g style="fill:#008400; fill-opacity:0.0; 
stroke:#008400; stroke-width:39.3701; stroke-opacity:1; 
stroke-linecap:round; stroke-linejoin:round;">
</g>
<g style="fill:#008400; fill-opacity:1.0; 
stroke:#008400; stroke-width:39.3701; stroke-opacity:1; 
stroke-linecap:round; stroke-linejoin:round;">
<polyline style="fill-rule:evenodd;"
points="48545,18605
47954,18605
47954,17228
48545,17228
48545,18605
" /> 
<polyline style="fill-rule:evenodd;"
points="48545,20771
47954,20771
47954,19394
48545,19394
48545,20771
" /> 
<polyline style="fill-rule:evenodd;"
points="54045,18605
53454,18605
53454,17228
54045,17228
54045,18605
" /> 
<polyline style="fill-rule:evenodd;"
points="54045,20771
53454,20771
53454,19394
54045,19394
54045,20771
" /> 
<polyline style="fill-rule:evenodd;"
points="59545,18605
58954,18605
58954,17228
59545,17228
59545,18605
" /> 
<polyline style="fill-rule:evenodd;"
points="59545,20771
58954,20771
58954,19394
59545,19394
59545,20771
" /> 
<polyline style="fill-rule:evenodd;"
points="65045,18605
64454,18605
64454,17228
65045,17228
65045,18605
" /> 
<polyline style="fill-rule:evenodd;"
points="65045,20771
64454,20771
64454,19394
65045,19394
65045,20771
" /> 
<polyline style="fill-rule:evenodd;"
points="70545,18605
69954,18605
69954,17228
70545,17228
70545,18605
" /> 
<polyline style="fill-rule:evenodd;"
points="70545,20771
69954,20771
69954,19394
70545,19394
70545,20771
" /> 
<polyline style="fill-rule:evenodd;"
points="76045,18605
75454,18605
75454,17228
76045,17228
76045,18605
" /> 
<polyline style="fill-rule:evenodd;"
points="76045,20771
75454,20771
75454,19394
76045,19394
76045,20771
" /> 
<polyline style="fill-rule:evenodd;"
points="48204,46394
48795,46394
48795,47771
48204,47771
48204,46394
" /> 
<polyline style="fill-rule:evenodd;"
points="48204,44228
48795,44228
48795,45605
48204,45605
48204,44228
" /> 
<polyline style="fill-rule:evenodd;"
points="53704,46394
54295,46394
54295,47771
53704,47771
53704,46394
" /> 
<polyline style="fill-rule:evenodd;"
points="53704,44228
54295,44228
54295,45605
53704,45605
53704,44228
" /> 
<polyline style="fill-rule:evenodd;"
points="59204,46394
59795,46394
59795,47771
59204,47771
59204,46394
" /> 
<polyline style="fill-rule:evenodd;"
points="59204,44228
59795,44228
59795,45605
59204,45605
59204,44228
" /> 
<polyline style="fill-rule:evenodd;"
points="64704,46394
65295,46394
65295,47771
64704,47771
64704,46394
" /> 
<polyline style="fill-rule:evenodd;"
points="64704,44228
65295,44228
65295,45605
64704,45605
64704,44228
" /> 
<polyline style="fill-rule:evenodd;"
points="70204,46394
70795,46394
70795,47771
70204,47771
70204,46394
" /> 
<polyline style="fill-rule:evenodd;"
points="70204,44228
70795,44228
70795,45605
70204,45605
70204,44228
" /> 
<polyline style="fill-rule:evenodd;"
points="75704,46394
76295,46394
76295,47771
75704,47771
75704,46394
" /> 
<polyline style="fill-rule:evenodd;"
points="75704,44228
76295,44228
76295,45605
75704,45605
75704,44228
" /> 
<polyline style="fill-rule:evenodd;"
points="67104,36494
67695,36494
67695,37871
67104,37871
67104,36494
" /> 
<polyline style="fill-rule:evenodd;"
points="67104,34328
67695,34328
67695,35705
67104,35705
67104,34328
" /> 
<polyline style="fill-rule:evenodd;"
points="82148,15344
82148,15855
81951,15855
81951,15344
82148,15344
" /> 
<polyline style="fill-rule:evenodd;"
points="82148,17444
82148,17955
81951,17955
81951,17444
82148,17444
" /> 
<polyline style="fill-rule:evenodd;"
points="81648,15344
81648,15855
81451,15855
81451,15344
81648,15344
" /> 
<polyline style="fill-rule:evenodd;"
points="81148,15344
81148,15855
80951,15855
80951,15344
81148,15344
" /> 
<polyline style="fill-rule:evenodd;"
points="80648,15344
80648,15855
80451,15855
80451,15344
80648,15344
" /> 
<polyline style="fill-rule:evenodd;"
points="81648,17444
81648,17955
81451,17955
81451,17444
81648,17444
" /> 
<polyline style="fill-rule:evenodd;"
points="81148,17444
81148,17955
80951,17955
80951,17444
81148,17444
" /> 
<polyline style="fill-rule:evenodd;"
points="80648,17444
80648,17955
80451,17955
80451,17444
80648,17444
" /> 
<polyline style="fill-rule:evenodd;"
points="82098,20944
82098,21455
81901,21455
81901,20944
82098,20944
" /> 
<polyline style="fill-rule:evenodd;"
points="82098,23044
82098,23555
81901,23555
81901,23044
82098,23044
" /> 
<polyline style="fill-rule:evenodd;"
points="81598,20944
81598,21455
81401,21455
81401,20944
81598,20944
" /> 
<polyline style="fill-rule:evenodd;"
points="81098,20944
81098,21455
80901,21455
80901,20944
81098,20944
" /> 
<polyline style="fill-rule:evenodd;"
points="80598,20944
80598,21455
80401,21455
80401,20944
80598,20944
" /> 
<polyline style="fill-rule:evenodd;"
points="81598,23044
81598,23555
81401,23555
81401,23044
81598,23044
" /> 
<polyline style="fill-rule:evenodd;"
points="81098,23044
81098,23555
80901,23555
80901,23044
81098,23044
" /> 
<polyline style="fill-rule:evenodd;"
points="80598,23044
80598,23555
80401,23555
80401,23044
80598,23044
" /> 
<polyline style="fill-rule:evenodd;"
points="57279,37832
57870,37832
57870,38186
57279,38186
57279,37832
" /> 
<polyline style="fill-rule:evenodd;"
points="57279,39013
57870,39013
57870,39367
57279,39367
57279,39013
" /> 
<polyline style="fill-rule:evenodd;"
points="47570,27773
47570,28226
47216,28226
47216,27773
47570,27773
" /> 
<polyline style="fill-rule:evenodd;"
points="46783,27773
46783,28226
46429,28226
46429,27773
46783,27773
" /> 
<polyline style="fill-rule:evenodd;"
points="82823,16079
83276,16079
83276,16433
82823,16433
82823,16079
" /> 
<polyline style="fill-rule:evenodd;"
points="82823,16866
83276,16866
83276,17220
82823,17220
82823,16866
" /> 
<polyline style="fill-rule:evenodd;"
points="82773,21679
83226,21679
83226,22033
82773,22033
82773,21679
" /> 
<polyline style="fill-rule:evenodd;"
points="82773,22466
83226,22466
83226,22820
82773,22820
82773,22466
" /> 
<polyline style="fill-rule:evenodd;"
points="59413,41006
59413,41281
59138,41281
59138,41006
59413,41006
" /> 
<polyline style="fill-rule:evenodd;"
points="58861,41006
58861,41281
58586,41281
58586,41006
58861,41006
" /> 
<polyline style="fill-rule:evenodd;"
points="59137,40219
59137,40494
58862,40494
58862,40219
59137,40219
" /> 
<polyline style="fill-rule:evenodd;"
points="60913,41006
60913,41281
60638,41281
60638,41006
60913,41006
" /> 
<polyline style="fill-rule:evenodd;"
points="60361,41006
60361,41281
60086,41281
60086,41006
60361,41006
" /> 
<polyline style="fill-rule:evenodd;"
points="60637,40219
60637,40494
60362,40494
60362,40219
60637,40219
" /> 
<polyline style="fill-rule:evenodd;"
points="62413,41006
62413,41281
62138,41281
62138,41006
62413,41006
" /> 
<polyline style="fill-rule:evenodd;"
points="61861,41006
61861,41281
61586,41281
61586,41006
61861,41006
" /> 
<polyline style="fill-rule:evenodd;"
points="62137,40219
62137,40494
61862,40494
61862,40219
62137,40219
" /> 
<polyline style="fill-rule:evenodd;"
points="65413,41006
65413,41281
65138,41281
65138,41006
65413,41006
" /> 
<polyline style="fill-rule:evenodd;"
points="64861,41006
64861,41281
64586,41281
64586,41006
64861,41006
" /> 
<polyline style="fill-rule:evenodd;"
points="65137,40219
65137,40494
64862,40494
64862,40219
65137,40219
" /> 
<polyline style="fill-rule:evenodd;"
points="65913,39256
65913,39531
65638,39531
65638,39256
65913,39256
" /> 
<polyline style="fill-rule:evenodd;"
points="65361,39256
65361,39531
65086,39531
65086,39256
65361,39256
" /> 
<polyline style="fill-rule:evenodd;"
points="65637,38469
65637,38744
65362,38744
65362,38469
65637,38469
" /> 
<polyline style="fill-rule:evenodd;"
points="63913,41006
63913,41281
63638,41281
63638,41006
63913,41006
" /> 
<polyline style="fill-rule:evenodd;"
points="63361,41006
63361,41281
63086,41281
63086,41006
63361,41006
" /> 
<polyline style="fill-rule:evenodd;"
points="63637,40219
63637,40494
63362,40494
63362,40219
63637,40219
" /> 
<polyline style="fill-rule:evenodd;"
points="68913,40056
68913,40331
68638,40331
68638,40056
68913,40056
" /> 
<polyline style="fill-rule:evenodd;"
points="68361,40056
68361,40331
68086,40331
68086,40056
68361,40056
" /> 
<polyline style="fill-rule:evenodd;"
points="68637,39269
68637,39544
68362,39544
68362,39269
68637,39269
" /> 
<polyline style="fill-rule:evenodd;"
points="70113,40056
70113,40331
69838,40331
69838,40056
70113,40056
" /> 
<polyline style="fill-rule:evenodd;"
points="69561,40056
69561,40331
69286,40331
69286,40056
69561,40056
" /> 
<polyline style="fill-rule:evenodd;"
points="69837,39269
69837,39544
69562,39544
69562,39269
69837,39269
" /> 
<polyline style="fill-rule:evenodd;"
points="71313,40256
71313,40531
71038,40531
71038,40256
71313,40256
" /> 
<polyline style="fill-rule:evenodd;"
points="70761,40256
70761,40531
70486,40531
70486,40256
70761,40256
" /> 
<polyline style="fill-rule:evenodd;"
points="71037,39469
71037,39744
70762,39744
70762,39469
71037,39469
" /> 
<polyline style="fill-rule:evenodd;"
points="72513,40256
72513,40531
72238,40531
72238,40256
72513,40256
" /> 
<polyline style="fill-rule:evenodd;"
points="71961,40256
71961,40531
71686,40531
71686,40256
71961,40256
" /> 
<polyline style="fill-rule:evenodd;"
points="72237,39469
72237,39744
71962,39744
71962,39469
72237,39469
" /> 
<polyline style="fill-rule:evenodd;"
points="73713,40256
73713,40531
73438,40531
73438,40256
73713,40256
" /> 
<polyline style="fill-rule:evenodd;"
points="73161,40256
73161,40531
72886,40531
72886,40256
73161,40256
" /> 
<polyline style="fill-rule:evenodd;"
points="73437,39469
73437,39744
73162,39744
73162,39469
73437,39469
" /> 
<polyline style="fill-rule:evenodd;"
points="74913,40256
74913,40531
74638,40531
74638,40256
74913,40256
" /> 
<polyline style="fill-rule:evenodd;"
points="74361,40256
74361,40531
74086,40531
74086,40256
74361,40256
" /> 
<polyline style="fill-rule:evenodd;"
points="74637,39469
74637,39744
74362,39744
74362,39469
74637,39469
" /> 
<polyline style="fill-rule:evenodd;"
points="46486,15492
46013,15492
46013,15255
46486,15255
46486,15492
" /> 
<polyline style="fill-rule:evenodd;"
points="46486,14744
46013,14744
46013,14507
46486,14507
46486,14744
" /> 
<polyline style="fill-rule:evenodd;"
points="47486,15492
47013,15492
47013,15255
47486,15255
47486,15492
" /> 
<polyline style="fill-rule:evenodd;"
points="47486,14744
47013,14744
47013,14507
47486,14507
47486,14744
" /> 
<polyline style="fill-rule:evenodd;"
points="50013,18007
50486,18007
50486,18244
50013,18244
50013,18007
" /> 
<polyline style="fill-rule:evenodd;"
points="50013,18755
50486,18755
50486,18992
50013,18992
50013,18755
" /> 
<polyline style="fill-rule:evenodd;"
points="50486,20992
50013,20992
50013,20755
50486,20755
50486,20992
" /> 
<polyline style="fill-rule:evenodd;"
points="50486,20244
50013,20244
50013,20007
50486,20007
50486,20244
" /> 
<polyline style="fill-rule:evenodd;"
points="47013,16007
47486,16007
47486,16244
47013,16244
47013,16007
" /> 
<polyline style="fill-rule:evenodd;"
points="47013,16755
47486,16755
47486,16992
47013,16992
47013,16755
" /> 
<polyline style="fill-rule:evenodd;"
points="51986,15492
51513,15492
51513,15255
51986,15255
51986,15492
" /> 
<polyline style="fill-rule:evenodd;"
points="51986,14744
51513,14744
51513,14507
51986,14507
51986,14744
" /> 
<polyline style="fill-rule:evenodd;"
points="52986,15492
52513,15492
52513,15255
52986,15255
52986,15492
" /> 
<polyline style="fill-rule:evenodd;"
points="52986,14744
52513,14744
52513,14507
52986,14507
52986,14744
" /> 
<polyline style="fill-rule:evenodd;"
points="55513,18007
55986,18007
55986,18244
55513,18244
55513,18007
" /> 
<polyline style="fill-rule:evenodd;"
points="55513,18755
55986,18755
55986,18992
55513,18992
55513,18755
" /> 
<polyline style="fill-rule:evenodd;"
points="55986,20992
55513,20992
55513,20755
55986,20755
55986,20992
" /> 
<polyline style="fill-rule:evenodd;"
points="55986,20244
55513,20244
55513,20007
55986,20007
55986,20244
" /> 
<polyline style="fill-rule:evenodd;"
points="52513,16007
52986,16007
52986,16244
52513,16244
52513,16007
" /> 
<polyline style="fill-rule:evenodd;"
points="52513,16755
52986,16755
52986,16992
52513,16992
52513,16755
" /> 
<polyline style="fill-rule:evenodd;"
points="57486,15492
57013,15492
57013,15255
57486,15255
57486,15492
" /> 
<polyline style="fill-rule:evenodd;"
points="57486,14744
57013,14744
57013,14507
57486,14507
57486,14744
" /> 
<polyline style="fill-rule:evenodd;"
points="58486,15492
58013,15492
58013,15255
58486,15255
58486,15492
" /> 
<polyline style="fill-rule:evenodd;"
points="58486,14744
58013,14744
58013,14507
58486,14507
58486,14744
" /> 
<polyline style="fill-rule:evenodd;"
points="61013,18007
61486,18007
61486,18244
61013,18244
61013,18007
" /> 
<polyline style="fill-rule:evenodd;"
points="61013,18755
61486,18755
61486,18992
61013,18992
61013,18755
" /> 
<polyline style="fill-rule:evenodd;"
points="61486,20992
61013,20992
61013,20755
61486,20755
61486,20992
" /> 
<polyline style="fill-rule:evenodd;"
points="61486,20244
61013,20244
61013,20007
61486,20007
61486,20244
" /> 
<polyline style="fill-rule:evenodd;"
points="58013,16007
58486,16007
58486,16244
58013,16244
58013,16007
" /> 
<polyline style="fill-rule:evenodd;"
points="58013,16755
58486,16755
58486,16992
58013,16992
58013,16755
" /> 
<polyline style="fill-rule:evenodd;"
points="62986,15492
62513,15492
62513,15255
62986,15255
62986,15492
" /> 
<polyline style="fill-rule:evenodd;"
points="62986,14744
62513,14744
62513,14507
62986,14507
62986,14744
" /> 
<polyline style="fill-rule:evenodd;"
points="63986,15492
63513,15492
63513,15255
63986,15255
63986,15492
" /> 
<polyline style="fill-rule:evenodd;"
points="63986,14744
63513,14744
63513,14507
63986,14507
63986,14744
" /> 
<polyline style="fill-rule:evenodd;"
points="66513,18007
66986,18007
66986,18244
66513,18244
66513,18007
" /> 
<polyline style="fill-rule:evenodd;"
points="66513,18755
66986,18755
66986,18992
66513,18992
66513,18755
" /> 
<polyline style="fill-rule:evenodd;"
points="66986,20992
66513,20992
66513,20755
66986,20755
66986,20992
" /> 
<polyline style="fill-rule:evenodd;"
points="66986,20244
66513,20244
66513,20007
66986,20007
66986,20244
" /> 
<polyline style="fill-rule:evenodd;"
points="63513,16007
63986,16007
63986,16244
63513,16244
63513,16007
" /> 
<polyline style="fill-rule:evenodd;"
points="63513,16755
63986,16755
63986,16992
63513,16992
63513,16755
" /> 
<polyline style="fill-rule:evenodd;"
points="68486,15492
68013,15492
68013,15255
68486,15255
68486,15492
" /> 
<polyline style="fill-rule:evenodd;"
points="68486,14744
68013,14744
68013,14507
68486,14507
68486,14744
" /> 
<polyline style="fill-rule:evenodd;"
points="69486,15492
69013,15492
69013,15255
69486,15255
69486,15492
" /> 
<polyline style="fill-rule:evenodd;"
points="69486,14744
69013,14744
69013,14507
69486,14507
69486,14744
" /> 
<polyline style="fill-rule:evenodd;"
points="72013,18007
72486,18007
72486,18244
72013,18244
72013,18007
" /> 
<polyline style="fill-rule:evenodd;"
points="72013,18755
72486,18755
72486,18992
72013,18992
72013,18755
" /> 
<polyline style="fill-rule:evenodd;"
points="72486,20992
72013,20992
72013,20755
72486,20755
72486,20992
" /> 
<polyline style="fill-rule:evenodd;"
points="72486,20244
72013,20244
72013,20007
72486,20007
72486,20244
" /> 
<polyline style="fill-rule:evenodd;"
points="69013,16007
69486,16007
69486,16244
69013,16244
69013,16007
" /> 
<polyline style="fill-rule:evenodd;"
points="69013,16755
69486,16755
69486,16992
69013,16992
69013,16755
" /> 
<polyline style="fill-rule:evenodd;"
points="73986,15492
73513,15492
73513,15255
73986,15255
73986,15492
" /> 
<polyline style="fill-rule:evenodd;"
points="73986,14744
73513,14744
73513,14507
73986,14507
73986,14744
" /> 
<polyline style="fill-rule:evenodd;"
points="74986,15492
74513,15492
74513,15255
74986,15255
74986,15492
" /> 
<polyline style="fill-rule:evenodd;"
points="74986,14744
74513,14744
74513,14507
74986,14507
74986,14744
" /> 
<polyline style="fill-rule:evenodd;"
points="77513,18007
77986,18007
77986,18244
77513,18244
77513,18007
" /> 
<polyline style="fill-rule:evenodd;"
points="77513,18755
77986,18755
77986,18992
77513,18992
77513,18755
" /> 
<polyline style="fill-rule:evenodd;"
points="77986,20492
77513,20492
77513,20255
77986,20255
77986,20492
" /> 
<polyline style="fill-rule:evenodd;"
points="77986,19744
77513,19744
77513,19507
77986,19507
77986,19744
" /> 
<polyline style="fill-rule:evenodd;"
points="74513,16007
74986,16007
74986,16244
74513,16244
74513,16007
" /> 
<polyline style="fill-rule:evenodd;"
points="74513,16755
74986,16755
74986,16992
74513,16992
74513,16755
" /> 
<polyline style="fill-rule:evenodd;"
points="51013,20007
51486,20007
51486,20244
51013,20244
51013,20007
" /> 
<polyline style="fill-rule:evenodd;"
points="51013,20755
51486,20755
51486,20992
51013,20992
51013,20755
" /> 
<polyline style="fill-rule:evenodd;"
points="56513,20007
56986,20007
56986,20244
56513,20244
56513,20007
" /> 
<polyline style="fill-rule:evenodd;"
points="56513,20755
56986,20755
56986,20992
56513,20992
56513,20755
" /> 
<polyline style="fill-rule:evenodd;"
points="62013,20007
62486,20007
62486,20244
62013,20244
62013,20007
" /> 
<polyline style="fill-rule:evenodd;"
points="62013,20755
62486,20755
62486,20992
62013,20992
62013,20755
" /> 
<polyline style="fill-rule:evenodd;"
points="67513,20007
67986,20007
67986,20244
67513,20244
67513,20007
" /> 
<polyline style="fill-rule:evenodd;"
points="67513,20755
67986,20755
67986,20992
67513,20992
67513,20755
" /> 
<polyline style="fill-rule:evenodd;"
points="73013,20007
73486,20007
73486,20244
73013,20244
73013,20007
" /> 
<polyline style="fill-rule:evenodd;"
points="73013,20755
73486,20755
73486,20992
73013,20992
73013,20755
" /> 
<polyline style="fill-rule:evenodd;"
points="78263,19507
78736,19507
78736,19744
78263,19744
78263,19507
" /> 
<polyline style="fill-rule:evenodd;"
points="78263,20255
78736,20255
78736,20492
78263,20492
78263,20255
" /> 
<polyline style="fill-rule:evenodd;"
points="50007,47736
50007,47263
50244,47263
50244,47736
50007,47736
" /> 
<polyline style="fill-rule:evenodd;"
points="50755,47736
50755,47263
50992,47263
50992,47736
50755,47736
" /> 
<polyline style="fill-rule:evenodd;"
points="50263,49507
50736,49507
50736,49744
50263,49744
50263,49507
" /> 
<polyline style="fill-rule:evenodd;"
points="50263,50255
50736,50255
50736,50492
50263,50492
50263,50255
" /> 
<polyline style="fill-rule:evenodd;"
points="49263,49507
49736,49507
49736,49744
49263,49744
49263,49507
" /> 
<polyline style="fill-rule:evenodd;"
points="49263,50255
49736,50255
49736,50492
49263,50492
49263,50255
" /> 
<polyline style="fill-rule:evenodd;"
points="46736,46992
46263,46992
46263,46755
46736,46755
46736,46992
" /> 
<polyline style="fill-rule:evenodd;"
points="46736,46244
46263,46244
46263,46007
46736,46007
46736,46244
" /> 
<polyline style="fill-rule:evenodd;"
points="47013,44007
47486,44007
47486,44244
47013,44244
47013,44007
" /> 
<polyline style="fill-rule:evenodd;"
points="47013,44755
47486,44755
47486,44992
47013,44992
47013,44755
" /> 
<polyline style="fill-rule:evenodd;"
points="49736,48992
49263,48992
49263,48755
49736,48755
49736,48992
" /> 
<polyline style="fill-rule:evenodd;"
points="49736,48244
49263,48244
49263,48007
49736,48007
49736,48244
" /> 
<polyline style="fill-rule:evenodd;"
points="55507,47736
55507,47263
55744,47263
55744,47736
55507,47736
" /> 
<polyline style="fill-rule:evenodd;"
points="56255,47736
56255,47263
56492,47263
56492,47736
56255,47736
" /> 
<polyline style="fill-rule:evenodd;"
points="55763,49507
56236,49507
56236,49744
55763,49744
55763,49507
" /> 
<polyline style="fill-rule:evenodd;"
points="55763,50255
56236,50255
56236,50492
55763,50492
55763,50255
" /> 
<polyline style="fill-rule:evenodd;"
points="54763,49507
55236,49507
55236,49744
54763,49744
54763,49507
" /> 
<polyline style="fill-rule:evenodd;"
points="54763,50255
55236,50255
55236,50492
54763,50492
54763,50255
" /> 
<polyline style="fill-rule:evenodd;"
points="52236,46992
51763,46992
51763,46755
52236,46755
52236,46992
" /> 
<polyline style="fill-rule:evenodd;"
points="52236,46244
51763,46244
51763,46007
52236,46007
52236,46244
" /> 
<polyline style="fill-rule:evenodd;"
points="51763,44007
52236,44007
52236,44244
51763,44244
51763,44007
" /> 
<polyline style="fill-rule:evenodd;"
points="51763,44755
52236,44755
52236,44992
51763,44992
51763,44755
" /> 
<polyline style="fill-rule:evenodd;"
points="55236,48992
54763,48992
54763,48755
55236,48755
55236,48992
" /> 
<polyline style="fill-rule:evenodd;"
points="55236,48244
54763,48244
54763,48007
55236,48007
55236,48244
" /> 
<polyline style="fill-rule:evenodd;"
points="61007,47736
61007,47263
61244,47263
61244,47736
61007,47736
" /> 
<polyline style="fill-rule:evenodd;"
points="61755,47736
61755,47263
61992,47263
61992,47736
61755,47736
" /> 
<polyline style="fill-rule:evenodd;"
points="61263,49507
61736,49507
61736,49744
61263,49744
61263,49507
" /> 
<polyline style="fill-rule:evenodd;"
points="61263,50255
61736,50255
61736,50492
61263,50492
61263,50255
" /> 
<polyline style="fill-rule:evenodd;"
points="60263,49507
60736,49507
60736,49744
60263,49744
60263,49507
" /> 
<polyline style="fill-rule:evenodd;"
points="60263,50255
60736,50255
60736,50492
60263,50492
60263,50255
" /> 
<polyline style="fill-rule:evenodd;"
points="57736,46992
57263,46992
57263,46755
57736,46755
57736,46992
" /> 
<polyline style="fill-rule:evenodd;"
points="57736,46244
57263,46244
57263,46007
57736,46007
57736,46244
" /> 
<polyline style="fill-rule:evenodd;"
points="57263,44007
57736,44007
57736,44244
57263,44244
57263,44007
" /> 
<polyline style="fill-rule:evenodd;"
points="57263,44755
57736,44755
57736,44992
57263,44992
57263,44755
" /> 
<polyline style="fill-rule:evenodd;"
points="60736,48992
60263,48992
60263,48755
60736,48755
60736,48992
" /> 
<polyline style="fill-rule:evenodd;"
points="60736,48244
60263,48244
60263,48007
60736,48007
60736,48244
" /> 
<polyline style="fill-rule:evenodd;"
points="66507,47736
66507,47263
66744,47263
66744,47736
66507,47736
" /> 
<polyline style="fill-rule:evenodd;"
points="67255,47736
67255,47263
67492,47263
67492,47736
67255,47736
" /> 
<polyline style="fill-rule:evenodd;"
points="66763,49507
67236,49507
67236,49744
66763,49744
66763,49507
" /> 
<polyline style="fill-rule:evenodd;"
points="66763,50255
67236,50255
67236,50492
66763,50492
66763,50255
" /> 
<polyline style="fill-rule:evenodd;"
points="65763,49507
66236,49507
66236,49744
65763,49744
65763,49507
" /> 
<polyline style="fill-rule:evenodd;"
points="65763,50255
66236,50255
66236,50492
65763,50492
65763,50255
" /> 
<polyline style="fill-rule:evenodd;"
points="63236,46992
62763,46992
62763,46755
63236,46755
63236,46992
" /> 
<polyline style="fill-rule:evenodd;"
points="63236,46244
62763,46244
62763,46007
63236,46007
63236,46244
" /> 
<polyline style="fill-rule:evenodd;"
points="62763,44007
63236,44007
63236,44244
62763,44244
62763,44007
" /> 
<polyline style="fill-rule:evenodd;"
points="62763,44755
63236,44755
63236,44992
62763,44992
62763,44755
" /> 
<polyline style="fill-rule:evenodd;"
points="66236,48992
65763,48992
65763,48755
66236,48755
66236,48992
" /> 
<polyline style="fill-rule:evenodd;"
points="66236,48244
65763,48244
65763,48007
66236,48007
66236,48244
" /> 
<polyline style="fill-rule:evenodd;"
points="72007,47736
72007,47263
72244,47263
72244,47736
72007,47736
" /> 
<polyline style="fill-rule:evenodd;"
points="72755,47736
72755,47263
72992,47263
72992,47736
72755,47736
" /> 
<polyline style="fill-rule:evenodd;"
points="72263,49507
72736,49507
72736,49744
72263,49744
72263,49507
" /> 
<polyline style="fill-rule:evenodd;"
points="72263,50255
72736,50255
72736,50492
72263,50492
72263,50255
" /> 
<polyline style="fill-rule:evenodd;"
points="71263,49507
71736,49507
71736,49744
71263,49744
71263,49507
" /> 
<polyline style="fill-rule:evenodd;"
points="71263,50255
71736,50255
71736,50492
71263,50492
71263,50255
" /> 
<polyline style="fill-rule:evenodd;"
points="68736,46992
68263,46992
68263,46755
68736,46755
68736,46992
" /> 
<polyline style="fill-rule:evenodd;"
points="68736,46244
68263,46244
68263,46007
68736,46007
68736,46244
" /> 
<polyline style="fill-rule:evenodd;"
points="68263,44007
68736,44007
68736,44244
68263,44244
68263,44007
" /> 
<polyline style="fill-rule:evenodd;"
points="68263,44755
68736,44755
68736,44992
68263,44992
68263,44755
" /> 
<polyline style="fill-rule:evenodd;"
points="71736,48992
71263,48992
71263,48755
71736,48755
71736,48992
" /> 
<polyline style="fill-rule:evenodd;"
points="71736,48244
71263,48244
71263,48007
71736,48007
71736,48244
" /> 
<polyline style="fill-rule:evenodd;"
points="77507,47736
77507,47263
77744,47263
77744,47736
77507,47736
" /> 
<polyline style="fill-rule:evenodd;"
points="78255,47736
78255,47263
78492,47263
78492,47736
78255,47736
" /> 
<polyline style="fill-rule:evenodd;"
points="77763,49507
78236,49507
78236,49744
77763,49744
77763,49507
" /> 
<polyline style="fill-rule:evenodd;"
points="77763,50255
78236,50255
78236,50492
77763,50492
77763,50255
" /> 
<polyline style="fill-rule:evenodd;"
points="76763,49507
77236,49507
77236,49744
76763,49744
76763,49507
" /> 
<polyline style="fill-rule:evenodd;"
points="76763,50255
77236,50255
77236,50492
76763,50492
76763,50255
" /> 
<polyline style="fill-rule:evenodd;"
points="74236,46992
73763,46992
73763,46755
74236,46755
74236,46992
" /> 
<polyline style="fill-rule:evenodd;"
points="74236,46244
73763,46244
73763,46007
74236,46007
74236,46244
" /> 
<polyline style="fill-rule:evenodd;"
points="73763,44007
74236,44007
74236,44244
73763,44244
73763,44007
" /> 
<polyline style="fill-rule:evenodd;"
points="73763,44755
74236,44755
74236,44992
73763,44992
73763,44755
" /> 
<polyline style="fill-rule:evenodd;"
points="77236,48992
76763,48992
76763,48755
77236,48755
77236,48992
" /> 
<polyline style="fill-rule:evenodd;"
points="77236,48244
76763,48244
76763,48007
77236,48007
77236,48244
" /> 
<polyline style="fill-rule:evenodd;"
points="62763,24507
63236,24507
63236,24744
62763,24744
62763,24507
" /> 
<polyline style="fill-rule:evenodd;"
points="62763,25255
63236,25255
63236,25492
62763,25492
62763,25255
" /> 
<polyline style="fill-rule:evenodd;"
points="71786,33892
71313,33892
71313,33655
71786,33655
71786,33892
" /> 
<polyline style="fill-rule:evenodd;"
points="71786,33144
71313,33144
71313,32907
71786,32907
71786,33144
" /> 
<polyline style="fill-rule:evenodd;"
points="46486,44992
46013,44992
46013,44755
46486,44755
46486,44992
" /> 
<polyline style="fill-rule:evenodd;"
points="46486,44244
46013,44244
46013,44007
46486,44007
46486,44244
" /> 
<polyline style="fill-rule:evenodd;"
points="51236,44992
50763,44992
50763,44755
51236,44755
51236,44992
" /> 
<polyline style="fill-rule:evenodd;"
points="51236,44244
50763,44244
50763,44007
51236,44007
51236,44244
" /> 
<polyline style="fill-rule:evenodd;"
points="56736,44992
56263,44992
56263,44755
56736,44755
56736,44992
" /> 
<polyline style="fill-rule:evenodd;"
points="56736,44244
56263,44244
56263,44007
56736,44007
56736,44244
" /> 
<polyline style="fill-rule:evenodd;"
points="62236,44992
61763,44992
61763,44755
62236,44755
62236,44992
" /> 
<polyline style="fill-rule:evenodd;"
points="62236,44244
61763,44244
61763,44007
62236,44007
62236,44244
" /> 
<polyline style="fill-rule:evenodd;"
points="67736,44992
67263,44992
67263,44755
67736,44755
67736,44992
" /> 
<polyline style="fill-rule:evenodd;"
points="67736,44244
67263,44244
67263,44007
67736,44007
67736,44244
" /> 
<polyline style="fill-rule:evenodd;"
points="73236,44992
72763,44992
72763,44755
73236,44755
73236,44992
" /> 
<polyline style="fill-rule:evenodd;"
points="73236,44244
72763,44244
72763,44007
73236,44007
73236,44244
" /> 
<polyline style="fill-rule:evenodd;"
points="64607,37536
64607,37063
64844,37063
64844,37536
64607,37536
" /> 
<polyline style="fill-rule:evenodd;"
points="65355,37536
65355,37063
65592,37063
65592,37536
65355,37536
" /> 
<polyline style="fill-rule:evenodd;"
points="79992,50063
79992,50536
79755,50536
79755,50063
79992,50063
" /> 
<polyline style="fill-rule:evenodd;"
points="79244,50063
79244,50536
79007,50536
79007,50063
79244,50063
" /> 
<polyline style="fill-rule:evenodd;"
points="80907,43636
80907,43163
81144,43163
81144,43636
80907,43636
" /> 
<polyline style="fill-rule:evenodd;"
points="81655,43636
81655,43163
81892,43163
81892,43636
81655,43636
" /> 
<polyline style="fill-rule:evenodd;"
points="81736,47792
81263,47792
81263,47555
81736,47555
81736,47792
" /> 
<polyline style="fill-rule:evenodd;"
points="81736,47044
81263,47044
81263,46807
81736,46807
81736,47044
" /> 
<polyline style="fill-rule:evenodd;"
points="81263,34757
81736,34757
81736,34994
81263,34994
81263,34757
" /> 
<polyline style="fill-rule:evenodd;"
points="81263,35505
81736,35505
81736,35742
81263,35742
81263,35505
" /> 
<polyline style="fill-rule:evenodd;"
points="81263,33257
81736,33257
81736,33494
81263,33494
81263,33257
" /> 
<polyline style="fill-rule:evenodd;"
points="81263,34005
81736,34005
81736,34242
81263,34242
81263,34005
" /> 
<polyline style="fill-rule:evenodd;"
points="81936,40992
81463,40992
81463,40755
81936,40755
81936,40992
" /> 
<polyline style="fill-rule:evenodd;"
points="81936,40244
81463,40244
81463,40007
81936,40007
81936,40244
" /> 
<polyline style="fill-rule:evenodd;"
points="81986,27742
81513,27742
81513,27505
81986,27505
81986,27742
" /> 
<polyline style="fill-rule:evenodd;"
points="81986,26994
81513,26994
81513,26757
81986,26757
81986,26994
" /> 
<polyline style="fill-rule:evenodd;"
points="75507,30736
75507,30263
75744,30263
75744,30736
75507,30736
" /> 
<polyline style="fill-rule:evenodd;"
points="76255,30736
76255,30263
76492,30263
76492,30736
76255,30736
" /> 
<polyline style="fill-rule:evenodd;"
points="75507,31736
75507,31263
75744,31263
75744,31736
75507,31736
" /> 
<polyline style="fill-rule:evenodd;"
points="76255,31736
76255,31263
76492,31263
76492,31736
76255,31736
" /> 
<polyline style="fill-rule:evenodd;"
points="75507,32736
75507,32263
75744,32263
75744,32736
75507,32736
" /> 
<polyline style="fill-rule:evenodd;"
points="76255,32736
76255,32263
76492,32263
76492,32736
76255,32736
" /> 
<polyline style="fill-rule:evenodd;"
points="75507,33736
75507,33263
75744,33263
75744,33736
75507,33736
" /> 
<polyline style="fill-rule:evenodd;"
points="76255,33736
76255,33263
76492,33263
76492,33736
76255,33736
" /> 
<polyline style="fill-rule:evenodd;"
points="75507,34736
75507,34263
75744,34263
75744,34736
75507,34736
" /> 
<polyline style="fill-rule:evenodd;"
points="76255,34736
76255,34263
76492,34263
76492,34736
76255,34736
" /> 
<polyline style="fill-rule:evenodd;"
points="75507,35736
75507,35263
75744,35263
75744,35736
75507,35736
" /> 
<polyline style="fill-rule:evenodd;"
points="76255,35736
76255,35263
76492,35263
76492,35736
76255,35736
" /> 
<polyline style="fill-rule:evenodd;"
points="75507,36736
75507,36263
75744,36263
75744,36736
75507,36736
" /> 
<polyline style="fill-rule:evenodd;"
points="76255,36736
76255,36263
76492,36263
76492,36736
76255,36736
" /> 
<polyline style="fill-rule:evenodd;"
points="75507,37736
75507,37263
75744,37263
75744,37736
75507,37736
" /> 
<polyline style="fill-rule:evenodd;"
points="76255,37736
76255,37263
76492,37263
76492,37736
76255,37736
" /> 
<polyline style="fill-rule:evenodd;"
points="75507,38736
75507,38263
75744,38263
75744,38736
75507,38736
" /> 
<polyline style="fill-rule:evenodd;"
points="76255,38736
76255,38263
76492,38263
76492,38736
76255,38736
" /> 
<polyline style="fill-rule:evenodd;"
points="75763,24507
76236,24507
76236,24744
75763,24744
75763,24507
" /> 
<polyline style="fill-rule:evenodd;"
points="75763,25255
76236,25255
76236,25492
75763,25492
75763,25255
" /> 
<polyline style="fill-rule:evenodd;"
points="74763,24507
75236,24507
75236,24744
74763,24744
74763,24507
" /> 
<polyline style="fill-rule:evenodd;"
points="74763,25255
75236,25255
75236,25492
74763,25492
74763,25255
" /> 
<polyline style="fill-rule:evenodd;"
points="49463,25207
49936,25207
49936,25444
49463,25444
49463,25207
" /> 
<polyline style="fill-rule:evenodd;"
points="49463,25955
49936,25955
49936,26192
49463,26192
49463,25955
" /> 
<polyline style="fill-rule:evenodd;"
points="50363,25207
50836,25207
50836,25444
50363,25444
50363,25207
" /> 
<polyline style="fill-rule:evenodd;"
points="50363,25955
50836,25955
50836,26192
50363,26192
50363,25955
" /> 
<polyline style="fill-rule:evenodd;"
points="83236,15242
82763,15242
82763,15005
83236,15005
83236,15242
" /> 
<polyline style="fill-rule:evenodd;"
points="83236,14494
82763,14494
82763,14257
83236,14257
83236,14494
" /> 
<polyline style="fill-rule:evenodd;"
points="83236,20992
82763,20992
82763,20755
83236,20755
83236,20992
" /> 
<polyline style="fill-rule:evenodd;"
points="83236,20244
82763,20244
82763,20007
83236,20007
83236,20244
" /> 
<polyline style="fill-rule:evenodd;"
points="79557,13886
79557,13413
79794,13413
79794,13886
79557,13886
" /> 
<polyline style="fill-rule:evenodd;"
points="80305,13886
80305,13413
80542,13413
80542,13886
80305,13886
" /> 
<polyline style="fill-rule:evenodd;"
points="79507,19486
79507,19013
79744,19013
79744,19486
79507,19486
" /> 
<polyline style="fill-rule:evenodd;"
points="80255,19486
80255,19013
80492,19013
80492,19486
80255,19486
" /> 
<polyline style="fill-rule:evenodd;"
points="82042,13413
82042,13886
81805,13886
81805,13413
82042,13413
" /> 
<polyline style="fill-rule:evenodd;"
points="81294,13413
81294,13886
81057,13886
81057,13413
81294,13413
" /> 
<polyline style="fill-rule:evenodd;"
points="81992,19013
81992,19486
81755,19486
81755,19013
81992,19013
" /> 
<polyline style="fill-rule:evenodd;"
points="81244,19013
81244,19486
81007,19486
81007,19013
81244,19013
" /> 
<polyline style="fill-rule:evenodd;"
points="79313,15657
79786,15657
79786,15894
79313,15894
79313,15657
" /> 
<polyline style="fill-rule:evenodd;"
points="79313,16405
79786,16405
79786,16642
79313,16642
79313,16405
" /> 
<polyline style="fill-rule:evenodd;"
points="79263,21257
79736,21257
79736,21494
79263,21494
79263,21257
" /> 
<polyline style="fill-rule:evenodd;"
points="79263,22005
79736,22005
79736,22242
79263,22242
79263,22005
" /> 
<polyline style="fill-rule:evenodd;"
points="50848,35503
50337,35503
50337,34756
50848,34756
50848,35503
" /> 
<polyline style="fill-rule:evenodd;"
points="50060,35514
49549,35514
49549,34767
50060,34767
50060,35514
" /> 
<polyline style="fill-rule:evenodd;"
points="49273,35514
48762,35514
48762,34767
49273,34767
49273,35514
" /> 
<polyline style="fill-rule:evenodd;"
points="48505,35514
47994,35514
47994,34767
48505,34767
48505,35514
" /> 
<polyline style="fill-rule:evenodd;"
points="47737,35514
47226,35514
47226,34767
47737,34767
47737,35514
" /> 
<polyline style="fill-rule:evenodd;"
points="46950,35514
46439,35514
46439,34767
46950,34767
46950,35514
" /> 
<polyline style="fill-rule:evenodd;"
points="46162,35514
45651,35514
45651,34767
46162,34767
46162,35514
" /> 
<polyline style="fill-rule:evenodd;"
points="46162,29254
45651,29254
45651,28507
46162,28507
46162,29254
" /> 
<polyline style="fill-rule:evenodd;"
points="46950,29254
46439,29254
46439,28507
46950,28507
46950,29254
" /> 
<polyline style="fill-rule:evenodd;"
points="47737,29254
47226,29254
47226,28507
47737,28507
47737,29254
" /> 
<polyline style="fill-rule:evenodd;"
points="48505,29254
47994,29254
47994,28507
48505,28507
48505,29254
" /> 
<polyline style="fill-rule:evenodd;"
points="49273,29254
48762,29254
48762,28507
49273,28507
49273,29254
" /> 
<polyline style="fill-rule:evenodd;"
points="50060,29254
49549,29254
49549,28507
50060,28507
50060,29254
" /> 
<polyline style="fill-rule:evenodd;"
points="50848,29254
50337,29254
50337,28507
50848,28507
50848,29254
" /> 
</g> 
</svg>
