<?xml version="1.0" standalone="no"?>
 <!DOCTYPE svg PUBLIC "-//W3C//DTD SVG 1.1//EN" 
 "http://www.w3.org/Graphics/SVG/1.1/DTD/svg11.dtd"> 
<svg xmlns="http://www.w3.org/2000/svg" version="1.1" 
    width="29.7002cm" height="21.0007cm" viewBox="0 0 116930 82680 ">
<title>SVG Picture created as EnergyMonitor-rev1-drl_map.svg date 2014/12/22 18:16:14 </title>
  <desc>Picture generated by PCBNEW </desc>
<g style="fill:#000000; fill-opacity:1;stroke:#000000; stroke-opacity:1;
stroke-linecap:round; stroke-linejoin:round; "
 transform="translate(0 0) scale(1 1)">
</g>
<g style="fill:#000000; fill-opacity:0.0; 
stroke:#000000; stroke-width:59.0551; stroke-opacity:1; 
stroke-linecap:round; stroke-linejoin:round;">
<path d="M45000 52000
L45000 32500
" />
<path d="M84000 52000
L45000 52000
" />
<path d="M84000 13000
L84000 52000
" />
<path d="M45000 13000
L84000 13000
" />
<path d="M45000 32500
L45000 13000
" />
</g>
<g style="fill:#000000; fill-opacity:0.0; 
stroke:#000000; stroke-width:78.7402; stroke-opacity:1; 
stroke-linecap:round; stroke-linejoin:round;">
<path d="M45975 20175
L46225 20425
" />
<path d="M46225 20175
L45975 20425
" />
<path d="M46275 34075
L46525 34325
" />
<path d="M46525 34075
L46275 34325
" />
<path d="M46575 29575
L46825 29825
" />
<path d="M46825 29575
L46575 29825
" />
<path d="M46875 20125
L47125 20375
" />
<path d="M47125 20125
L46875 20375
" />
<path d="M46975 34075
L47225 34325
" />
<path d="M47225 34075
L46975 34325
" />
<path d="M48075 33075
L48325 33325
" />
<path d="M48325 33075
L48075 33325
" />
<path d="M48975 26575
L49225 26825
" />
<path d="M49225 26575
L48975 26825
" />
<path d="M48975 33775
L49225 34025
" />
<path d="M49225 33775
L48975 34025
" />
<path d="M49250 30375
L49500 30625
" />
<path d="M49500 30375
L49250 30625
" />
<path d="M49375 44875
L49625 45125
" />
<path d="M49625 44875
L49375 45125
" />
<path d="M49475 34075
L49725 34325
" />
<path d="M49725 34075
L49475 34325
" />
<path d="M49975 33775
L50225 34025
" />
<path d="M50225 33775
L49975 34025
" />
<path d="M50100 29750
L50350 30000
" />
<path d="M50350 29750
L50100 30000
" />
<path d="M50875 46625
L51125 46875
" />
<path d="M51125 46625
L50875 46875
" />
<path d="M50975 33775
L51225 34025
" />
<path d="M51225 33775
L50975 34025
" />
<path d="M51025 27075
L51275 27325
" />
<path d="M51275 27075
L51025 27325
" />
<path d="M51775 33975
L52025 34225
" />
<path d="M52025 33975
L51775 34225
" />
<path d="M52275 27175
L52525 27425
" />
<path d="M52525 27175
L52275 27425
" />
<path d="M52575 33975
L52825 34225
" />
<path d="M52825 33975
L52575 34225
" />
<path d="M52625 19625
L52875 19875
" />
<path d="M52875 19625
L52625 19875
" />
<path d="M52675 27575
L52925 27825
" />
<path d="M52925 27575
L52675 27825
" />
<path d="M52875 34775
L53125 35025
" />
<path d="M53125 34775
L52875 35025
" />
<path d="M54275 34875
L54525 35125
" />
<path d="M54525 34875
L54275 35125
" />
<path d="M54875 44875
L55125 45125
" />
<path d="M55125 44875
L54875 45125
" />
<path d="M55475 43975
L55725 44225
" />
<path d="M55725 43975
L55475 44225
" />
<path d="M56625 46625
L56875 46875
" />
<path d="M56875 46625
L56625 46875
" />
<path d="M57625 36075
L57875 36325
" />
<path d="M57875 36075
L57625 36325
" />
<path d="M58125 19625
L58375 19875
" />
<path d="M58375 19625
L58125 19875
" />
<path d="M60375 44875
L60625 45125
" />
<path d="M60625 44875
L60375 45125
" />
<path d="M61575 35875
L61825 36125
" />
<path d="M61825 35875
L61575 36125
" />
<path d="M62125 46625
L62375 46875
" />
<path d="M62375 46625
L62125 46875
" />
<path d="M62175 27025
L62425 27275
" />
<path d="M62425 27025
L62175 27275
" />
<path d="M62375 25875
L62625 26125
" />
<path d="M62625 25875
L62375 26125
" />
<path d="M62975 26175
L63225 26425
" />
<path d="M63225 26175
L62975 26425
" />
<path d="M63375 36875
L63625 37125
" />
<path d="M63625 36875
L63375 37125
" />
<path d="M63625 19625
L63875 19875
" />
<path d="M63875 19625
L63625 19875
" />
<path d="M65175 26675
L65425 26925
" />
<path d="M65425 26675
L65175 26925
" />
<path d="M65175 28525
L65425 28775
" />
<path d="M65425 28525
L65175 28775
" />
<path d="M65775 44175
L66025 44425
" />
<path d="M66025 44175
L65775 44425
" />
<path d="M65875 44875
L66125 45125
" />
<path d="M66125 44875
L65875 45125
" />
<path d="M66375 43175
L66625 43425
" />
<path d="M66625 43175
L66375 43425
" />
<path d="M67175 46675
L67425 46925
" />
<path d="M67425 46675
L67175 46925
" />
<path d="M67475 32725
L67725 32975
" />
<path d="M67725 32725
L67475 32975
" />
<path d="M67725 27225
L67975 27475
" />
<path d="M67975 27225
L67725 27475
" />
<path d="M68725 20800
L68975 21050
" />
<path d="M68975 20800
L68725 21050
" />
<path d="M68725 31625
L68975 31875
" />
<path d="M68975 31625
L68725 31875
" />
<path d="M69125 19625
L69375 19875
" />
<path d="M69375 19625
L69125 19875
" />
<path d="M69575 32175
L69825 32425
" />
<path d="M69825 32175
L69575 32425
" />
<path d="M70275 33175
L70525 33425
" />
<path d="M70525 33175
L70275 33425
" />
<path d="M71275 34675
L71525 34925
" />
<path d="M71525 34675
L71275 34925
" />
<path d="M71275 36375
L71525 36625
" />
<path d="M71525 36375
L71275 36625
" />
<path d="M71375 44875
L71625 45125
" />
<path d="M71625 44875
L71375 45125
" />
<path d="M71675 32075
L71925 32325
" />
<path d="M71925 32075
L71675 32325
" />
<path d="M73125 46625
L73375 46875
" />
<path d="M73375 46625
L73125 46875
" />
<path d="M73425 30975
L73675 31225
" />
<path d="M73675 30975
L73425 31225
" />
<path d="M74175 27225
L74425 27475
" />
<path d="M74425 27225
L74175 27475
" />
<path d="M74275 29375
L74525 29625
" />
<path d="M74525 29375
L74275 29625
" />
<path d="M74475 30925
L74725 31175
" />
<path d="M74725 30925
L74475 31175
" />
<path d="M74625 19625
L74875 19875
" />
<path d="M74875 19625
L74625 19875
" />
<path d="M75275 40275
L75525 40525
" />
<path d="M75525 40275
L75275 40525
" />
<path d="M76525 40575
L76775 40825
" />
<path d="M76775 40575
L76525 40825
" />
<path d="M76875 44875
L77125 45125
" />
<path d="M77125 44875
L76875 45125
" />
<path d="M76975 30375
L77225 30625
" />
<path d="M77225 30375
L76975 30625
" />
<path d="M76975 44275
L77225 44525
" />
<path d="M77225 44275
L76975 44525
" />
<path d="M77625 21825
L77875 22075
" />
<path d="M77875 21825
L77625 22075
" />
<path d="M78325 22675
L78575 22925
" />
<path d="M78575 22675
L78325 22925
" />
<path d="M78375 46625
L78625 46875
" />
<path d="M78625 46625
L78375 46875
" />
<path d="M78875 17025
L79125 17275
" />
<path d="M79125 17025
L78875 17275
" />
<path d="M78875 44175
L79125 44425
" />
<path d="M79125 44175
L78875 44425
" />
<path d="M79375 18175
L79625 18425
" />
<path d="M79625 18175
L79375 18425
" />
<path d="M79525 16975
L79775 17225
" />
<path d="M79775 16975
L79525 17225
" />
<path d="M80375 50125
L80625 50375
" />
<path d="M80625 50125
L80375 50375
" />
<path d="M80625 43875
L80875 44125
" />
<path d="M80875 43875
L80625 44125
" />
<path d="M81125 16125
L81375 16375
" />
<path d="M81375 16125
L81125 16375
" />
<path d="M81375 24375
L81625 24625
" />
<path d="M81625 24375
L81375 24625
" />
<path d="M81375 46125
L81625 46375
" />
<path d="M81625 46125
L81375 46375
" />
<path d="M81625 21875
L81875 22125
" />
<path d="M81875 21875
L81625 22125
" />
<path d="M82775 19175
L83025 19425
" />
<path d="M83025 19175
L82775 19425
" />
<path d="M82975 23475
L83225 23725
" />
<path d="M83225 23475
L82975 23725
" />
<circle cx="64500" cy="25000" r="157.5" /> 
<circle cx="65500" cy="25000" r="157.5" /> 
<circle cx="65500" cy="26000" r="157.5" /> 
<circle cx="66500" cy="25000" r="157.5" /> 
<path d="M48500 37590
L48500 37910
" />
<path d="M48340 37750
L48660 37750
" />
<path d="M48500 41090
L48500 41410
" />
<path d="M48340 41250
L48660 41250
" />
<path d="M53500 25340
L53500 25660
" />
<path d="M53340 25500
L53660 25500
" />
<path d="M53500 28340
L53500 28660
" />
<path d="M53340 28500
L53660 28500
" />
<path d="M54500 25340
L54500 25660
" />
<path d="M54340 25500
L54660 25500
" />
<path d="M54500 28340
L54500 28660
" />
<path d="M54340 28500
L54660 28500
" />
<path d="M55500 25340
L55500 25660
" />
<path d="M55340 25500
L55660 25500
" />
<path d="M55500 28340
L55500 28660
" />
<path d="M55340 28500
L55660 28500
" />
<path d="M56500 25340
L56500 25660
" />
<path d="M56340 25500
L56660 25500
" />
<path d="M56500 28340
L56500 28660
" />
<path d="M56340 28500
L56660 28500
" />
<path d="M57500 25340
L57500 25660
" />
<path d="M57340 25500
L57660 25500
" />
<path d="M57500 28340
L57500 28660
" />
<path d="M57340 28500
L57660 28500
" />
<path d="M58500 25340
L58500 25660
" />
<path d="M58340 25500
L58660 25500
" />
<path d="M58500 28340
L58500 28660
" />
<path d="M58340 28500
L58660 28500
" />
<path d="M59500 25340
L59500 25660
" />
<path d="M59340 25500
L59660 25500
" />
<path d="M59500 28340
L59500 28660
" />
<path d="M59340 28500
L59660 28500
" />
<path d="M60500 25340
L60500 25660
" />
<path d="M60340 25500
L60660 25500
" />
<path d="M60500 28340
L60500 28660
" />
<path d="M60340 28500
L60660 28500
" />
<path d="M61500 25340
L61500 25660
" />
<path d="M61340 25500
L61660 25500
" />
<path d="M61500 28340
L61500 28660
" />
<path d="M61340 28500
L61660 28500
" />
<path d="M63500 27840
L63500 28160
" />
<path d="M63340 28000
L63660 28000
" />
<path d="M64500 27840
L64500 28160
" />
<path d="M64340 28000
L64660 28000
" />
<path d="M66000 27840
L66000 28160
" />
<path d="M65840 28000
L66160 28000
" />
<path d="M66000 31340
L66000 31660
" />
<path d="M65840 31500
L66160 31500
" />
<path d="M66000 32340
L66000 32660
" />
<path d="M65840 32500
L66160 32500
" />
<path d="M66000 33340
L66000 33660
" />
<path d="M65840 33500
L66160 33500
" />
<path d="M66600 35665
L66600 35985
" />
<path d="M66440 35825
L66760 35825
" />
<path d="M66600 36665
L66600 36985
" />
<path d="M66440 36825
L66760 36825
" />
<path d="M67000 27840
L67000 28160
" />
<path d="M66840 28000
L67160 28000
" />
<path d="M67000 31340
L67000 31660
" />
<path d="M66840 31500
L67160 31500
" />
<path d="M67000 32340
L67000 32660
" />
<path d="M66840 32500
L67160 32500
" />
<path d="M67000 33340
L67000 33660
" />
<path d="M66840 33500
L67160 33500
" />
<path d="M69500 34340
L69500 34660
" />
<path d="M69340 34500
L69660 34500
" />
<path d="M69500 35340
L69500 35660
" />
<path d="M69340 35500
L69660 35500
" />
<path d="M69500 36340
L69500 36660
" />
<path d="M69340 36500
L69660 36500
" />
<path d="M80500 45640
L80500 45960
" />
<path d="M80340 45800
L80660 45800
" />
<path d="M80500 48640
L80500 48960
" />
<path d="M80340 48800
L80660 48800
" />
<path d="M82500 45640
L82500 45960
" />
<path d="M82340 45800
L82660 45800
" />
<path d="M82500 48640
L82500 48960
" />
<path d="M82340 48800
L82660 48800
" />
<polyline fill="none;"
points="45576,24826
45576,24547
45297,24547
45297,24826
45576,24826
" /> 
<polyline fill="none;"
points="45576,26952
45576,26673
45297,26673
45297,26952
45576,26952
" /> 
<polyline fill="none;"
points="46639,25889
46639,25610
46360,25610
46360,25889
46639,25889
" /> 
<polyline fill="none;"
points="46639,41139
46639,40860
46360,40860
46360,41139
46639,41139
" /> 
<polyline fill="none;"
points="47702,24826
47702,24547
47423,24547
47423,24826
47702,24826
" /> 
<polyline fill="none;"
points="47702,26952
47702,26673
47423,26673
47423,26952
47702,26952
" /> 
<polyline fill="none;"
points="50639,38639
50639,38360
50360,38360
50360,38639
50639,38639
" /> 
<polyline fill="none;"
points="50639,40639
50639,40360
50360,40360
50360,40639
50639,40639
" /> 
<polyline fill="none;"
points="52639,38639
52639,38360
52360,38360
52360,38639
52639,38639
" /> 
<polyline fill="none;"
points="52639,40639
52639,40360
52360,40360
52360,40639
52639,40639
" /> 
<polyline fill="none;"
points="46500,50950
46700,50750
46500,50550
46300,50750
46500,50950
" /> 
<polyline fill="none;"
points="47500,50950
47700,50750
47500,50550
47300,50750
47500,50950
" /> 
<polyline fill="none;"
points="48400,23700
48600,23500
48400,23300
48200,23500
48400,23700
" /> 
<polyline fill="none;"
points="49250,14450
49450,14250
49250,14050
49050,14250
49250,14450
" /> 
<polyline fill="none;"
points="49400,23700
49600,23500
49400,23300
49200,23500
49400,23700
" /> 
<polyline fill="none;"
points="50250,14450
50450,14250
50250,14050
50050,14250
50250,14450
" /> 
<polyline fill="none;"
points="50400,23700
50600,23500
50400,23300
50200,23500
50400,23700
" /> 
<polyline fill="none;"
points="51000,36700
51200,36500
51000,36300
50800,36500
51000,36700
" /> 
<polyline fill="none;"
points="51400,23700
51600,23500
51400,23300
51200,23500
51400,23700
" /> 
<polyline fill="none;"
points="52000,36700
52200,36500
52000,36300
51800,36500
52000,36700
" /> 
<polyline fill="none;"
points="52000,42700
52200,42500
52000,42300
51800,42500
52000,42700
" /> 
<polyline fill="none;"
points="52000,50950
52200,50750
52000,50550
51800,50750
52000,50950
" /> 
<polyline fill="none;"
points="52400,23700
52600,23500
52400,23300
52200,23500
52400,23700
" /> 
<polyline fill="none;"
points="53000,42700
53200,42500
53000,42300
52800,42500
53000,42700
" /> 
<polyline fill="none;"
points="53000,50950
53200,50750
53000,50550
52800,50750
53000,50950
" /> 
<polyline fill="none;"
points="53400,23700
53600,23500
53400,23300
53200,23500
53400,23700
" /> 
<polyline fill="none;"
points="53500,30700
53700,30500
53500,30300
53300,30500
53500,30700
" /> 
<polyline fill="none;"
points="53500,31700
53700,31500
53500,31300
53300,31500
53500,31700
" /> 
<polyline fill="none;"
points="54000,42700
54200,42500
54000,42300
53800,42500
54000,42700
" /> 
<polyline fill="none;"
points="54400,23700
54600,23500
54400,23300
54200,23500
54400,23700
" /> 
<polyline fill="none;"
points="54500,30700
54700,30500
54500,30300
54300,30500
54500,30700
" /> 
<polyline fill="none;"
points="54500,31700
54700,31500
54500,31300
54300,31500
54500,31700
" /> 
<polyline fill="none;"
points="54750,14450
54950,14250
54750,14050
54550,14250
54750,14450
" /> 
<polyline fill="none;"
points="55000,42700
55200,42500
55000,42300
54800,42500
55000,42700
" /> 
<polyline fill="none;"
points="55400,23700
55600,23500
55400,23300
55200,23500
55400,23700
" /> 
<polyline fill="none;"
points="55500,30700
55700,30500
55500,30300
55300,30500
55500,30700
" /> 
<polyline fill="none;"
points="55500,31700
55700,31500
55500,31300
55300,31500
55500,31700
" /> 
<polyline fill="none;"
points="55750,14450
55950,14250
55750,14050
55550,14250
55750,14450
" /> 
<polyline fill="none;"
points="56000,42700
56200,42500
56000,42300
55800,42500
56000,42700
" /> 
<polyline fill="none;"
points="56400,23700
56600,23500
56400,23300
56200,23500
56400,23700
" /> 
<polyline fill="none;"
points="56500,30700
56700,30500
56500,30300
56300,30500
56500,30700
" /> 
<polyline fill="none;"
points="56500,31700
56700,31500
56500,31300
56300,31500
56500,31700
" /> 
<polyline fill="none;"
points="57000,42700
57200,42500
57000,42300
56800,42500
57000,42700
" /> 
<polyline fill="none;"
points="57400,23700
57600,23500
57400,23300
57200,23500
57400,23700
" /> 
<polyline fill="none;"
points="57500,30700
57700,30500
57500,30300
57300,30500
57500,30700
" /> 
<polyline fill="none;"
points="57500,31700
57700,31500
57500,31300
57300,31500
57500,31700
" /> 
<polyline fill="none;"
points="57500,50950
57700,50750
57500,50550
57300,50750
57500,50950
" /> 
<polyline fill="none;"
points="58000,42700
58200,42500
58000,42300
57800,42500
58000,42700
" /> 
<polyline fill="none;"
points="58500,50950
58700,50750
58500,50550
58300,50750
58500,50950
" /> 
<polyline fill="none;"
points="59000,23700
59200,23500
59000,23300
58800,23500
59000,23700
" /> 
<polyline fill="none;"
points="59000,42700
59200,42500
59000,42300
58800,42500
59000,42700
" /> 
<polyline fill="none;"
points="59500,30700
59700,30500
59500,30300
59300,30500
59500,30700
" /> 
<polyline fill="none;"
points="59500,31700
59700,31500
59500,31300
59300,31500
59500,31700
" /> 
<polyline fill="none;"
points="59500,34200
59700,34000
59500,33800
59300,34000
59500,34200
" /> 
<polyline fill="none;"
points="59500,35200
59700,35000
59500,34800
59300,35000
59500,35200
" /> 
<polyline fill="none;"
points="60000,23700
60200,23500
60000,23300
59800,23500
60000,23700
" /> 
<polyline fill="none;"
points="60250,14450
60450,14250
60250,14050
60050,14250
60250,14450
" /> 
<polyline fill="none;"
points="60500,30700
60700,30500
60500,30300
60300,30500
60500,30700
" /> 
<polyline fill="none;"
points="60500,31700
60700,31500
60500,31300
60300,31500
60500,31700
" /> 
<polyline fill="none;"
points="60500,34200
60700,34000
60500,33800
60300,34000
60500,34200
" /> 
<polyline fill="none;"
points="60500,35200
60700,35000
60500,34800
60300,35000
60500,35200
" /> 
<polyline fill="none;"
points="61000,22300
61200,22100
61000,21900
60800,22100
61000,22300
" /> 
<polyline fill="none;"
points="61000,23700
61200,23500
61000,23300
60800,23500
61000,23700
" /> 
<polyline fill="none;"
points="61000,42700
61200,42500
61000,42300
60800,42500
61000,42700
" /> 
<polyline fill="none;"
points="61250,14450
61450,14250
61250,14050
61050,14250
61250,14450
" /> 
<polyline fill="none;"
points="61500,30700
61700,30500
61500,30300
61300,30500
61500,30700
" /> 
<polyline fill="none;"
points="61500,31700
61700,31500
61500,31300
61300,31500
61500,31700
" /> 
<polyline fill="none;"
points="61500,34200
61700,34000
61500,33800
61300,34000
61500,34200
" /> 
<polyline fill="none;"
points="61500,35200
61700,35000
61500,34800
61300,35000
61500,35200
" /> 
<polyline fill="none;"
points="62000,22300
62200,22100
62000,21900
61800,22100
62000,22300
" /> 
<polyline fill="none;"
points="62000,23700
62200,23500
62000,23300
61800,23500
62000,23700
" /> 
<polyline fill="none;"
points="62000,42700
62200,42500
62000,42300
61800,42500
62000,42700
" /> 
<polyline fill="none;"
points="62500,30700
62700,30500
62500,30300
62300,30500
62500,30700
" /> 
<polyline fill="none;"
points="62500,31700
62700,31500
62500,31300
62300,31500
62500,31700
" /> 
<polyline fill="none;"
points="62500,34200
62700,34000
62500,33800
62300,34000
62500,34200
" /> 
<polyline fill="none;"
points="62500,35200
62700,35000
62500,34800
62300,35000
62500,35200
" /> 
<polyline fill="none;"
points="63000,22300
63200,22100
63000,21900
62800,22100
63000,22300
" /> 
<polyline fill="none;"
points="63000,23700
63200,23500
63000,23300
62800,23500
63000,23700
" /> 
<polyline fill="none;"
points="63000,42700
63200,42500
63000,42300
62800,42500
63000,42700
" /> 
<polyline fill="none;"
points="63000,50950
63200,50750
63000,50550
62800,50750
63000,50950
" /> 
<polyline fill="none;"
points="63500,30700
63700,30500
63500,30300
63300,30500
63500,30700
" /> 
<polyline fill="none;"
points="63500,31700
63700,31500
63500,31300
63300,31500
63500,31700
" /> 
<polyline fill="none;"
points="63500,34200
63700,34000
63500,33800
63300,34000
63500,34200
" /> 
<polyline fill="none;"
points="63500,35200
63700,35000
63500,34800
63300,35000
63500,35200
" /> 
<polyline fill="none;"
points="64000,22300
64200,22100
64000,21900
63800,22100
64000,22300
" /> 
<polyline fill="none;"
points="64000,23700
64200,23500
64000,23300
63800,23500
64000,23700
" /> 
<polyline fill="none;"
points="64000,42700
64200,42500
64000,42300
63800,42500
64000,42700
" /> 
<polyline fill="none;"
points="64000,50950
64200,50750
64000,50550
63800,50750
64000,50950
" /> 
<polyline fill="none;"
points="64500,30700
64700,30500
64500,30300
64300,30500
64500,30700
" /> 
<polyline fill="none;"
points="64500,31700
64700,31500
64500,31300
64300,31500
64500,31700
" /> 
<polyline fill="none;"
points="64500,34200
64700,34000
64500,33800
64300,34000
64500,34200
" /> 
<polyline fill="none;"
points="64500,35200
64700,35000
64500,34800
64300,35000
64500,35200
" /> 
<polyline fill="none;"
points="65000,22300
65200,22100
65000,21900
64800,22100
65000,22300
" /> 
<polyline fill="none;"
points="65000,23700
65200,23500
65000,23300
64800,23500
65000,23700
" /> 
<polyline fill="none;"
points="65000,42700
65200,42500
65000,42300
64800,42500
65000,42700
" /> 
<polyline fill="none;"
points="65750,14450
65950,14250
65750,14050
65550,14250
65750,14450
" /> 
<polyline fill="none;"
points="66000,22300
66200,22100
66000,21900
65800,22100
66000,22300
" /> 
<polyline fill="none;"
points="66000,23700
66200,23500
66000,23300
65800,23500
66000,23700
" /> 
<polyline fill="none;"
points="66000,42700
66200,42500
66000,42300
65800,42500
66000,42700
" /> 
<polyline fill="none;"
points="66750,14450
66950,14250
66750,14050
66550,14250
66750,14450
" /> 
<polyline fill="none;"
points="67000,22300
67200,22100
67000,21900
66800,22100
67000,22300
" /> 
<polyline fill="none;"
points="67000,42700
67200,42500
67000,42300
66800,42500
67000,42700
" /> 
<polyline fill="none;"
points="68000,22300
68200,22100
68000,21900
67800,22100
68000,22300
" /> 
<polyline fill="none;"
points="68000,23700
68200,23500
68000,23300
67800,23500
68000,23700
" /> 
<polyline fill="none;"
points="68000,42700
68200,42500
68000,42300
67800,42500
68000,42700
" /> 
<polyline fill="none;"
points="68300,41400
68500,41200
68300,41000
68100,41200
68300,41400
" /> 
<polyline fill="none;"
points="68500,25700
68700,25500
68500,25300
68300,25500
68500,25700
" /> 
<polyline fill="none;"
points="68500,26700
68700,26500
68500,26300
68300,26500
68500,26700
" /> 
<polyline fill="none;"
points="68500,29200
68700,29000
68500,28800
68300,29000
68500,29200
" /> 
<polyline fill="none;"
points="68500,30200
68700,30000
68500,29800
68300,30000
68500,30200
" /> 
<polyline fill="none;"
points="68500,50950
68700,50750
68500,50550
68300,50750
68500,50950
" /> 
<polyline fill="none;"
points="69000,23700
69200,23500
69000,23300
68800,23500
69000,23700
" /> 
<polyline fill="none;"
points="69300,41400
69500,41200
69300,41000
69100,41200
69300,41400
" /> 
<polyline fill="none;"
points="69500,25700
69700,25500
69500,25300
69300,25500
69500,25700
" /> 
<polyline fill="none;"
points="69500,26700
69700,26500
69500,26300
69300,26500
69500,26700
" /> 
<polyline fill="none;"
points="69500,29200
69700,29000
69500,28800
69300,29000
69500,29200
" /> 
<polyline fill="none;"
points="69500,30200
69700,30000
69500,29800
69300,30000
69500,30200
" /> 
<polyline fill="none;"
points="69500,50950
69700,50750
69500,50550
69300,50750
69500,50950
" /> 
<polyline fill="none;"
points="70000,23700
70200,23500
70000,23300
69800,23500
70000,23700
" /> 
<polyline fill="none;"
points="70000,42700
70200,42500
70000,42300
69800,42500
70000,42700
" /> 
<polyline fill="none;"
points="70300,41400
70500,41200
70300,41000
70100,41200
70300,41400
" /> 
<polyline fill="none;"
points="70500,25700
70700,25500
70500,25300
70300,25500
70500,25700
" /> 
<polyline fill="none;"
points="70500,26700
70700,26500
70500,26300
70300,26500
70500,26700
" /> 
<polyline fill="none;"
points="70500,29200
70700,29000
70500,28800
70300,29000
70500,29200
" /> 
<polyline fill="none;"
points="70500,30200
70700,30000
70500,29800
70300,30000
70500,30200
" /> 
<polyline fill="none;"
points="71000,23700
71200,23500
71000,23300
70800,23500
71000,23700
" /> 
<polyline fill="none;"
points="71000,42700
71200,42500
71000,42300
70800,42500
71000,42700
" /> 
<polyline fill="none;"
points="71250,14450
71450,14250
71250,14050
71050,14250
71250,14450
" /> 
<polyline fill="none;"
points="71300,41400
71500,41200
71300,41000
71100,41200
71300,41400
" /> 
<polyline fill="none;"
points="71500,25700
71700,25500
71500,25300
71300,25500
71500,25700
" /> 
<polyline fill="none;"
points="71500,26700
71700,26500
71500,26300
71300,26500
71500,26700
" /> 
<polyline fill="none;"
points="71500,29200
71700,29000
71500,28800
71300,29000
71500,29200
" /> 
<polyline fill="none;"
points="71500,30200
71700,30000
71500,29800
71300,30000
71500,30200
" /> 
<polyline fill="none;"
points="72000,23700
72200,23500
72000,23300
71800,23500
72000,23700
" /> 
<polyline fill="none;"
points="72000,42700
72200,42500
72000,42300
71800,42500
72000,42700
" /> 
<polyline fill="none;"
points="72250,14450
72450,14250
72250,14050
72050,14250
72250,14450
" /> 
<polyline fill="none;"
points="72300,41400
72500,41200
72300,41000
72100,41200
72300,41400
" /> 
<polyline fill="none;"
points="72500,25700
72700,25500
72500,25300
72300,25500
72500,25700
" /> 
<polyline fill="none;"
points="72500,26700
72700,26500
72500,26300
72300,26500
72500,26700
" /> 
<polyline fill="none;"
points="72500,29200
72700,29000
72500,28800
72300,29000
72500,29200
" /> 
<polyline fill="none;"
points="72500,30200
72700,30000
72500,29800
72300,30000
72500,30200
" /> 
<polyline fill="none;"
points="73000,23700
73200,23500
73000,23300
72800,23500
73000,23700
" /> 
<polyline fill="none;"
points="73000,32200
73200,32000
73000,31800
72800,32000
73000,32200
" /> 
<polyline fill="none;"
points="73000,33200
73200,33000
73000,32800
72800,33000
73000,33200
" /> 
<polyline fill="none;"
points="73000,34200
73200,34000
73000,33800
72800,34000
73000,34200
" /> 
<polyline fill="none;"
points="73000,35200
73200,35000
73000,34800
72800,35000
73000,35200
" /> 
<polyline fill="none;"
points="73000,36200
73200,36000
73000,35800
72800,36000
73000,36200
" /> 
<polyline fill="none;"
points="73000,37200
73200,37000
73000,36800
72800,37000
73000,37200
" /> 
<polyline fill="none;"
points="73000,42700
73200,42500
73000,42300
72800,42500
73000,42700
" /> 
<polyline fill="none;"
points="73300,41400
73500,41200
73300,41000
73100,41200
73300,41400
" /> 
<polyline fill="none;"
points="73500,22200
73700,22000
73500,21800
73300,22000
73500,22200
" /> 
<polyline fill="none;"
points="73500,25700
73700,25500
73500,25300
73300,25500
73500,25700
" /> 
<polyline fill="none;"
points="73500,26700
73700,26500
73500,26300
73300,26500
73500,26700
" /> 
<polyline fill="none;"
points="73500,29200
73700,29000
73500,28800
73300,29000
73500,29200
" /> 
<polyline fill="none;"
points="73500,30200
73700,30000
73500,29800
73300,30000
73500,30200
" /> 
<polyline fill="none;"
points="74000,23700
74200,23500
74000,23300
73800,23500
74000,23700
" /> 
<polyline fill="none;"
points="74000,32200
74200,32000
74000,31800
73800,32000
74000,32200
" /> 
<polyline fill="none;"
points="74000,33200
74200,33000
74000,32800
73800,33000
74000,33200
" /> 
<polyline fill="none;"
points="74000,34200
74200,34000
74000,33800
73800,34000
74000,34200
" /> 
<polyline fill="none;"
points="74000,35200
74200,35000
74000,34800
73800,35000
74000,35200
" /> 
<polyline fill="none;"
points="74000,36200
74200,36000
74000,35800
73800,36000
74000,36200
" /> 
<polyline fill="none;"
points="74000,37200
74200,37000
74000,36800
73800,37000
74000,37200
" /> 
<polyline fill="none;"
points="74000,42700
74200,42500
74000,42300
73800,42500
74000,42700
" /> 
<polyline fill="none;"
points="74000,50950
74200,50750
74000,50550
73800,50750
74000,50950
" /> 
<polyline fill="none;"
points="74300,41400
74500,41200
74300,41000
74100,41200
74300,41400
" /> 
<polyline fill="none;"
points="74500,22200
74700,22000
74500,21800
74300,22000
74500,22200
" /> 
<polyline fill="none;"
points="75000,23700
75200,23500
75000,23300
74800,23500
75000,23700
" /> 
<polyline fill="none;"
points="75000,42700
75200,42500
75000,42300
74800,42500
75000,42700
" /> 
<polyline fill="none;"
points="75000,50950
75200,50750
75000,50550
74800,50750
75000,50950
" /> 
<polyline fill="none;"
points="75300,41400
75500,41200
75300,41000
75100,41200
75300,41400
" /> 
<polyline fill="none;"
points="75500,22200
75700,22000
75500,21800
75300,22000
75500,22200
" /> 
<polyline fill="none;"
points="75500,26700
75700,26500
75500,26300
75300,26500
75500,26700
" /> 
<polyline fill="none;"
points="75500,27700
75700,27500
75500,27300
75300,27500
75500,27700
" /> 
<polyline fill="none;"
points="75500,28700
75700,28500
75500,28300
75300,28500
75500,28700
" /> 
<polyline fill="none;"
points="75500,29700
75700,29500
75500,29300
75300,29500
75500,29700
" /> 
<polyline fill="none;"
points="76000,42700
76200,42500
76000,42300
75800,42500
76000,42700
" /> 
<polyline fill="none;"
points="76500,22200
76700,22000
76500,21800
76300,22000
76500,22200
" /> 
<polyline fill="none;"
points="76500,26700
76700,26500
76500,26300
76300,26500
76500,26700
" /> 
<polyline fill="none;"
points="76500,27700
76700,27500
76500,27300
76300,27500
76500,27700
" /> 
<polyline fill="none;"
points="76500,28700
76700,28500
76500,28300
76300,28500
76500,28700
" /> 
<polyline fill="none;"
points="76500,29700
76700,29500
76500,29300
76300,29500
76500,29700
" /> 
<polyline fill="none;"
points="76750,14450
76950,14250
76750,14050
76550,14250
76750,14450
" /> 
<polyline fill="none;"
points="77000,42700
77200,42500
77000,42300
76800,42500
77000,42700
" /> 
<polyline fill="none;"
points="77750,14450
77950,14250
77750,14050
77550,14250
77750,14450
" /> 
<polyline fill="none;"
points="78000,23700
78200,23500
78000,23300
77800,23500
78000,23700
" /> 
<polyline fill="none;"
points="78000,24700
78200,24500
78000,24300
77800,24500
78000,24700
" /> 
<polyline fill="none;"
points="78000,25700
78200,25500
78000,25300
77800,25500
78000,25700
" /> 
<polyline fill="none;"
points="78000,26700
78200,26500
78000,26300
77800,26500
78000,26700
" /> 
<polyline fill="none;"
points="78000,27700
78200,27500
78000,27300
77800,27500
78000,27700
" /> 
<polyline fill="none;"
points="78000,28700
78200,28500
78000,28300
77800,28500
78000,28700
" /> 
<polyline fill="none;"
points="78000,29700
78200,29500
78000,29300
77800,29500
78000,29700
" /> 
<polyline fill="none;"
points="78000,30700
78200,30500
78000,30300
77800,30500
78000,30700
" /> 
<polyline fill="none;"
points="78000,31700
78200,31500
78000,31300
77800,31500
78000,31700
" /> 
<polyline fill="none;"
points="78000,32700
78200,32500
78000,32300
77800,32500
78000,32700
" /> 
<polyline fill="none;"
points="78000,33700
78200,33500
78000,33300
77800,33500
78000,33700
" /> 
<polyline fill="none;"
points="78000,34700
78200,34500
78000,34300
77800,34500
78000,34700
" /> 
<polyline fill="none;"
points="78000,35700
78200,35500
78000,35300
77800,35500
78000,35700
" /> 
<polyline fill="none;"
points="78000,36700
78200,36500
78000,36300
77800,36500
78000,36700
" /> 
<polyline fill="none;"
points="78000,37700
78200,37500
78000,37300
77800,37500
78000,37700
" /> 
<polyline fill="none;"
points="78000,38700
78200,38500
78000,38300
77800,38500
78000,38700
" /> 
<polyline fill="none;"
points="78000,39700
78200,39500
78000,39300
77800,39500
78000,39700
" /> 
<polyline fill="none;"
points="78000,40700
78200,40500
78000,40300
77800,40500
78000,40700
" /> 
<polyline fill="none;"
points="79000,23700
79200,23500
79000,23300
78800,23500
79000,23700
" /> 
<polyline fill="none;"
points="79000,24700
79200,24500
79000,24300
78800,24500
79000,24700
" /> 
<polyline fill="none;"
points="79000,25700
79200,25500
79000,25300
78800,25500
79000,25700
" /> 
<polyline fill="none;"
points="79000,26700
79200,26500
79000,26300
78800,26500
79000,26700
" /> 
<polyline fill="none;"
points="79000,27700
79200,27500
79000,27300
78800,27500
79000,27700
" /> 
<polyline fill="none;"
points="79000,28700
79200,28500
79000,28300
78800,28500
79000,28700
" /> 
<polyline fill="none;"
points="79000,29700
79200,29500
79000,29300
78800,29500
79000,29700
" /> 
<polyline fill="none;"
points="79000,30700
79200,30500
79000,30300
78800,30500
79000,30700
" /> 
<polyline fill="none;"
points="79000,31700
79200,31500
79000,31300
78800,31500
79000,31700
" /> 
<polyline fill="none;"
points="79000,32700
79200,32500
79000,32300
78800,32500
79000,32700
" /> 
<polyline fill="none;"
points="79000,33700
79200,33500
79000,33300
78800,33500
79000,33700
" /> 
<polyline fill="none;"
points="79000,34700
79200,34500
79000,34300
78800,34500
79000,34700
" /> 
<polyline fill="none;"
points="79000,35700
79200,35500
79000,35300
78800,35500
79000,35700
" /> 
<polyline fill="none;"
points="79000,36700
79200,36500
79000,36300
78800,36500
79000,36700
" /> 
<polyline fill="none;"
points="79000,37700
79200,37500
79000,37300
78800,37500
79000,37700
" /> 
<polyline fill="none;"
points="79000,38700
79200,38500
79000,38300
78800,38500
79000,38700
" /> 
<polyline fill="none;"
points="79000,39700
79200,39500
79000,39300
78800,39500
79000,39700
" /> 
<polyline fill="none;"
points="79000,40700
79200,40500
79000,40300
78800,40500
79000,40700
" /> 
<polyline fill="none;"
points="80000,14950
80200,14750
80000,14550
79800,14750
80000,14950
" /> 
<polyline fill="none;"
points="80000,20450
80200,20250
80000,20050
79800,20250
80000,20450
" /> 
<polyline fill="none;"
points="80750,26950
80950,26750
80750,26550
80550,26750
80750,26950
" /> 
<polyline fill="none;"
points="80750,27950
80950,27750
80750,27550
80550,27750
80750,27950
" /> 
<polyline fill="none;"
points="80750,28950
80950,28750
80750,28550
80550,28750
80750,28950
" /> 
<polyline fill="none;"
points="81000,14950
81200,14750
81000,14550
80800,14750
81000,14950
" /> 
<polyline fill="none;"
points="81000,20450
81200,20250
81000,20050
80800,20250
81000,20450
" /> 
<polyline fill="none;"
points="81250,31450
81450,31250
81250,31050
81050,31250
81250,31450
" /> 
<polyline fill="none;"
points="81250,32450
81450,32250
81250,32050
81050,32250
81250,32450
" /> 
<polyline fill="none;"
points="82000,14950
82200,14750
82000,14550
81800,14750
82000,14950
" /> 
<polyline fill="none;"
points="82000,20450
82200,20250
82000,20050
81800,20250
82000,20450
" /> 
<polyline fill="none;"
points="82750,26950
82950,26750
82750,26550
82550,26750
82750,26950
" /> 
<polyline fill="none;"
points="82750,27950
82950,27750
82750,27550
82550,27750
82750,27950
" /> 
<polyline fill="none;"
points="82750,28950
82950,28750
82750,28550
82550,28750
82750,28950
" /> 
<polyline fill="none;"
points="82750,31450
82950,31250
82750,31050
82550,31250
82750,31450
" /> 
<polyline fill="none;"
points="82750,32450
82950,32250
82750,32050
82550,32250
82750,32450
" /> 
<polyline fill="none;"
points="82750,33450
82950,33250
82750,33050
82550,33250
82750,33450
" /> 
<polyline fill="none;"
points="82750,34450
82950,34250
82750,34050
82550,34250
82750,34450
" /> 
<polyline fill="none;"
points="82750,35450
82950,35250
82750,35050
82550,35250
82750,35450
" /> 
<polyline fill="none;"
points="82750,37950
82950,37750
82750,37550
82550,37750
82750,37950
" /> 
<polyline fill="none;"
points="82750,38950
82950,38750
82750,38550
82550,38750
82750,38950
" /> 
<polyline fill="none;"
points="82750,39950
82950,39750
82750,39550
82550,39750
82750,39950
" /> 
<polyline fill="none;"
points="82750,40950
82950,40750
82750,40550
82550,40750
82750,40950
" /> 
<path d="M46071 16239
L46504 16672
" />
<path d="M46504 16239
L46071 16672
" />
<circle cx="46288" cy="16456" r="216.5" /> 
<path d="M46071 18795
L46504 19228
" />
<path d="M46504 18795
L46071 19228
" />
<circle cx="46288" cy="19012" r="216.5" /> 
<path d="M46379 47767
L46812 48200
" />
<path d="M46812 47767
L46379 48200
" />
<circle cx="46596" cy="47984" r="216.5" /> 
<path d="M47338 48086
L47771 48519
" />
<path d="M47771 48086
L47338 48519
" />
<circle cx="47555" cy="48303" r="216.5" /> 
<path d="M48045 14031
L48478 14464
" />
<path d="M48478 14031
L48045 14464
" />
<circle cx="48262" cy="14248" r="216.5" /> 
<path d="M48271 50535
L48704 50968
" />
<path d="M48704 50535
L48271 50968
" />
<circle cx="48488" cy="50752" r="216.5" /> 
<path d="M48978 16480
L49411 16913
" />
<path d="M49411 16480
L48978 16913
" />
<circle cx="49195" cy="16697" r="216.5" /> 
<path d="M49937 16799
L50370 17232
" />
<path d="M50370 16799
L49937 17232
" />
<circle cx="50154" cy="17016" r="216.5" /> 
<path d="M50245 45771
L50678 46204
" />
<path d="M50678 45771
L50245 46204
" />
<circle cx="50462" cy="45988" r="216.5" /> 
<path d="M50245 48327
L50678 48760
" />
<path d="M50678 48327
L50245 48760
" />
<circle cx="50462" cy="48544" r="216.5" /> 
<path d="M51571 16239
L52004 16672
" />
<path d="M52004 16239
L51571 16672
" />
<circle cx="51788" cy="16456" r="216.5" /> 
<path d="M51571 18795
L52004 19228
" />
<path d="M52004 18795
L51571 19228
" />
<circle cx="51788" cy="19012" r="216.5" /> 
<path d="M51879 47767
L52312 48200
" />
<path d="M52312 47767
L51879 48200
" />
<circle cx="52096" cy="47984" r="216.5" /> 
<path d="M52838 48086
L53271 48519
" />
<path d="M53271 48086
L52838 48519
" />
<circle cx="53055" cy="48303" r="216.5" /> 
<path d="M53545 14031
L53978 14464
" />
<path d="M53978 14031
L53545 14464
" />
<circle cx="53762" cy="14248" r="216.5" /> 
<path d="M53771 50535
L54204 50968
" />
<path d="M54204 50535
L53771 50968
" />
<circle cx="53988" cy="50752" r="216.5" /> 
<path d="M54478 16480
L54911 16913
" />
<path d="M54911 16480
L54478 16913
" />
<circle cx="54695" cy="16697" r="216.5" /> 
<path d="M55437 16799
L55870 17232
" />
<path d="M55870 16799
L55437 17232
" />
<circle cx="55654" cy="17016" r="216.5" /> 
<path d="M55745 45771
L56178 46204
" />
<path d="M56178 45771
L55745 46204
" />
<circle cx="55962" cy="45988" r="216.5" /> 
<path d="M55745 48327
L56178 48760
" />
<path d="M56178 48327
L55745 48760
" />
<circle cx="55962" cy="48544" r="216.5" /> 
<path d="M57071 16239
L57504 16672
" />
<path d="M57504 16239
L57071 16672
" />
<circle cx="57288" cy="16456" r="216.5" /> 
<path d="M57071 18795
L57504 19228
" />
<path d="M57504 18795
L57071 19228
" />
<circle cx="57288" cy="19012" r="216.5" /> 
<path d="M57379 47767
L57812 48200
" />
<path d="M57812 47767
L57379 48200
" />
<circle cx="57596" cy="47984" r="216.5" /> 
<path d="M58338 48086
L58771 48519
" />
<path d="M58771 48086
L58338 48519
" />
<circle cx="58555" cy="48303" r="216.5" /> 
<path d="M59045 14031
L59478 14464
" />
<path d="M59478 14031
L59045 14464
" />
<circle cx="59262" cy="14248" r="216.5" /> 
<path d="M59271 50535
L59704 50968
" />
<path d="M59704 50535
L59271 50968
" />
<circle cx="59488" cy="50752" r="216.5" /> 
<path d="M59978 16480
L60411 16913
" />
<path d="M60411 16480
L59978 16913
" />
<circle cx="60195" cy="16697" r="216.5" /> 
<path d="M60937 16799
L61370 17232
" />
<path d="M61370 16799
L60937 17232
" />
<circle cx="61154" cy="17016" r="216.5" /> 
<path d="M61245 45771
L61678 46204
" />
<path d="M61678 45771
L61245 46204
" />
<circle cx="61462" cy="45988" r="216.5" /> 
<path d="M61245 48327
L61678 48760
" />
<path d="M61678 48327
L61245 48760
" />
<circle cx="61462" cy="48544" r="216.5" /> 
<path d="M62571 16239
L63004 16672
" />
<path d="M63004 16239
L62571 16672
" />
<circle cx="62788" cy="16456" r="216.5" /> 
<path d="M62571 18795
L63004 19228
" />
<path d="M63004 18795
L62571 19228
" />
<circle cx="62788" cy="19012" r="216.5" /> 
<path d="M62879 47767
L63312 48200
" />
<path d="M63312 47767
L62879 48200
" />
<circle cx="63096" cy="47984" r="216.5" /> 
<path d="M63838 48086
L64271 48519
" />
<path d="M64271 48086
L63838 48519
" />
<circle cx="64055" cy="48303" r="216.5" /> 
<path d="M64545 14031
L64978 14464
" />
<path d="M64978 14031
L64545 14464
" />
<circle cx="64762" cy="14248" r="216.5" /> 
<path d="M64771 50535
L65204 50968
" />
<path d="M65204 50535
L64771 50968
" />
<circle cx="64988" cy="50752" r="216.5" /> 
<path d="M65478 16480
L65911 16913
" />
<path d="M65911 16480
L65478 16913
" />
<circle cx="65695" cy="16697" r="216.5" /> 
<path d="M66437 16799
L66870 17232
" />
<path d="M66870 16799
L66437 17232
" />
<circle cx="66654" cy="17016" r="216.5" /> 
<path d="M66745 45771
L67178 46204
" />
<path d="M67178 45771
L66745 46204
" />
<circle cx="66962" cy="45988" r="216.5" /> 
<path d="M66745 48327
L67178 48760
" />
<path d="M67178 48327
L66745 48760
" />
<circle cx="66962" cy="48544" r="216.5" /> 
<path d="M68071 16239
L68504 16672
" />
<path d="M68504 16239
L68071 16672
" />
<circle cx="68288" cy="16456" r="216.5" /> 
<path d="M68071 18795
L68504 19228
" />
<path d="M68504 18795
L68071 19228
" />
<circle cx="68288" cy="19012" r="216.5" /> 
<path d="M68379 47767
L68812 48200
" />
<path d="M68812 47767
L68379 48200
" />
<circle cx="68596" cy="47984" r="216.5" /> 
<path d="M69338 48086
L69771 48519
" />
<path d="M69771 48086
L69338 48519
" />
<circle cx="69555" cy="48303" r="216.5" /> 
<path d="M70045 14031
L70478 14464
" />
<path d="M70478 14031
L70045 14464
" />
<circle cx="70262" cy="14248" r="216.5" /> 
<path d="M70271 50535
L70704 50968
" />
<path d="M70704 50535
L70271 50968
" />
<circle cx="70488" cy="50752" r="216.5" /> 
<path d="M70978 16480
L71411 16913
" />
<path d="M71411 16480
L70978 16913
" />
<circle cx="71195" cy="16697" r="216.5" /> 
<path d="M71937 16799
L72370 17232
" />
<path d="M72370 16799
L71937 17232
" />
<circle cx="72154" cy="17016" r="216.5" /> 
<path d="M72245 45771
L72678 46204
" />
<path d="M72678 45771
L72245 46204
" />
<circle cx="72462" cy="45988" r="216.5" /> 
<path d="M72245 48327
L72678 48760
" />
<path d="M72678 48327
L72245 48760
" />
<circle cx="72462" cy="48544" r="216.5" /> 
<path d="M73571 16239
L74004 16672
" />
<path d="M74004 16239
L73571 16672
" />
<circle cx="73788" cy="16456" r="216.5" /> 
<path d="M73571 18795
L74004 19228
" />
<path d="M74004 18795
L73571 19228
" />
<circle cx="73788" cy="19012" r="216.5" /> 
<path d="M73879 47767
L74312 48200
" />
<path d="M74312 47767
L73879 48200
" />
<circle cx="74096" cy="47984" r="216.5" /> 
<path d="M74838 48086
L75271 48519
" />
<path d="M75271 48086
L74838 48519
" />
<circle cx="75055" cy="48303" r="216.5" /> 
<path d="M75545 14031
L75978 14464
" />
<path d="M75978 14031
L75545 14464
" />
<circle cx="75762" cy="14248" r="216.5" /> 
<path d="M75771 50535
L76204 50968
" />
<path d="M76204 50535
L75771 50968
" />
<circle cx="75988" cy="50752" r="216.5" /> 
<path d="M76478 16480
L76911 16913
" />
<path d="M76911 16480
L76478 16913
" />
<circle cx="76695" cy="16697" r="216.5" /> 
<path d="M77437 16799
L77870 17232
" />
<path d="M77870 16799
L77437 17232
" />
<circle cx="77654" cy="17016" r="216.5" /> 
<path d="M77745 45771
L78178 46204
" />
<path d="M78178 45771
L77745 46204
" />
<circle cx="77962" cy="45988" r="216.5" /> 
<path d="M77745 48327
L78178 48760
" />
<path d="M78178 48327
L77745 48760
" />
<circle cx="77962" cy="48544" r="216.5" /> 
<path d="M56089 37039
L56561 37511
" />
<path d="M56561 37039
L56089 37511
" />
<path d="M56325 37039
L56325 37511
" />
<path d="M56089 37275
L56561 37275
" />
<path d="M56089 40039
L56561 40511
" />
<path d="M56561 40039
L56089 40511
" />
<path d="M56325 40039
L56325 40511
" />
<path d="M56089 40275
L56561 40275
" />
<path d="M46250 36750
L46750 37250
" />
<path d="M46750 36750
L46250 37250
" />
<polyline fill="none;"
points="46676,37176
46676,36823
46323,36823
46323,37176
46676,37176
" /> 
</g>
<g style="fill:#000000; fill-opacity:0.0; 
stroke:#000000; stroke-width:118.11; stroke-opacity:1; 
stroke-linecap:round; stroke-linejoin:round;">
<path d="M46039 53863
L46039 52681
L46320 52681
L46489 52738
L46601 52850
L46657 52963
L46714 53188
L46714 53356
L46657 53581
L46601 53694
L46489 53806
L46320 53863
L46039 53863
" />
<path d="M47220 53863
L47220 53075
" />
<path d="M47220 53300
L47276 53188
L47332 53131
L47445 53075
L47557 53075
" />
<path d="M47951 53863
L47951 53075
" />
<path d="M47951 52681
L47895 52738
L47951 52794
L48007 52738
L47951 52681
L47951 52794
" />
<path d="M48682 53863
L48570 53806
L48513 53694
L48513 52681
" />
<path d="M49301 53863
L49188 53806
L49132 53694
L49132 52681
" />
<path d="M50651 53863
L50651 52681
L51044 53525
L51438 52681
L51438 53863
" />
<path d="M52507 53863
L52507 53244
L52450 53131
L52338 53075
L52113 53075
L52000 53131
" />
<path d="M52507 53806
L52394 53863
L52113 53863
L52000 53806
L51944 53694
L51944 53581
L52000 53469
L52113 53413
L52394 53413
L52507 53356
" />
<path d="M53069 53075
L53069 54256
" />
<path d="M53069 53131
L53181 53075
L53406 53075
L53519 53131
L53575 53188
L53631 53300
L53631 53638
L53575 53750
L53519 53806
L53406 53863
L53181 53863
L53069 53806
" />
<path d="M54138 53750
L54194 53806
L54138 53863
L54081 53806
L54138 53750
L54138 53863
" />
<path d="M54138 53131
L54194 53188
L54138 53244
L54081 53188
L54138 53131
L54138 53244
" />
<path d="M44720 55684
L44970 55934
" />
<path d="M44970 55684
L44720 55934
" />
<path d="M46264 55162
L46376 55162
L46489 55218
L46545 55274
L46601 55387
L46657 55612
L46657 55893
L46601 56118
L46545 56230
L46489 56287
L46376 56343
L46264 56343
L46151 56287
L46095 56230
L46039 56118
L45982 55893
L45982 55612
L46039 55387
L46095 55274
L46151 55218
L46264 55162
" />
<path d="M47163 56230
L47220 56287
L47163 56343
L47107 56287
L47163 56230
L47163 56343
" />
<path d="M48232 55162
L48007 55162
L47895 55218
L47838 55274
L47726 55443
L47670 55668
L47670 56118
L47726 56230
L47782 56287
L47895 56343
L48120 56343
L48232 56287
L48288 56230
L48345 56118
L48345 55837
L48288 55724
L48232 55668
L48120 55612
L47895 55612
L47782 55668
L47726 55724
L47670 55837
" />
<path d="M49357 55555
L49357 56343
" />
<path d="M49076 55106
L48794 55949
L49526 55949
" />
<path d="M49976 56343
L49976 55555
" />
<path d="M49976 55668
L50032 55612
L50144 55555
L50313 55555
L50426 55612
L50482 55724
L50482 56343
" />
<path d="M50482 55724
L50538 55612
L50651 55555
L50819 55555
L50932 55612
L50988 55724
L50988 56343
" />
<path d="M51550 56343
L51550 55555
" />
<path d="M51550 55668
L51607 55612
L51719 55555
L51888 55555
L52000 55612
L52057 55724
L52057 56343
" />
<path d="M52057 55724
L52113 55612
L52225 55555
L52394 55555
L52507 55612
L52563 55724
L52563 56343
" />
<path d="M54869 55106
L53856 56624
" />
<path d="M56387 55162
L56500 55162
L56612 55218
L56669 55274
L56725 55387
L56781 55612
L56781 55893
L56725 56118
L56669 56230
L56612 56287
L56500 56343
L56387 56343
L56275 56287
L56219 56230
L56162 56118
L56106 55893
L56106 55612
L56162 55387
L56219 55274
L56275 55218
L56387 55162
" />
<path d="M57287 56230
L57343 56287
L57287 56343
L57231 56287
L57287 56230
L57287 56343
" />
<path d="M58075 55162
L58187 55162
L58300 55218
L58356 55274
L58412 55387
L58468 55612
L58468 55893
L58412 56118
L58356 56230
L58300 56287
L58187 56343
L58075 56343
L57962 56287
L57906 56230
L57850 56118
L57793 55893
L57793 55612
L57850 55387
L57906 55274
L57962 55218
L58075 55162
" />
<path d="M58918 55274
L58974 55218
L59087 55162
L59368 55162
L59481 55218
L59537 55274
L59593 55387
L59593 55499
L59537 55668
L58862 56343
L59593 56343
" />
<path d="M60662 55162
L60099 55162
L60043 55724
L60099 55668
L60212 55612
L60493 55612
L60606 55668
L60662 55724
L60718 55837
L60718 56118
L60662 56230
L60606 56287
L60493 56343
L60212 56343
L60099 56287
L60043 56230
" />
<path d="M61168 55162
L61168 55387
" />
<path d="M61618 55162
L61618 55387
" />
<path d="M63361 56793
L63305 56737
L63193 56568
L63136 56455
L63080 56287
L63024 56005
L63024 55780
L63080 55499
L63136 55330
L63193 55218
L63305 55049
L63361 54993
" />
<path d="M63699 55162
L64486 55162
L63980 56343
" />
<path d="M64992 56343
L65217 56343
L65330 56287
L65386 56230
L65499 56062
L65555 55837
L65555 55387
L65499 55274
L65442 55218
L65330 55162
L65105 55162
L64992 55218
L64936 55274
L64880 55387
L64880 55668
L64936 55780
L64992 55837
L65105 55893
L65330 55893
L65442 55837
L65499 55780
L65555 55668
" />
<path d="M66961 56343
L66961 55162
" />
<path d="M67467 56343
L67467 55724
L67411 55612
L67298 55555
L67130 55555
L67017 55612
L66961 55668
" />
<path d="M68198 56343
L68086 56287
L68030 56230
L67973 56118
L67973 55780
L68030 55668
L68086 55612
L68198 55555
L68367 55555
L68480 55612
L68536 55668
L68592 55780
L68592 56118
L68536 56230
L68480 56287
L68367 56343
L68198 56343
" />
<path d="M69267 56343
L69154 56287
L69098 56174
L69098 55162
" />
<path d="M70167 56287
L70054 56343
L69829 56343
L69717 56287
L69661 56174
L69661 55724
L69717 55612
L69829 55555
L70054 55555
L70167 55612
L70223 55724
L70223 55837
L69661 55949
" />
<path d="M70673 56287
L70785 56343
L71010 56343
L71123 56287
L71179 56174
L71179 56118
L71123 56005
L71010 55949
L70842 55949
L70729 55893
L70673 55780
L70673 55724
L70729 55612
L70842 55555
L71010 55555
L71123 55612
" />
<path d="M71573 56793
L71629 56737
L71742 56568
L71798 56455
L71854 56287
L71910 56005
L71910 55780
L71854 55499
L71798 55330
L71742 55218
L71629 55049
L71573 54993
" />
<circle cx="44813" cy="57368.1" r="157.5" /> 
<path d="M46264 56721
L46376 56721
L46489 56777
L46545 56833
L46601 56946
L46657 57171
L46657 57452
L46601 57677
L46545 57789
L46489 57846
L46376 57902
L46264 57902
L46151 57846
L46095 57789
L46039 57677
L45982 57452
L45982 57171
L46039 56946
L46095 56833
L46151 56777
L46264 56721
" />
<path d="M47163 57789
L47220 57846
L47163 57902
L47107 57846
L47163 57789
L47163 57902
" />
<path d="M47895 57227
L47782 57171
L47726 57115
L47670 57002
L47670 56946
L47726 56833
L47782 56777
L47895 56721
L48120 56721
L48232 56777
L48288 56833
L48345 56946
L48345 57002
L48288 57115
L48232 57171
L48120 57227
L47895 57227
L47782 57283
L47726 57339
L47670 57452
L47670 57677
L47726 57789
L47782 57846
L47895 57902
L48120 57902
L48232 57846
L48288 57789
L48345 57677
L48345 57452
L48288 57339
L48232 57283
L48120 57227
" />
<path d="M49076 56721
L49188 56721
L49301 56777
L49357 56833
L49413 56946
L49469 57171
L49469 57452
L49413 57677
L49357 57789
L49301 57846
L49188 57902
L49076 57902
L48963 57846
L48907 57789
L48851 57677
L48794 57452
L48794 57171
L48851 56946
L48907 56833
L48963 56777
L49076 56721
" />
<path d="M49976 57902
L49976 57115
" />
<path d="M49976 57227
L50032 57171
L50144 57115
L50313 57115
L50426 57171
L50482 57283
L50482 57902
" />
<path d="M50482 57283
L50538 57171
L50651 57115
L50819 57115
L50932 57171
L50988 57283
L50988 57902
" />
<path d="M51550 57902
L51550 57115
" />
<path d="M51550 57227
L51607 57171
L51719 57115
L51888 57115
L52000 57171
L52057 57283
L52057 57902
" />
<path d="M52057 57283
L52113 57171
L52225 57115
L52394 57115
L52507 57171
L52563 57283
L52563 57902
" />
<path d="M54869 56665
L53856 58183
" />
<path d="M56387 56721
L56500 56721
L56612 56777
L56669 56833
L56725 56946
L56781 57171
L56781 57452
L56725 57677
L56669 57789
L56612 57846
L56500 57902
L56387 57902
L56275 57846
L56219 57789
L56162 57677
L56106 57452
L56106 57171
L56162 56946
L56219 56833
L56275 56777
L56387 56721
" />
<path d="M57287 57789
L57343 57846
L57287 57902
L57231 57846
L57287 57789
L57287 57902
" />
<path d="M58075 56721
L58187 56721
L58300 56777
L58356 56833
L58412 56946
L58468 57171
L58468 57452
L58412 57677
L58356 57789
L58300 57846
L58187 57902
L58075 57902
L57962 57846
L57906 57789
L57850 57677
L57793 57452
L57793 57171
L57850 56946
L57906 56833
L57962 56777
L58075 56721
" />
<path d="M58862 56721
L59593 56721
L59199 57171
L59368 57171
L59481 57227
L59537 57283
L59593 57396
L59593 57677
L59537 57789
L59481 57846
L59368 57902
L59031 57902
L58918 57846
L58862 57789
" />
<path d="M60043 56833
L60099 56777
L60212 56721
L60493 56721
L60606 56777
L60662 56833
L60718 56946
L60718 57058
L60662 57227
L59987 57902
L60718 57902
" />
<path d="M61168 56721
L61168 56946
" />
<path d="M61618 56721
L61618 56946
" />
<path d="M63361 58352
L63305 58296
L63193 58127
L63136 58014
L63080 57846
L63024 57564
L63024 57339
L63080 57058
L63136 56890
L63193 56777
L63305 56608
L63361 56552
" />
<path d="M64318 57115
L64318 57902
" />
<path d="M64036 56665
L63755 57508
L64486 57508
" />
<path d="M65836 57902
L65836 56721
" />
<path d="M66342 57902
L66342 57283
L66286 57171
L66174 57115
L66005 57115
L65892 57171
L65836 57227
" />
<path d="M67073 57902
L66961 57846
L66905 57789
L66848 57677
L66848 57339
L66905 57227
L66961 57171
L67073 57115
L67242 57115
L67355 57171
L67411 57227
L67467 57339
L67467 57677
L67411 57789
L67355 57846
L67242 57902
L67073 57902
" />
<path d="M68142 57902
L68030 57846
L67973 57733
L67973 56721
" />
<path d="M69042 57846
L68929 57902
L68705 57902
L68592 57846
L68536 57733
L68536 57283
L68592 57171
L68705 57115
L68929 57115
L69042 57171
L69098 57283
L69098 57396
L68536 57508
" />
<path d="M69548 57846
L69661 57902
L69886 57902
L69998 57846
L70054 57733
L70054 57677
L69998 57564
L69886 57508
L69717 57508
L69604 57452
L69548 57339
L69548 57283
L69604 57171
L69717 57115
L69886 57115
L69998 57171
" />
<path d="M70448 58352
L70504 58296
L70617 58127
L70673 58014
L70729 57846
L70785 57564
L70785 57339
L70729 57058
L70673 56890
L70617 56777
L70504 56608
L70448 56552
" />
<path d="M44810 58767
L44810 59087
" />
<path d="M44650 58927
L44970 58927
" />
<path d="M46264 58280
L46376 58280
L46489 58336
L46545 58392
L46601 58505
L46657 58730
L46657 59011
L46601 59236
L46545 59348
L46489 59405
L46376 59461
L46264 59461
L46151 59405
L46095 59348
L46039 59236
L45982 59011
L45982 58730
L46039 58505
L46095 58392
L46151 58336
L46264 58280
" />
<path d="M47163 59348
L47220 59405
L47163 59461
L47107 59405
L47163 59348
L47163 59461
" />
<path d="M47895 58786
L47782 58730
L47726 58674
L47670 58561
L47670 58505
L47726 58392
L47782 58336
L47895 58280
L48120 58280
L48232 58336
L48288 58392
L48345 58505
L48345 58561
L48288 58674
L48232 58730
L48120 58786
L47895 58786
L47782 58842
L47726 58899
L47670 59011
L47670 59236
L47726 59348
L47782 59405
L47895 59461
L48120 59461
L48232 59405
L48288 59348
L48345 59236
L48345 59011
L48288 58899
L48232 58842
L48120 58786
" />
<path d="M49469 59461
L48794 59461
" />
<path d="M49132 59461
L49132 58280
L49019 58449
L48907 58561
L48794 58617
" />
<path d="M49976 59461
L49976 58674
" />
<path d="M49976 58786
L50032 58730
L50144 58674
L50313 58674
L50426 58730
L50482 58842
L50482 59461
" />
<path d="M50482 58842
L50538 58730
L50651 58674
L50819 58674
L50932 58730
L50988 58842
L50988 59461
" />
<path d="M51550 59461
L51550 58674
" />
<path d="M51550 58786
L51607 58730
L51719 58674
L51888 58674
L52000 58730
L52057 58842
L52057 59461
" />
<path d="M52057 58842
L52113 58730
L52225 58674
L52394 58674
L52507 58730
L52563 58842
L52563 59461
" />
<path d="M54869 58224
L53856 59742
" />
<path d="M56387 58280
L56500 58280
L56612 58336
L56669 58392
L56725 58505
L56781 58730
L56781 59011
L56725 59236
L56669 59348
L56612 59405
L56500 59461
L56387 59461
L56275 59405
L56219 59348
L56162 59236
L56106 59011
L56106 58730
L56162 58505
L56219 58392
L56275 58336
L56387 58280
" />
<path d="M57287 59348
L57343 59405
L57287 59461
L57231 59405
L57287 59348
L57287 59461
" />
<path d="M58075 58280
L58187 58280
L58300 58336
L58356 58392
L58412 58505
L58468 58730
L58468 59011
L58412 59236
L58356 59348
L58300 59405
L58187 59461
L58075 59461
L57962 59405
L57906 59348
L57850 59236
L57793 59011
L57793 58730
L57850 58505
L57906 58392
L57962 58336
L58075 58280
" />
<path d="M58862 58280
L59593 58280
L59199 58730
L59368 58730
L59481 58786
L59537 58842
L59593 58955
L59593 59236
L59537 59348
L59481 59405
L59368 59461
L59031 59461
L58918 59405
L58862 59348
" />
<path d="M60043 58392
L60099 58336
L60212 58280
L60493 58280
L60606 58336
L60662 58392
L60718 58505
L60718 58617
L60662 58786
L59987 59461
L60718 59461
" />
<path d="M61168 58280
L61168 58505
" />
<path d="M61618 58280
L61618 58505
" />
<path d="M63361 59911
L63305 59855
L63193 59686
L63136 59573
L63080 59405
L63024 59124
L63024 58899
L63080 58617
L63136 58449
L63193 58336
L63305 58167
L63361 58111
" />
<path d="M63699 58280
L64430 58280
L64036 58730
L64205 58730
L64318 58786
L64374 58842
L64430 58955
L64430 59236
L64374 59348
L64318 59405
L64205 59461
L63868 59461
L63755 59405
L63699 59348
" />
<path d="M64992 59461
L65217 59461
L65330 59405
L65386 59348
L65499 59180
L65555 58955
L65555 58505
L65499 58392
L65442 58336
L65330 58280
L65105 58280
L64992 58336
L64936 58392
L64880 58505
L64880 58786
L64936 58899
L64992 58955
L65105 59011
L65330 59011
L65442 58955
L65499 58899
L65555 58786
" />
<path d="M66961 59461
L66961 58280
" />
<path d="M67467 59461
L67467 58842
L67411 58730
L67298 58674
L67130 58674
L67017 58730
L66961 58786
" />
<path d="M68198 59461
L68086 59405
L68030 59348
L67973 59236
L67973 58899
L68030 58786
L68086 58730
L68198 58674
L68367 58674
L68480 58730
L68536 58786
L68592 58899
L68592 59236
L68536 59348
L68480 59405
L68367 59461
L68198 59461
" />
<path d="M69267 59461
L69154 59405
L69098 59292
L69098 58280
" />
<path d="M70167 59405
L70054 59461
L69829 59461
L69717 59405
L69661 59292
L69661 58842
L69717 58730
L69829 58674
L70054 58674
L70167 58730
L70223 58842
L70223 58955
L69661 59067
" />
<path d="M70673 59405
L70785 59461
L71010 59461
L71123 59405
L71179 59292
L71179 59236
L71123 59124
L71010 59067
L70842 59067
L70729 59011
L70673 58899
L70673 58842
L70729 58730
L70842 58674
L71010 58674
L71123 58730
" />
<path d="M71573 59911
L71629 59855
L71742 59686
L71798 59573
L71854 59405
L71910 59124
L71910 58899
L71854 58617
L71798 58449
L71742 58336
L71629 58167
L71573 58111
" />
<polyline fill="none;"
points="44912,60625
44912,60346
44634,60346
44634,60625
44912,60625
" /> 
<path d="M46657 61020
L45982 61020
" />
<path d="M46320 61020
L46320 59839
L46207 60008
L46095 60120
L45982 60176
" />
<path d="M47163 60908
L47220 60964
L47163 61020
L47107 60964
L47163 60908
L47163 61020
" />
<path d="M47951 59839
L48063 59839
L48176 59895
L48232 59951
L48288 60064
L48345 60289
L48345 60570
L48288 60795
L48232 60908
L48176 60964
L48063 61020
L47951 61020
L47838 60964
L47782 60908
L47726 60795
L47670 60570
L47670 60289
L47726 60064
L47782 59951
L47838 59895
L47951 59839
" />
<path d="M49076 59839
L49188 59839
L49301 59895
L49357 59951
L49413 60064
L49469 60289
L49469 60570
L49413 60795
L49357 60908
L49301 60964
L49188 61020
L49076 61020
L48963 60964
L48907 60908
L48851 60795
L48794 60570
L48794 60289
L48851 60064
L48907 59951
L48963 59895
L49076 59839
" />
<path d="M49976 61020
L49976 60233
" />
<path d="M49976 60345
L50032 60289
L50144 60233
L50313 60233
L50426 60289
L50482 60401
L50482 61020
" />
<path d="M50482 60401
L50538 60289
L50651 60233
L50819 60233
L50932 60289
L50988 60401
L50988 61020
" />
<path d="M51550 61020
L51550 60233
" />
<path d="M51550 60345
L51607 60289
L51719 60233
L51888 60233
L52000 60289
L52057 60401
L52057 61020
" />
<path d="M52057 60401
L52113 60289
L52225 60233
L52394 60233
L52507 60289
L52563 60401
L52563 61020
" />
<path d="M54869 59783
L53856 61301
" />
<path d="M56387 59839
L56500 59839
L56612 59895
L56669 59951
L56725 60064
L56781 60289
L56781 60570
L56725 60795
L56669 60908
L56612 60964
L56500 61020
L56387 61020
L56275 60964
L56219 60908
L56162 60795
L56106 60570
L56106 60289
L56162 60064
L56219 59951
L56275 59895
L56387 59839
" />
<path d="M57287 60908
L57343 60964
L57287 61020
L57231 60964
L57287 60908
L57287 61020
" />
<path d="M58075 59839
L58187 59839
L58300 59895
L58356 59951
L58412 60064
L58468 60289
L58468 60570
L58412 60795
L58356 60908
L58300 60964
L58187 61020
L58075 61020
L57962 60964
L57906 60908
L57850 60795
L57793 60570
L57793 60289
L57850 60064
L57906 59951
L57962 59895
L58075 59839
" />
<path d="M58862 59839
L59593 59839
L59199 60289
L59368 60289
L59481 60345
L59537 60401
L59593 60514
L59593 60795
L59537 60908
L59481 60964
L59368 61020
L59031 61020
L58918 60964
L58862 60908
" />
<path d="M60156 61020
L60381 61020
L60493 60964
L60549 60908
L60662 60739
L60718 60514
L60718 60064
L60662 59951
L60606 59895
L60493 59839
L60268 59839
L60156 59895
L60099 59951
L60043 60064
L60043 60345
L60099 60458
L60156 60514
L60268 60570
L60493 60570
L60606 60514
L60662 60458
L60718 60345
" />
<path d="M61168 59839
L61168 60064
" />
<path d="M61618 59839
L61618 60064
" />
<path d="M63361 61470
L63305 61414
L63193 61245
L63136 61133
L63080 60964
L63024 60683
L63024 60458
L63080 60176
L63136 60008
L63193 59895
L63305 59726
L63361 59670
" />
<path d="M64430 61020
L63755 61020
" />
<path d="M64093 61020
L64093 59839
L63980 60008
L63868 60120
L63755 60176
" />
<path d="M65161 59839
L65274 59839
L65386 59895
L65442 59951
L65499 60064
L65555 60289
L65555 60570
L65499 60795
L65442 60908
L65386 60964
L65274 61020
L65161 61020
L65049 60964
L64992 60908
L64936 60795
L64880 60570
L64880 60289
L64936 60064
L64992 59951
L65049 59895
L65161 59839
" />
<path d="M66961 61020
L66961 59839
" />
<path d="M67467 61020
L67467 60401
L67411 60289
L67298 60233
L67130 60233
L67017 60289
L66961 60345
" />
<path d="M68198 61020
L68086 60964
L68030 60908
L67973 60795
L67973 60458
L68030 60345
L68086 60289
L68198 60233
L68367 60233
L68480 60289
L68536 60345
L68592 60458
L68592 60795
L68536 60908
L68480 60964
L68367 61020
L68198 61020
" />
<path d="M69267 61020
L69154 60964
L69098 60851
L69098 59839
" />
<path d="M70167 60964
L70054 61020
L69829 61020
L69717 60964
L69661 60851
L69661 60401
L69717 60289
L69829 60233
L70054 60233
L70167 60289
L70223 60401
L70223 60514
L69661 60626
" />
<path d="M70673 60964
L70785 61020
L71010 61020
L71123 60964
L71179 60851
L71179 60795
L71123 60683
L71010 60626
L70842 60626
L70729 60570
L70673 60458
L70673 60401
L70729 60289
L70842 60233
L71010 60233
L71123 60289
" />
<path d="M71573 61470
L71629 61414
L71742 61245
L71798 61133
L71854 60964
L71910 60683
L71910 60458
L71854 60176
L71798 60008
L71742 59895
L71629 59726
L71573 59670
" />
<polyline fill="none;"
points="44770,62245
44970,62045
44770,61845
44570,62045
44770,62245
" /> 
<path d="M46657 62579
L45982 62579
" />
<path d="M46320 62579
L46320 61398
L46207 61567
L46095 61679
L45982 61735
" />
<path d="M47163 62467
L47220 62523
L47163 62579
L47107 62523
L47163 62467
L47163 62579
" />
<path d="M47951 61398
L48063 61398
L48176 61454
L48232 61510
L48288 61623
L48345 61848
L48345 62129
L48288 62354
L48232 62467
L48176 62523
L48063 62579
L47951 62579
L47838 62523
L47782 62467
L47726 62354
L47670 62129
L47670 61848
L47726 61623
L47782 61510
L47838 61454
L47951 61398
" />
<path d="M48794 61510
L48851 61454
L48963 61398
L49244 61398
L49357 61454
L49413 61510
L49469 61623
L49469 61735
L49413 61904
L48738 62579
L49469 62579
" />
<path d="M49976 62579
L49976 61792
" />
<path d="M49976 61904
L50032 61848
L50144 61792
L50313 61792
L50426 61848
L50482 61960
L50482 62579
" />
<path d="M50482 61960
L50538 61848
L50651 61792
L50819 61792
L50932 61848
L50988 61960
L50988 62579
" />
<path d="M51550 62579
L51550 61792
" />
<path d="M51550 61904
L51607 61848
L51719 61792
L51888 61792
L52000 61848
L52057 61960
L52057 62579
" />
<path d="M52057 61960
L52113 61848
L52225 61792
L52394 61792
L52507 61848
L52563 61960
L52563 62579
" />
<path d="M54869 61342
L53856 62860
" />
<path d="M56387 61398
L56500 61398
L56612 61454
L56669 61510
L56725 61623
L56781 61848
L56781 62129
L56725 62354
L56669 62467
L56612 62523
L56500 62579
L56387 62579
L56275 62523
L56219 62467
L56162 62354
L56106 62129
L56106 61848
L56162 61623
L56219 61510
L56275 61454
L56387 61398
" />
<path d="M57287 62467
L57343 62523
L57287 62579
L57231 62523
L57287 62467
L57287 62579
" />
<path d="M58075 61398
L58187 61398
L58300 61454
L58356 61510
L58412 61623
L58468 61848
L58468 62129
L58412 62354
L58356 62467
L58300 62523
L58187 62579
L58075 62579
L57962 62523
L57906 62467
L57850 62354
L57793 62129
L57793 61848
L57850 61623
L57906 61510
L57962 61454
L58075 61398
" />
<path d="M59481 61792
L59481 62579
" />
<path d="M59199 61342
L58918 62185
L59649 62185
" />
<path d="M60324 61398
L60437 61398
L60549 61454
L60606 61510
L60662 61623
L60718 61848
L60718 62129
L60662 62354
L60606 62467
L60549 62523
L60437 62579
L60324 62579
L60212 62523
L60156 62467
L60099 62354
L60043 62129
L60043 61848
L60099 61623
L60156 61510
L60212 61454
L60324 61398
" />
<path d="M61168 61398
L61168 61623
" />
<path d="M61618 61398
L61618 61623
" />
<path d="M63361 63029
L63305 62973
L63193 62804
L63136 62692
L63080 62523
L63024 62242
L63024 62017
L63080 61735
L63136 61567
L63193 61454
L63305 61285
L63361 61229
" />
<path d="M63755 61510
L63811 61454
L63924 61398
L64205 61398
L64318 61454
L64374 61510
L64430 61623
L64430 61735
L64374 61904
L63699 62579
L64430 62579
" />
<path d="M64824 61398
L65555 61398
L65161 61848
L65330 61848
L65442 61904
L65499 61960
L65555 62073
L65555 62354
L65499 62467
L65442 62523
L65330 62579
L64992 62579
L64880 62523
L64824 62467
" />
<path d="M65949 61398
L66680 61398
L66286 61848
L66455 61848
L66567 61904
L66624 61960
L66680 62073
L66680 62354
L66624 62467
L66567 62523
L66455 62579
L66117 62579
L66005 62523
L65949 62467
" />
<path d="M68086 62579
L68086 61398
" />
<path d="M68592 62579
L68592 61960
L68536 61848
L68423 61792
L68255 61792
L68142 61848
L68086 61904
" />
<path d="M69323 62579
L69211 62523
L69154 62467
L69098 62354
L69098 62017
L69154 61904
L69211 61848
L69323 61792
L69492 61792
L69604 61848
L69661 61904
L69717 62017
L69717 62354
L69661 62467
L69604 62523
L69492 62579
L69323 62579
" />
<path d="M70392 62579
L70279 62523
L70223 62410
L70223 61398
" />
<path d="M71292 62523
L71179 62579
L70954 62579
L70842 62523
L70785 62410
L70785 61960
L70842 61848
L70954 61792
L71179 61792
L71292 61848
L71348 61960
L71348 62073
L70785 62185
" />
<path d="M71798 62523
L71910 62579
L72135 62579
L72248 62523
L72304 62410
L72304 62354
L72248 62242
L72135 62185
L71967 62185
L71854 62129
L71798 62017
L71798 61960
L71854 61848
L71967 61792
L72135 61792
L72248 61848
" />
<path d="M72698 63029
L72754 62973
L72866 62804
L72923 62692
L72979 62523
L73035 62242
L73035 62017
L72979 61735
L72923 61567
L72866 61454
L72754 61285
L72698 61229
" />
<path d="M44537 63387
L44970 63820
" />
<path d="M44970 63387
L44537 63820
" />
<circle cx="44754" cy="63604.3" r="216.5" /> 
<path d="M46657 64138
L45982 64138
" />
<path d="M46320 64138
L46320 62957
L46207 63126
L46095 63238
L45982 63294
" />
<path d="M47163 64026
L47220 64082
L47163 64138
L47107 64082
L47163 64026
L47163 64138
" />
<path d="M48345 64138
L47670 64138
" />
<path d="M48007 64138
L48007 62957
L47895 63126
L47782 63238
L47670 63294
" />
<path d="M49076 62957
L49188 62957
L49301 63013
L49357 63070
L49413 63182
L49469 63407
L49469 63688
L49413 63913
L49357 64026
L49301 64082
L49188 64138
L49076 64138
L48963 64082
L48907 64026
L48851 63913
L48794 63688
L48794 63407
L48851 63182
L48907 63070
L48963 63013
L49076 62957
" />
<path d="M49976 64138
L49976 63351
" />
<path d="M49976 63463
L50032 63407
L50144 63351
L50313 63351
L50426 63407
L50482 63519
L50482 64138
" />
<path d="M50482 63519
L50538 63407
L50651 63351
L50819 63351
L50932 63407
L50988 63519
L50988 64138
" />
<path d="M51550 64138
L51550 63351
" />
<path d="M51550 63463
L51607 63407
L51719 63351
L51888 63351
L52000 63407
L52057 63519
L52057 64138
" />
<path d="M52057 63519
L52113 63407
L52225 63351
L52394 63351
L52507 63407
L52563 63519
L52563 64138
" />
<path d="M54869 62901
L53856 64419
" />
<path d="M56387 62957
L56500 62957
L56612 63013
L56669 63070
L56725 63182
L56781 63407
L56781 63688
L56725 63913
L56669 64026
L56612 64082
L56500 64138
L56387 64138
L56275 64082
L56219 64026
L56162 63913
L56106 63688
L56106 63407
L56162 63182
L56219 63070
L56275 63013
L56387 62957
" />
<path d="M57287 64026
L57343 64082
L57287 64138
L57231 64082
L57287 64026
L57287 64138
" />
<path d="M58075 62957
L58187 62957
L58300 63013
L58356 63070
L58412 63182
L58468 63407
L58468 63688
L58412 63913
L58356 64026
L58300 64082
L58187 64138
L58075 64138
L57962 64082
L57906 64026
L57850 63913
L57793 63688
L57793 63407
L57850 63182
L57906 63070
L57962 63013
L58075 62957
" />
<path d="M59481 63351
L59481 64138
" />
<path d="M59199 62901
L58918 63744
L59649 63744
" />
<path d="M59987 62957
L60718 62957
L60324 63407
L60493 63407
L60606 63463
L60662 63519
L60718 63632
L60718 63913
L60662 64026
L60606 64082
L60493 64138
L60156 64138
L60043 64082
L59987 64026
" />
<path d="M61168 62957
L61168 63182
" />
<path d="M61618 62957
L61618 63182
" />
<path d="M63361 64588
L63305 64532
L63193 64363
L63136 64251
L63080 64082
L63024 63801
L63024 63576
L63080 63294
L63136 63126
L63193 63013
L63305 62845
L63361 62788
" />
<path d="M64318 62957
L64093 62957
L63980 63013
L63924 63070
L63811 63238
L63755 63463
L63755 63913
L63811 64026
L63868 64082
L63980 64138
L64205 64138
L64318 64082
L64374 64026
L64430 63913
L64430 63632
L64374 63519
L64318 63463
L64205 63407
L63980 63407
L63868 63463
L63811 63519
L63755 63632
" />
<path d="M65161 62957
L65274 62957
L65386 63013
L65442 63070
L65499 63182
L65555 63407
L65555 63688
L65499 63913
L65442 64026
L65386 64082
L65274 64138
L65161 64138
L65049 64082
L64992 64026
L64936 63913
L64880 63688
L64880 63407
L64936 63182
L64992 63070
L65049 63013
L65161 62957
" />
<path d="M66961 64138
L66961 62957
" />
<path d="M67467 64138
L67467 63519
L67411 63407
L67298 63351
L67130 63351
L67017 63407
L66961 63463
" />
<path d="M68198 64138
L68086 64082
L68030 64026
L67973 63913
L67973 63576
L68030 63463
L68086 63407
L68198 63351
L68367 63351
L68480 63407
L68536 63463
L68592 63576
L68592 63913
L68536 64026
L68480 64082
L68367 64138
L68198 64138
" />
<path d="M69267 64138
L69154 64082
L69098 63969
L69098 62957
" />
<path d="M70167 64082
L70054 64138
L69829 64138
L69717 64082
L69661 63969
L69661 63519
L69717 63407
L69829 63351
L70054 63351
L70167 63407
L70223 63519
L70223 63632
L69661 63744
" />
<path d="M70673 64082
L70785 64138
L71010 64138
L71123 64082
L71179 63969
L71179 63913
L71123 63801
L71010 63744
L70842 63744
L70729 63688
L70673 63576
L70673 63519
L70729 63407
L70842 63351
L71010 63351
L71123 63407
" />
<path d="M71573 64588
L71629 64532
L71742 64363
L71798 64251
L71854 64082
L71910 63801
L71910 63576
L71854 63294
L71798 63126
L71742 63013
L71629 62845
L71573 62788
" />
<path d="M44498 64927
L44970 65399
" />
<path d="M44970 64927
L44498 65399
" />
<path d="M44734 64927
L44734 65399
" />
<path d="M44498 65163
L44970 65163
" />
<path d="M46657 65697
L45982 65697
" />
<path d="M46320 65697
L46320 64516
L46207 64685
L46095 64797
L45982 64854
" />
<path d="M47163 65585
L47220 65641
L47163 65697
L47107 65641
L47163 65585
L47163 65697
" />
<path d="M47670 64629
L47726 64572
L47838 64516
L48120 64516
L48232 64572
L48288 64629
L48345 64741
L48345 64854
L48288 65022
L47613 65697
L48345 65697
" />
<path d="M49076 64516
L49188 64516
L49301 64572
L49357 64629
L49413 64741
L49469 64966
L49469 65247
L49413 65472
L49357 65585
L49301 65641
L49188 65697
L49076 65697
L48963 65641
L48907 65585
L48851 65472
L48794 65247
L48794 64966
L48851 64741
L48907 64629
L48963 64572
L49076 64516
" />
<path d="M49976 65697
L49976 64910
" />
<path d="M49976 65022
L50032 64966
L50144 64910
L50313 64910
L50426 64966
L50482 65079
L50482 65697
" />
<path d="M50482 65079
L50538 64966
L50651 64910
L50819 64910
L50932 64966
L50988 65079
L50988 65697
" />
<path d="M51550 65697
L51550 64910
" />
<path d="M51550 65022
L51607 64966
L51719 64910
L51888 64910
L52000 64966
L52057 65079
L52057 65697
" />
<path d="M52057 65079
L52113 64966
L52225 64910
L52394 64910
L52507 64966
L52563 65079
L52563 65697
" />
<path d="M54869 64460
L53856 65978
" />
<path d="M56387 64516
L56500 64516
L56612 64572
L56669 64629
L56725 64741
L56781 64966
L56781 65247
L56725 65472
L56669 65585
L56612 65641
L56500 65697
L56387 65697
L56275 65641
L56219 65585
L56162 65472
L56106 65247
L56106 64966
L56162 64741
L56219 64629
L56275 64572
L56387 64516
" />
<path d="M57287 65585
L57343 65641
L57287 65697
L57231 65641
L57287 65585
L57287 65697
" />
<path d="M58075 64516
L58187 64516
L58300 64572
L58356 64629
L58412 64741
L58468 64966
L58468 65247
L58412 65472
L58356 65585
L58300 65641
L58187 65697
L58075 65697
L57962 65641
L57906 65585
L57850 65472
L57793 65247
L57793 64966
L57850 64741
L57906 64629
L57962 64572
L58075 64516
" />
<path d="M59481 64910
L59481 65697
" />
<path d="M59199 64460
L58918 65303
L59649 65303
" />
<path d="M59987 64516
L60774 64516
L60268 65697
" />
<path d="M61168 64516
L61168 64741
" />
<path d="M61618 64516
L61618 64741
" />
<path d="M63361 66147
L63305 66091
L63193 65922
L63136 65810
L63080 65641
L63024 65360
L63024 65135
L63080 64854
L63136 64685
L63193 64572
L63305 64404
L63361 64347
" />
<path d="M63755 64629
L63811 64572
L63924 64516
L64205 64516
L64318 64572
L64374 64629
L64430 64741
L64430 64854
L64374 65022
L63699 65697
L64430 65697
" />
<path d="M65836 65697
L65836 64516
" />
<path d="M66342 65697
L66342 65079
L66286 64966
L66174 64910
L66005 64910
L65892 64966
L65836 65022
" />
<path d="M67073 65697
L66961 65641
L66905 65585
L66848 65472
L66848 65135
L66905 65022
L66961 64966
L67073 64910
L67242 64910
L67355 64966
L67411 65022
L67467 65135
L67467 65472
L67411 65585
L67355 65641
L67242 65697
L67073 65697
" />
<path d="M68142 65697
L68030 65641
L67973 65528
L67973 64516
" />
<path d="M69042 65641
L68929 65697
L68705 65697
L68592 65641
L68536 65528
L68536 65079
L68592 64966
L68705 64910
L68929 64910
L69042 64966
L69098 65079
L69098 65191
L68536 65303
" />
<path d="M69548 65641
L69661 65697
L69886 65697
L69998 65641
L70054 65528
L70054 65472
L69998 65360
L69886 65303
L69717 65303
L69604 65247
L69548 65135
L69548 65079
L69604 64966
L69717 64910
L69886 64910
L69998 64966
" />
<path d="M70448 66147
L70504 66091
L70617 65922
L70673 65810
L70729 65641
L70785 65360
L70785 65135
L70729 64854
L70673 64685
L70617 64572
L70504 64404
L70448 64347
" />
<path d="M44470 66472
L44970 66972
" />
<path d="M44970 66472
L44470 66972
" />
<polyline fill="none;"
points="44897,66899
44897,66545
44543,66545
44543,66899
44897,66899
" /> 
<path d="M46657 67256
L45982 67256
" />
<path d="M46320 67256
L46320 66075
L46207 66244
L46095 66356
L45982 66413
" />
<path d="M47163 67144
L47220 67200
L47163 67256
L47107 67200
L47163 67144
L47163 67256
" />
<path d="M47670 66188
L47726 66131
L47838 66075
L48120 66075
L48232 66131
L48288 66188
L48345 66300
L48345 66413
L48288 66581
L47613 67256
L48345 67256
" />
<path d="M48738 66075
L49526 66075
L49019 67256
" />
<path d="M49976 67256
L49976 66469
" />
<path d="M49976 66581
L50032 66525
L50144 66469
L50313 66469
L50426 66525
L50482 66638
L50482 67256
" />
<path d="M50482 66638
L50538 66525
L50651 66469
L50819 66469
L50932 66525
L50988 66638
L50988 67256
" />
<path d="M51550 67256
L51550 66469
" />
<path d="M51550 66581
L51607 66525
L51719 66469
L51888 66469
L52000 66525
L52057 66638
L52057 67256
" />
<path d="M52057 66638
L52113 66525
L52225 66469
L52394 66469
L52507 66525
L52563 66638
L52563 67256
" />
<path d="M54869 66019
L53856 67537
" />
<path d="M56387 66075
L56500 66075
L56612 66131
L56669 66188
L56725 66300
L56781 66525
L56781 66806
L56725 67031
L56669 67144
L56612 67200
L56500 67256
L56387 67256
L56275 67200
L56219 67144
L56162 67031
L56106 66806
L56106 66525
L56162 66300
L56219 66188
L56275 66131
L56387 66075
" />
<path d="M57287 67144
L57343 67200
L57287 67256
L57231 67200
L57287 67144
L57287 67256
" />
<path d="M58075 66075
L58187 66075
L58300 66131
L58356 66188
L58412 66300
L58468 66525
L58468 66806
L58412 67031
L58356 67144
L58300 67200
L58187 67256
L58075 67256
L57962 67200
L57906 67144
L57850 67031
L57793 66806
L57793 66525
L57850 66300
L57906 66188
L57962 66131
L58075 66075
" />
<path d="M59537 66075
L58974 66075
L58918 66638
L58974 66581
L59087 66525
L59368 66525
L59481 66581
L59537 66638
L59593 66750
L59593 67031
L59537 67144
L59481 67200
L59368 67256
L59087 67256
L58974 67200
L58918 67144
" />
<path d="M60324 66075
L60437 66075
L60549 66131
L60606 66188
L60662 66300
L60718 66525
L60718 66806
L60662 67031
L60606 67144
L60549 67200
L60437 67256
L60324 67256
L60212 67200
L60156 67144
L60099 67031
L60043 66806
L60043 66525
L60099 66300
L60156 66188
L60212 66131
L60324 66075
" />
<path d="M61168 66075
L61168 66300
" />
<path d="M61618 66075
L61618 66300
" />
<path d="M63361 67706
L63305 67650
L63193 67481
L63136 67369
L63080 67200
L63024 66919
L63024 66694
L63080 66413
L63136 66244
L63193 66131
L63305 65963
L63361 65906
" />
<path d="M64430 67256
L63755 67256
" />
<path d="M64093 67256
L64093 66075
L63980 66244
L63868 66356
L63755 66413
" />
<path d="M65836 67256
L65836 66075
" />
<path d="M66342 67256
L66342 66638
L66286 66525
L66174 66469
L66005 66469
L65892 66525
L65836 66581
" />
<path d="M67073 67256
L66961 67200
L66905 67144
L66848 67031
L66848 66694
L66905 66581
L66961 66525
L67073 66469
L67242 66469
L67355 66525
L67411 66581
L67467 66694
L67467 67031
L67411 67144
L67355 67200
L67242 67256
L67073 67256
" />
<path d="M68142 67256
L68030 67200
L67973 67088
L67973 66075
" />
<path d="M69042 67200
L68929 67256
L68705 67256
L68592 67200
L68536 67088
L68536 66638
L68592 66525
L68705 66469
L68929 66469
L69042 66525
L69098 66638
L69098 66750
L68536 66863
" />
<path d="M69492 67706
L69548 67650
L69661 67481
L69717 67369
L69773 67200
L69829 66919
L69829 66694
L69773 66413
L69717 66244
L69661 66131
L69548 65963
L69492 65906
" />
</g> 
</svg>
