<?xml version="1.0" standalone="no"?>
 <!DOCTYPE svg PUBLIC "-//W3C//DTD SVG 1.1//EN" 
 "http://www.w3.org/Graphics/SVG/1.1/DTD/svg11.dtd"> 
<svg xmlns="http://www.w3.org/2000/svg" version="1.1" 
    width="29.7002cm" height="21.0007cm" viewBox="0 0 116930 82680 ">
<title>SVG Picture created as EnergyMonitor-rev1-NPTH-drl_map.svg date 2014/12/22 18:16:14 </title>
  <desc>Picture generated by PCBNEW </desc>
<g style="fill:#000000; fill-opacity:1;stroke:#000000; stroke-opacity:1;
stroke-linecap:round; stroke-linejoin:round; "
 transform="translate(0 0) scale(1 1)">
</g>
<g style="fill:#000000; fill-opacity:0.0; 
stroke:#000000; stroke-width:59.0551; stroke-opacity:1; 
stroke-linecap:round; stroke-linejoin:round;">
<path d="M45000 52000
L45000 32500
" />
<path d="M84000 52000
L45000 52000
" />
<path d="M84000 13000
L84000 52000
" />
<path d="M45000 13000
L84000 13000
" />
<path d="M45000 32500
L45000 13000
" />
</g>
<g style="fill:#000000; fill-opacity:0.0; 
stroke:#000000; stroke-width:78.7402; stroke-opacity:1; 
stroke-linecap:round; stroke-linejoin:round;">
<path d="M45875 41875
L47125 43125
" />
<path d="M47125 41875
L45875 43125
" />
<path d="M46375 22875
L47625 24125
" />
<path d="M47625 22875
L46375 24125
" />
<path d="M66275 28875
L67525 30125
" />
<path d="M67525 28875
L66275 30125
" />
<path d="M66375 39875
L67625 41125
" />
<path d="M67625 39875
L66375 41125
" />
<path d="M75875 22875
L77125 24125
" />
<path d="M77125 22875
L75875 24125
" />
<path d="M78375 41875
L79625 43125
" />
<path d="M79625 41875
L78375 43125
" />
</g>
<g style="fill:#000000; fill-opacity:0.0; 
stroke:#000000; stroke-width:118.11; stroke-opacity:1; 
stroke-linecap:round; stroke-linejoin:round;">
<path d="M46039 53863
L46039 52681
L46320 52681
L46489 52738
L46601 52850
L46657 52963
L46714 53188
L46714 53356
L46657 53581
L46601 53694
L46489 53806
L46320 53863
L46039 53863
" />
<path d="M47220 53863
L47220 53075
" />
<path d="M47220 53300
L47276 53188
L47332 53131
L47445 53075
L47557 53075
" />
<path d="M47951 53863
L47951 53075
" />
<path d="M47951 52681
L47895 52738
L47951 52794
L48007 52738
L47951 52681
L47951 52794
" />
<path d="M48682 53863
L48570 53806
L48513 53694
L48513 52681
" />
<path d="M49301 53863
L49188 53806
L49132 53694
L49132 52681
" />
<path d="M50651 53863
L50651 52681
L51044 53525
L51438 52681
L51438 53863
" />
<path d="M52507 53863
L52507 53244
L52450 53131
L52338 53075
L52113 53075
L52000 53131
" />
<path d="M52507 53806
L52394 53863
L52113 53863
L52000 53806
L51944 53694
L51944 53581
L52000 53469
L52113 53413
L52394 53413
L52507 53356
" />
<path d="M53069 53075
L53069 54256
" />
<path d="M53069 53131
L53181 53075
L53406 53075
L53519 53131
L53575 53188
L53631 53300
L53631 53638
L53575 53750
L53519 53806
L53406 53863
L53181 53863
L53069 53806
" />
<path d="M54138 53750
L54194 53806
L54138 53863
L54081 53806
L54138 53750
L54138 53863
" />
<path d="M54138 53131
L54194 53188
L54138 53244
L54081 53188
L54138 53131
L54138 53244
" />
<path d="M43720 55184
L44970 56434
" />
<path d="M44970 55184
L43720 56434
" />
<path d="M45926 55162
L46657 55162
L46264 55612
L46432 55612
L46545 55668
L46601 55724
L46657 55837
L46657 56118
L46601 56230
L46545 56287
L46432 56343
L46095 56343
L45982 56287
L45926 56230
" />
<path d="M47163 56230
L47220 56287
L47163 56343
L47107 56287
L47163 56230
L47163 56343
" />
<path d="M48345 56343
L47670 56343
" />
<path d="M48007 56343
L48007 55162
L47895 55330
L47782 55443
L47670 55499
" />
<path d="M48738 55162
L49526 55162
L49019 56343
" />
<path d="M49976 56343
L49976 55555
" />
<path d="M49976 55668
L50032 55612
L50144 55555
L50313 55555
L50426 55612
L50482 55724
L50482 56343
" />
<path d="M50482 55724
L50538 55612
L50651 55555
L50819 55555
L50932 55612
L50988 55724
L50988 56343
" />
<path d="M51550 56343
L51550 55555
" />
<path d="M51550 55668
L51607 55612
L51719 55555
L51888 55555
L52000 55612
L52057 55724
L52057 56343
" />
<path d="M52057 55724
L52113 55612
L52225 55555
L52394 55555
L52507 55612
L52563 55724
L52563 56343
" />
<path d="M54869 55106
L53856 56624
" />
<path d="M56387 55162
L56500 55162
L56612 55218
L56669 55274
L56725 55387
L56781 55612
L56781 55893
L56725 56118
L56669 56230
L56612 56287
L56500 56343
L56387 56343
L56275 56287
L56219 56230
L56162 56118
L56106 55893
L56106 55612
L56162 55387
L56219 55274
L56275 55218
L56387 55162
" />
<path d="M57287 56230
L57343 56287
L57287 56343
L57231 56287
L57287 56230
L57287 56343
" />
<path d="M58468 56343
L57793 56343
" />
<path d="M58131 56343
L58131 55162
L58018 55330
L57906 55443
L57793 55499
" />
<path d="M58918 55274
L58974 55218
L59087 55162
L59368 55162
L59481 55218
L59537 55274
L59593 55387
L59593 55499
L59537 55668
L58862 56343
L59593 56343
" />
<path d="M60662 55162
L60099 55162
L60043 55724
L60099 55668
L60212 55612
L60493 55612
L60606 55668
L60662 55724
L60718 55837
L60718 56118
L60662 56230
L60606 56287
L60493 56343
L60212 56343
L60099 56287
L60043 56230
" />
<path d="M61168 55162
L61168 55387
" />
<path d="M61618 55162
L61618 55387
" />
<path d="M63361 56793
L63305 56737
L63193 56568
L63136 56455
L63080 56287
L63024 56005
L63024 55780
L63080 55499
L63136 55330
L63193 55218
L63305 55049
L63361 54993
" />
<path d="M64318 55162
L64093 55162
L63980 55218
L63924 55274
L63811 55443
L63755 55668
L63755 56118
L63811 56230
L63868 56287
L63980 56343
L64205 56343
L64318 56287
L64374 56230
L64430 56118
L64430 55837
L64374 55724
L64318 55668
L64205 55612
L63980 55612
L63868 55668
L63811 55724
L63755 55837
" />
<path d="M65836 56343
L65836 55162
" />
<path d="M66342 56343
L66342 55724
L66286 55612
L66174 55555
L66005 55555
L65892 55612
L65836 55668
" />
<path d="M67073 56343
L66961 56287
L66905 56230
L66848 56118
L66848 55780
L66905 55668
L66961 55612
L67073 55555
L67242 55555
L67355 55612
L67411 55668
L67467 55780
L67467 56118
L67411 56230
L67355 56287
L67242 56343
L67073 56343
" />
<path d="M68142 56343
L68030 56287
L67973 56174
L67973 55162
" />
<path d="M69042 56287
L68929 56343
L68705 56343
L68592 56287
L68536 56174
L68536 55724
L68592 55612
L68705 55555
L68929 55555
L69042 55612
L69098 55724
L69098 55837
L68536 55949
" />
<path d="M69548 56287
L69661 56343
L69886 56343
L69998 56287
L70054 56174
L70054 56118
L69998 56005
L69886 55949
L69717 55949
L69604 55893
L69548 55780
L69548 55724
L69604 55612
L69717 55555
L69886 55555
L69998 55612
" />
<path d="M70448 56793
L70504 56737
L70617 56568
L70673 56455
L70729 56287
L70785 56005
L70785 55780
L70729 55499
L70673 55330
L70617 55218
L70504 55049
L70448 54993
" />
</g> 
</svg>
