<?xml version="1.0" standalone="no"?>
 <!DOCTYPE svg PUBLIC "-//W3C//DTD SVG 1.1//EN" 
 "http://www.w3.org/Graphics/SVG/1.1/DTD/svg11.dtd"> 
<svg xmlns="http://www.w3.org/2000/svg" version="1.1" 
    width="29.7002cm" height="21.0007cm" viewBox="0 0 116930 82680 ">
<title>SVG Picture created as MultiSensors-rev1-B_SilkS.svg date 2014/12/23 09:04:30 </title>
  <desc>Picture generated by PCBNEW </desc>
<g style="fill:#000000; fill-opacity:1;stroke:#000000; stroke-opacity:1;
stroke-linecap:round; stroke-linejoin:round; "
 transform="translate(0 0) scale(1 1)">
</g>
<g style="fill:#000000; fill-opacity:0.0; 
stroke:#000000; stroke-width:39.3701; stroke-opacity:1; 
stroke-linecap:round; stroke-linejoin:round;">
</g>
<g style="fill:#000000; fill-opacity:0.0; 
stroke:#000000; stroke-width:59.0551; stroke-opacity:1; 
stroke-linecap:round; stroke-linejoin:round;">
<rect x="69685.9" y="65357.2" width="42519.7" height="12598.4" rx="0" />
</g>
<g style="fill:#000000; fill-opacity:0.0; 
stroke:#000000; stroke-width:39.3701; stroke-opacity:1; 
stroke-linecap:round; stroke-linejoin:round;">
</g>
<g style="fill:#000000; fill-opacity:0.0; 
stroke:#000000; stroke-width:59.0551; stroke-opacity:1; 
stroke-linecap:round; stroke-linejoin:round;">
<rect x="3937.01" y="3937.01" width="109056" height="74806" rx="0" />
</g>
<g style="fill:#000000; fill-opacity:0.0; 
stroke:#000000; stroke-width:39.3701; stroke-opacity:1; 
stroke-linecap:round; stroke-linejoin:round;">
</g>
<g style="fill:#000000; fill-opacity:0.0; 
stroke:#000000; stroke-width:59.0551; stroke-opacity:1; 
stroke-linecap:round; stroke-linejoin:round;">
<rect x="4724.41" y="4724.41" width="107481" height="73231.2" rx="0" />
</g>
<g style="fill:#000000; fill-opacity:0.0; 
stroke:#000000; stroke-width:39.3701; stroke-opacity:1; 
stroke-linecap:round; stroke-linejoin:round;">
</g>
<g style="fill:#000000; fill-opacity:0.0; 
stroke:#000000; stroke-width:59.0551; stroke-opacity:1; 
stroke-linecap:round; stroke-linejoin:round;">
<path d="M23622 4724
L23622 3937
" />
</g>
<g style="fill:#000000; fill-opacity:0.0; 
stroke:#000000; stroke-width:39.3701; stroke-opacity:1; 
stroke-linecap:round; stroke-linejoin:round;">
</g>
<g style="fill:#000000; fill-opacity:0.0; 
stroke:#000000; stroke-width:59.0551; stroke-opacity:1; 
stroke-linecap:round; stroke-linejoin:round;">
<path d="M43307 4724
L43307 3937
" />
</g>
<g style="fill:#000000; fill-opacity:0.0; 
stroke:#000000; stroke-width:39.3701; stroke-opacity:1; 
stroke-linecap:round; stroke-linejoin:round;">
</g>
<g style="fill:#000000; fill-opacity:0.0; 
stroke:#000000; stroke-width:59.0551; stroke-opacity:1; 
stroke-linecap:round; stroke-linejoin:round;">
<path d="M62992 4724
L62992 3937
" />
</g>
<g style="fill:#000000; fill-opacity:0.0; 
stroke:#000000; stroke-width:39.3701; stroke-opacity:1; 
stroke-linecap:round; stroke-linejoin:round;">
</g>
<g style="fill:#000000; fill-opacity:0.0; 
stroke:#000000; stroke-width:59.0551; stroke-opacity:1; 
stroke-linecap:round; stroke-linejoin:round;">
<path d="M82677 4724
L82677 3937
" />
</g>
<g style="fill:#000000; fill-opacity:0.0; 
stroke:#000000; stroke-width:39.3701; stroke-opacity:1; 
stroke-linecap:round; stroke-linejoin:round;">
</g>
<g style="fill:#000000; fill-opacity:0.0; 
stroke:#000000; stroke-width:59.0551; stroke-opacity:1; 
stroke-linecap:round; stroke-linejoin:round;">
<path d="M102362 4724
L102362 3937
" />
</g>
<g style="fill:#000000; fill-opacity:0.0; 
stroke:#000000; stroke-width:39.3701; stroke-opacity:1; 
stroke-linecap:round; stroke-linejoin:round;">
</g>
<g style="fill:#000000; fill-opacity:0.0; 
stroke:#000000; stroke-width:59.0551; stroke-opacity:1; 
stroke-linecap:round; stroke-linejoin:round;">
<path d="M14169 4562
L13877 4562
" />
<path d="M14023 4562
L14023 4050
L13974 4123
L13925 4172
L13877 4196
" />
</g>
<g style="fill:#000000; fill-opacity:0.0; 
stroke:#000000; stroke-width:39.3701; stroke-opacity:1; 
stroke-linecap:round; stroke-linejoin:round;">
</g>
<g style="fill:#000000; fill-opacity:0.0; 
stroke:#000000; stroke-width:59.0551; stroke-opacity:1; 
stroke-linecap:round; stroke-linejoin:round;">
<path d="M33562 4099
L33586 4074
L33635 4050
L33757 4050
L33805 4074
L33830 4099
L33854 4147
L33854 4196
L33830 4269
L33537 4562
L33854 4562
" />
</g>
<g style="fill:#000000; fill-opacity:0.0; 
stroke:#000000; stroke-width:39.3701; stroke-opacity:1; 
stroke-linecap:round; stroke-linejoin:round;">
</g>
<g style="fill:#000000; fill-opacity:0.0; 
stroke:#000000; stroke-width:59.0551; stroke-opacity:1; 
stroke-linecap:round; stroke-linejoin:round;">
<path d="M53222 4050
L53539 4050
L53368 4245
L53442 4245
L53490 4269
L53515 4294
L53539 4342
L53539 4464
L53515 4513
L53490 4537
L53442 4562
L53295 4562
L53247 4537
L53222 4513
" />
</g>
<g style="fill:#000000; fill-opacity:0.0; 
stroke:#000000; stroke-width:39.3701; stroke-opacity:1; 
stroke-linecap:round; stroke-linejoin:round;">
</g>
<g style="fill:#000000; fill-opacity:0.0; 
stroke:#000000; stroke-width:59.0551; stroke-opacity:1; 
stroke-linecap:round; stroke-linejoin:round;">
<path d="M73175 4221
L73175 4562
" />
<path d="M73053 4026
L72932 4391
L73248 4391
" />
</g>
<g style="fill:#000000; fill-opacity:0.0; 
stroke:#000000; stroke-width:39.3701; stroke-opacity:1; 
stroke-linecap:round; stroke-linejoin:round;">
</g>
<g style="fill:#000000; fill-opacity:0.0; 
stroke:#000000; stroke-width:59.0551; stroke-opacity:1; 
stroke-linecap:round; stroke-linejoin:round;">
<path d="M92885 4050
L92641 4050
L92617 4294
L92641 4269
L92690 4245
L92812 4245
L92860 4269
L92885 4294
L92909 4342
L92909 4464
L92885 4513
L92860 4537
L92812 4562
L92690 4562
L92641 4537
L92617 4513
" />
</g>
<g style="fill:#000000; fill-opacity:0.0; 
stroke:#000000; stroke-width:39.3701; stroke-opacity:1; 
stroke-linecap:round; stroke-linejoin:round;">
</g>
<g style="fill:#000000; fill-opacity:0.0; 
stroke:#000000; stroke-width:59.0551; stroke-opacity:1; 
stroke-linecap:round; stroke-linejoin:round;">
<path d="M112545 4050
L112448 4050
L112399 4074
L112375 4099
L112326 4172
L112302 4269
L112302 4464
L112326 4513
L112350 4537
L112399 4562
L112497 4562
L112545 4537
L112570 4513
L112594 4464
L112594 4342
L112570 4294
L112545 4269
L112497 4245
L112399 4245
L112350 4269
L112326 4294
L112302 4342
" />
</g>
<g style="fill:#000000; fill-opacity:0.0; 
stroke:#000000; stroke-width:39.3701; stroke-opacity:1; 
stroke-linecap:round; stroke-linejoin:round;">
</g>
<g style="fill:#000000; fill-opacity:0.0; 
stroke:#000000; stroke-width:59.0551; stroke-opacity:1; 
stroke-linecap:round; stroke-linejoin:round;">
<path d="M23622 77955
L23622 78742
" />
</g>
<g style="fill:#000000; fill-opacity:0.0; 
stroke:#000000; stroke-width:39.3701; stroke-opacity:1; 
stroke-linecap:round; stroke-linejoin:round;">
</g>
<g style="fill:#000000; fill-opacity:0.0; 
stroke:#000000; stroke-width:59.0551; stroke-opacity:1; 
stroke-linecap:round; stroke-linejoin:round;">
<path d="M43307 77955
L43307 78742
" />
</g>
<g style="fill:#000000; fill-opacity:0.0; 
stroke:#000000; stroke-width:39.3701; stroke-opacity:1; 
stroke-linecap:round; stroke-linejoin:round;">
</g>
<g style="fill:#000000; fill-opacity:0.0; 
stroke:#000000; stroke-width:59.0551; stroke-opacity:1; 
stroke-linecap:round; stroke-linejoin:round;">
<path d="M62992 77955
L62992 78742
" />
</g>
<g style="fill:#000000; fill-opacity:0.0; 
stroke:#000000; stroke-width:39.3701; stroke-opacity:1; 
stroke-linecap:round; stroke-linejoin:round;">
</g>
<g style="fill:#000000; fill-opacity:0.0; 
stroke:#000000; stroke-width:59.0551; stroke-opacity:1; 
stroke-linecap:round; stroke-linejoin:round;">
<path d="M82677 77955
L82677 78742
" />
</g>
<g style="fill:#000000; fill-opacity:0.0; 
stroke:#000000; stroke-width:39.3701; stroke-opacity:1; 
stroke-linecap:round; stroke-linejoin:round;">
</g>
<g style="fill:#000000; fill-opacity:0.0; 
stroke:#000000; stroke-width:59.0551; stroke-opacity:1; 
stroke-linecap:round; stroke-linejoin:round;">
<path d="M102362 77955
L102362 78742
" />
</g>
<g style="fill:#000000; fill-opacity:0.0; 
stroke:#000000; stroke-width:39.3701; stroke-opacity:1; 
stroke-linecap:round; stroke-linejoin:round;">
</g>
<g style="fill:#000000; fill-opacity:0.0; 
stroke:#000000; stroke-width:59.0551; stroke-opacity:1; 
stroke-linecap:round; stroke-linejoin:round;">
<path d="M14169 78580
L13877 78580
" />
<path d="M14023 78580
L14023 78069
L13974 78142
L13925 78190
L13877 78215
" />
</g>
<g style="fill:#000000; fill-opacity:0.0; 
stroke:#000000; stroke-width:39.3701; stroke-opacity:1; 
stroke-linecap:round; stroke-linejoin:round;">
</g>
<g style="fill:#000000; fill-opacity:0.0; 
stroke:#000000; stroke-width:59.0551; stroke-opacity:1; 
stroke-linecap:round; stroke-linejoin:round;">
<path d="M33562 78117
L33586 78093
L33635 78069
L33757 78069
L33805 78093
L33830 78117
L33854 78166
L33854 78215
L33830 78288
L33537 78580
L33854 78580
" />
</g>
<g style="fill:#000000; fill-opacity:0.0; 
stroke:#000000; stroke-width:39.3701; stroke-opacity:1; 
stroke-linecap:round; stroke-linejoin:round;">
</g>
<g style="fill:#000000; fill-opacity:0.0; 
stroke:#000000; stroke-width:59.0551; stroke-opacity:1; 
stroke-linecap:round; stroke-linejoin:round;">
<path d="M53222 78069
L53539 78069
L53368 78263
L53442 78263
L53490 78288
L53515 78312
L53539 78361
L53539 78483
L53515 78532
L53490 78556
L53442 78580
L53295 78580
L53247 78556
L53222 78532
" />
</g>
<g style="fill:#000000; fill-opacity:0.0; 
stroke:#000000; stroke-width:39.3701; stroke-opacity:1; 
stroke-linecap:round; stroke-linejoin:round;">
</g>
<g style="fill:#000000; fill-opacity:0.0; 
stroke:#000000; stroke-width:59.0551; stroke-opacity:1; 
stroke-linecap:round; stroke-linejoin:round;">
<path d="M73175 78239
L73175 78580
" />
<path d="M73053 78044
L72932 78410
L73248 78410
" />
</g>
<g style="fill:#000000; fill-opacity:0.0; 
stroke:#000000; stroke-width:39.3701; stroke-opacity:1; 
stroke-linecap:round; stroke-linejoin:round;">
</g>
<g style="fill:#000000; fill-opacity:0.0; 
stroke:#000000; stroke-width:59.0551; stroke-opacity:1; 
stroke-linecap:round; stroke-linejoin:round;">
<path d="M92885 78069
L92641 78069
L92617 78312
L92641 78288
L92690 78263
L92812 78263
L92860 78288
L92885 78312
L92909 78361
L92909 78483
L92885 78532
L92860 78556
L92812 78580
L92690 78580
L92641 78556
L92617 78532
" />
</g>
<g style="fill:#000000; fill-opacity:0.0; 
stroke:#000000; stroke-width:39.3701; stroke-opacity:1; 
stroke-linecap:round; stroke-linejoin:round;">
</g>
<g style="fill:#000000; fill-opacity:0.0; 
stroke:#000000; stroke-width:59.0551; stroke-opacity:1; 
stroke-linecap:round; stroke-linejoin:round;">
<path d="M112545 78069
L112448 78069
L112399 78093
L112375 78117
L112326 78190
L112302 78288
L112302 78483
L112326 78532
L112350 78556
L112399 78580
L112497 78580
L112545 78556
L112570 78532
L112594 78483
L112594 78361
L112570 78312
L112545 78288
L112497 78263
L112399 78263
L112350 78288
L112326 78312
L112302 78361
" />
</g>
<g style="fill:#000000; fill-opacity:0.0; 
stroke:#000000; stroke-width:39.3701; stroke-opacity:1; 
stroke-linecap:round; stroke-linejoin:round;">
</g>
<g style="fill:#000000; fill-opacity:0.0; 
stroke:#000000; stroke-width:59.0551; stroke-opacity:1; 
stroke-linecap:round; stroke-linejoin:round;">
<path d="M3937 23622
L4724 23622
" />
</g>
<g style="fill:#000000; fill-opacity:0.0; 
stroke:#000000; stroke-width:39.3701; stroke-opacity:1; 
stroke-linecap:round; stroke-linejoin:round;">
</g>
<g style="fill:#000000; fill-opacity:0.0; 
stroke:#000000; stroke-width:59.0551; stroke-opacity:1; 
stroke-linecap:round; stroke-linejoin:round;">
<path d="M3937 43307
L4724 43307
" />
</g>
<g style="fill:#000000; fill-opacity:0.0; 
stroke:#000000; stroke-width:39.3701; stroke-opacity:1; 
stroke-linecap:round; stroke-linejoin:round;">
</g>
<g style="fill:#000000; fill-opacity:0.0; 
stroke:#000000; stroke-width:59.0551; stroke-opacity:1; 
stroke-linecap:round; stroke-linejoin:round;">
<path d="M3937 62992
L4724 62992
" />
</g>
<g style="fill:#000000; fill-opacity:0.0; 
stroke:#000000; stroke-width:39.3701; stroke-opacity:1; 
stroke-linecap:round; stroke-linejoin:round;">
</g>
<g style="fill:#000000; fill-opacity:0.0; 
stroke:#000000; stroke-width:59.0551; stroke-opacity:1; 
stroke-linecap:round; stroke-linejoin:round;">
<path d="M4208 13864
L4452 13864
" />
<path d="M4160 14011
L4330 13499
L4501 14011
" />
</g>
<g style="fill:#000000; fill-opacity:0.0; 
stroke:#000000; stroke-width:39.3701; stroke-opacity:1; 
stroke-linecap:round; stroke-linejoin:round;">
</g>
<g style="fill:#000000; fill-opacity:0.0; 
stroke:#000000; stroke-width:59.0551; stroke-opacity:1; 
stroke-linecap:round; stroke-linejoin:round;">
<path d="M4367 33428
L4440 33452
L4464 33476
L4489 33525
L4489 33598
L4464 33647
L4440 33671
L4391 33696
L4196 33696
L4196 33184
L4367 33184
L4416 33208
L4440 33233
L4464 33281
L4464 33330
L4440 33379
L4416 33403
L4367 33428
L4196 33428
" />
</g>
<g style="fill:#000000; fill-opacity:0.0; 
stroke:#000000; stroke-width:39.3701; stroke-opacity:1; 
stroke-linecap:round; stroke-linejoin:round;">
</g>
<g style="fill:#000000; fill-opacity:0.0; 
stroke:#000000; stroke-width:59.0551; stroke-opacity:1; 
stroke-linecap:round; stroke-linejoin:round;">
<path d="M4489 53332
L4464 53356
L4391 53381
L4342 53381
L4269 53356
L4221 53308
L4196 53259
L4172 53161
L4172 53088
L4196 52991
L4221 52942
L4269 52893
L4342 52869
L4391 52869
L4464 52893
L4489 52918
" />
</g>
<g style="fill:#000000; fill-opacity:0.0; 
stroke:#000000; stroke-width:39.3701; stroke-opacity:1; 
stroke-linecap:round; stroke-linejoin:round;">
</g>
<g style="fill:#000000; fill-opacity:0.0; 
stroke:#000000; stroke-width:59.0551; stroke-opacity:1; 
stroke-linecap:round; stroke-linejoin:round;">
<path d="M4196 73066
L4196 72554
L4318 72554
L4391 72578
L4440 72627
L4464 72676
L4489 72773
L4489 72846
L4464 72944
L4440 72993
L4391 73041
L4318 73066
L4196 73066
" />
</g>
<g style="fill:#000000; fill-opacity:0.0; 
stroke:#000000; stroke-width:39.3701; stroke-opacity:1; 
stroke-linecap:round; stroke-linejoin:round;">
</g>
<g style="fill:#000000; fill-opacity:0.0; 
stroke:#000000; stroke-width:59.0551; stroke-opacity:1; 
stroke-linecap:round; stroke-linejoin:round;">
<path d="M112992 23622
L112205 23622
" />
</g>
<g style="fill:#000000; fill-opacity:0.0; 
stroke:#000000; stroke-width:39.3701; stroke-opacity:1; 
stroke-linecap:round; stroke-linejoin:round;">
</g>
<g style="fill:#000000; fill-opacity:0.0; 
stroke:#000000; stroke-width:59.0551; stroke-opacity:1; 
stroke-linecap:round; stroke-linejoin:round;">
<path d="M112992 43307
L112205 43307
" />
</g>
<g style="fill:#000000; fill-opacity:0.0; 
stroke:#000000; stroke-width:39.3701; stroke-opacity:1; 
stroke-linecap:round; stroke-linejoin:round;">
</g>
<g style="fill:#000000; fill-opacity:0.0; 
stroke:#000000; stroke-width:59.0551; stroke-opacity:1; 
stroke-linecap:round; stroke-linejoin:round;">
<path d="M112992 62992
L112205 62992
" />
</g>
<g style="fill:#000000; fill-opacity:0.0; 
stroke:#000000; stroke-width:39.3701; stroke-opacity:1; 
stroke-linecap:round; stroke-linejoin:round;">
</g>
<g style="fill:#000000; fill-opacity:0.0; 
stroke:#000000; stroke-width:59.0551; stroke-opacity:1; 
stroke-linecap:round; stroke-linejoin:round;">
<path d="M112477 13864
L112721 13864
" />
<path d="M112428 14011
L112599 13499
L112769 14011
" />
</g>
<g style="fill:#000000; fill-opacity:0.0; 
stroke:#000000; stroke-width:39.3701; stroke-opacity:1; 
stroke-linecap:round; stroke-linejoin:round;">
</g>
<g style="fill:#000000; fill-opacity:0.0; 
stroke:#000000; stroke-width:59.0551; stroke-opacity:1; 
stroke-linecap:round; stroke-linejoin:round;">
<path d="M112635 33428
L112708 33452
L112733 33476
L112757 33525
L112757 33598
L112733 33647
L112708 33671
L112660 33696
L112465 33696
L112465 33184
L112635 33184
L112684 33208
L112708 33233
L112733 33281
L112733 33330
L112708 33379
L112684 33403
L112635 33428
L112465 33428
" />
</g>
<g style="fill:#000000; fill-opacity:0.0; 
stroke:#000000; stroke-width:39.3701; stroke-opacity:1; 
stroke-linecap:round; stroke-linejoin:round;">
</g>
<g style="fill:#000000; fill-opacity:0.0; 
stroke:#000000; stroke-width:59.0551; stroke-opacity:1; 
stroke-linecap:round; stroke-linejoin:round;">
<path d="M112757 53332
L112733 53356
L112660 53381
L112611 53381
L112538 53356
L112489 53308
L112465 53259
L112440 53161
L112440 53088
L112465 52991
L112489 52942
L112538 52893
L112611 52869
L112660 52869
L112733 52893
L112757 52918
" />
</g>
<g style="fill:#000000; fill-opacity:0.0; 
stroke:#000000; stroke-width:39.3701; stroke-opacity:1; 
stroke-linecap:round; stroke-linejoin:round;">
</g>
<g style="fill:#000000; fill-opacity:0.0; 
stroke:#000000; stroke-width:59.0551; stroke-opacity:1; 
stroke-linecap:round; stroke-linejoin:round;">
<path d="M112465 73066
L112465 72554
L112587 72554
L112660 72578
L112708 72627
L112733 72676
L112757 72773
L112757 72846
L112733 72944
L112708 72993
L112660 73041
L112587 73066
L112465 73066
" />
</g>
<g style="fill:#000000; fill-opacity:0.0; 
stroke:#000000; stroke-width:39.3701; stroke-opacity:1; 
stroke-linecap:round; stroke-linejoin:round;">
</g>
<g style="fill:#000000; fill-opacity:0.0; 
stroke:#000000; stroke-width:59.0551; stroke-opacity:1; 
stroke-linecap:round; stroke-linejoin:round;">
<path d="M78881 76293
L78881 75703
L79022 75703
L79106 75731
L79162 75787
L79190 75843
L79219 75956
L79219 76040
L79190 76153
L79162 76209
L79106 76265
L79022 76293
L78881 76293
" />
<path d="M79725 76293
L79725 75984
L79697 75928
L79640 75899
L79528 75899
L79472 75928
" />
<path d="M79725 76265
L79669 76293
L79528 76293
L79472 76265
L79444 76209
L79444 76153
L79472 76096
L79528 76068
L79669 76068
L79725 76040
" />
<path d="M79922 75899
L80147 75899
" />
<path d="M80006 75703
L80006 76209
L80034 76265
L80090 76293
L80147 76293
" />
<path d="M80568 76265
L80512 76293
L80400 76293
L80343 76265
L80315 76209
L80315 75984
L80343 75928
L80400 75899
L80512 75899
L80568 75928
L80597 75984
L80597 76040
L80315 76096
" />
<path d="M80850 76237
L80878 76265
L80850 76293
L80822 76265
L80850 76237
L80850 76293
" />
<path d="M80850 75928
L80878 75956
L80850 75984
L80822 75956
L80850 75928
L80850 75984
" />
</g>
<g style="fill:#000000; fill-opacity:0.0; 
stroke:#000000; stroke-width:39.3701; stroke-opacity:1; 
stroke-linecap:round; stroke-linejoin:round;">
</g>
<g style="fill:#000000; fill-opacity:0.0; 
stroke:#000000; stroke-width:59.0551; stroke-opacity:1; 
stroke-linecap:round; stroke-linejoin:round;">
<path d="M69685 76577
L112205 76577
" />
</g>
<g style="fill:#000000; fill-opacity:0.0; 
stroke:#000000; stroke-width:39.3701; stroke-opacity:1; 
stroke-linecap:round; stroke-linejoin:round;">
</g>
<g style="fill:#000000; fill-opacity:0.0; 
stroke:#000000; stroke-width:59.0551; stroke-opacity:1; 
stroke-linecap:round; stroke-linejoin:round;">
<path d="M70220 77395
L70220 76805
" />
<path d="M70557 77395
L70304 77058
" />
<path d="M70557 76805
L70220 77142
" />
<path d="M70810 77395
L70810 77002
" />
<path d="M70810 76805
L70782 76833
L70810 76861
L70838 76833
L70810 76805
L70810 76861
" />
<path d="M71429 77339
L71401 77367
L71316 77395
L71260 77395
L71176 77367
L71120 77311
L71091 77255
L71063 77142
L71063 77058
L71091 76946
L71120 76889
L71176 76833
L71260 76805
L71316 76805
L71401 76833
L71429 76861
" />
<path d="M71935 77395
L71935 77086
L71907 77030
L71851 77002
L71738 77002
L71682 77030
" />
<path d="M71935 77367
L71879 77395
L71738 77395
L71682 77367
L71654 77311
L71654 77255
L71682 77199
L71738 77171
L71879 77171
L71935 77142
" />
<path d="M72469 77395
L72469 76805
" />
<path d="M72469 77367
L72413 77395
L72301 77395
L72244 77367
L72216 77339
L72188 77283
L72188 77114
L72216 77058
L72244 77030
L72301 77002
L72413 77002
L72469 77030
" />
<path d="M73201 77086
L73397 77086
" />
<path d="M73482 77395
L73201 77395
L73201 76805
L73482 76805
" />
<path d="M73735 77339
L73763 77367
L73735 77395
L73707 77367
L73735 77339
L73735 77395
" />
<path d="M74016 77395
L74016 76805
L74157 76805
L74241 76833
L74297 76889
L74325 76946
L74354 77058
L74354 77142
L74325 77255
L74297 77311
L74241 77367
L74157 77395
L74016 77395
" />
<path d="M74607 77339
L74635 77367
L74607 77395
L74579 77367
L74607 77339
L74607 77395
" />
<path d="M74860 77227
L75141 77227
" />
<path d="M74804 77395
L75000 76805
L75197 77395
" />
<path d="M75394 77339
L75422 77367
L75394 77395
L75366 77367
L75394 77339
L75394 77395
" />
<path d="M76575 77002
L76575 77592
" />
<path d="M76575 77030
L76631 77002
L76744 77002
L76800 77030
L76828 77058
L76856 77114
L76856 77283
L76828 77339
L76800 77367
L76744 77395
L76631 77395
L76575 77367
" />
<path d="M77363 77367
L77306 77395
L77194 77395
L77138 77367
L77109 77339
L77081 77283
L77081 77114
L77109 77058
L77138 77030
L77194 77002
L77306 77002
L77363 77030
" />
<path d="M77616 77395
L77616 76805
" />
<path d="M77616 77030
L77672 77002
L77784 77002
L77841 77030
L77869 77058
L77897 77114
L77897 77283
L77869 77339
L77841 77367
L77784 77395
L77672 77395
L77616 77367
" />
<path d="M78150 77002
L78150 77395
" />
<path d="M78150 77058
L78178 77030
L78234 77002
L78319 77002
L78375 77030
L78403 77086
L78403 77395
" />
<path d="M78909 77367
L78853 77395
L78741 77395
L78684 77367
L78656 77311
L78656 77086
L78684 77030
L78741 77002
L78853 77002
L78909 77030
L78937 77086
L78937 77142
L78656 77199
" />
<path d="M79134 77002
L79247 77395
L79359 77114
L79472 77395
L79584 77002
" />
<path d="M80428 77620
L80400 77592
L80343 77508
L80315 77452
L80287 77367
L80259 77227
L80259 77114
L80287 76974
L80315 76889
L80343 76833
L80400 76749
L80428 76721
" />
<path d="M80625 76861
L80653 76833
L80709 76805
L80850 76805
L80906 76833
L80934 76861
L80962 76917
L80962 76974
L80934 77058
L80597 77395
L80962 77395
" />
<path d="M81328 76805
L81384 76805
L81440 76833
L81468 76861
L81496 76917
L81525 77030
L81525 77171
L81496 77283
L81468 77339
L81440 77367
L81384 77395
L81328 77395
L81271 77367
L81243 77339
L81215 77283
L81187 77171
L81187 77030
L81215 76917
L81243 76861
L81271 76833
L81328 76805
" />
<path d="M82087 77395
L81750 77395
" />
<path d="M81918 77395
L81918 76805
L81862 76889
L81806 76946
L81750 76974
" />
<path d="M82593 77002
L82593 77395
" />
<path d="M82453 76777
L82312 77199
L82678 77199
" />
<path d="M82903 77171
L83352 77171
" />
<path d="M83943 77395
L83606 77395
" />
<path d="M83774 77395
L83774 76805
L83718 76889
L83662 76946
L83606 76974
" />
<path d="M84168 76861
L84196 76833
L84252 76805
L84393 76805
L84449 76833
L84477 76861
L84505 76917
L84505 76974
L84477 77058
L84140 77395
L84505 77395
" />
<path d="M84759 77171
L85208 77171
" />
<path d="M85602 76805
L85658 76805
L85715 76833
L85743 76861
L85771 76917
L85799 77030
L85799 77171
L85771 77283
L85743 77339
L85715 77367
L85658 77395
L85602 77395
L85546 77367
L85518 77339
L85490 77283
L85462 77171
L85462 77030
L85490 76917
L85518 76861
L85546 76833
L85602 76805
" />
<path d="M86136 77058
L86080 77030
L86052 77002
L86024 76946
L86024 76917
L86052 76861
L86080 76833
L86136 76805
L86249 76805
L86305 76833
L86333 76861
L86361 76917
L86361 76946
L86333 77002
L86305 77030
L86249 77058
L86136 77058
L86080 77086
L86052 77114
L86024 77171
L86024 77283
L86052 77339
L86080 77367
L86136 77395
L86249 77395
L86305 77367
L86333 77339
L86361 77283
L86361 77171
L86333 77114
L86305 77086
L86249 77058
" />
<path d="M87261 77086
L87346 77114
L87374 77142
L87402 77199
L87402 77283
L87374 77339
L87346 77367
L87289 77395
L87064 77395
L87064 76805
L87261 76805
L87318 76833
L87346 76861
L87374 76917
L87374 76974
L87346 77030
L87318 77058
L87261 77086
L87064 77086
" />
<path d="M87599 76805
L87992 76805
L87599 77395
L87992 77395
" />
<path d="M88555 77395
L88358 77114
" />
<path d="M88217 77395
L88217 76805
L88442 76805
L88499 76833
L88527 76861
L88555 76917
L88555 77002
L88527 77058
L88499 77086
L88442 77114
L88217 77114
" />
<path d="M89539 76805
L89258 76805
L89230 77086
L89258 77058
L89314 77030
L89455 77030
L89511 77058
L89539 77086
L89567 77142
L89567 77283
L89539 77339
L89511 77367
L89455 77395
L89314 77395
L89258 77367
L89230 77339
" />
<path d="M89764 76805
L90130 76805
L89933 77030
L90017 77030
L90073 77058
L90102 77086
L90130 77142
L90130 77283
L90102 77339
L90073 77367
L90017 77395
L89849 77395
L89792 77367
L89764 77339
" />
<path d="M90692 77395
L90355 77395
" />
<path d="M90523 77395
L90523 76805
L90467 76889
L90411 76946
L90355 76974
" />
<path d="M90889 76805
L91283 76805
L91030 77395
" />
<path d="M91451 77620
L91480 77592
L91536 77508
L91564 77452
L91592 77367
L91620 77227
L91620 77114
L91592 76974
L91564 76889
L91536 76833
L91480 76749
L91451 76721
" />
<path d="M91901 77171
L92351 77171
" />
<path d="M92633 77002
L92633 77592
" />
<path d="M92633 77030
L92689 77002
L92801 77002
L92858 77030
L92886 77058
L92914 77114
L92914 77283
L92886 77339
L92858 77367
L92801 77395
L92689 77395
L92633 77367
" />
<path d="M93167 77395
L93167 77002
" />
<path d="M93167 77114
L93195 77058
L93223 77030
L93279 77002
L93336 77002
" />
<path d="M93617 77395
L93561 77367
L93532 77339
L93504 77283
L93504 77114
L93532 77058
L93561 77030
L93617 77002
L93701 77002
L93757 77030
L93786 77058
L93814 77114
L93814 77283
L93786 77339
L93757 77367
L93701 77395
L93617 77395
" />
<path d="M94320 77395
L94320 76805
" />
<path d="M94320 77367
L94264 77395
L94151 77395
L94095 77367
L94067 77339
L94039 77283
L94039 77114
L94067 77058
L94095 77030
L94151 77002
L94264 77002
L94320 77030
" />
<path d="M94854 77002
L94854 77395
" />
<path d="M94601 77002
L94601 77311
L94629 77367
L94685 77395
L94770 77395
L94826 77367
L94854 77339
" />
<path d="M95388 77367
L95332 77395
L95220 77395
L95163 77367
L95135 77339
L95107 77283
L95107 77114
L95135 77058
L95163 77030
L95220 77002
L95332 77002
L95388 77030
" />
<path d="M95557 77002
L95782 77002
" />
<path d="M95642 76805
L95642 77311
L95670 77367
L95726 77395
L95782 77395
" />
</g>
<g style="fill:#000000; fill-opacity:0.0; 
stroke:#000000; stroke-width:39.3701; stroke-opacity:1; 
stroke-linecap:round; stroke-linejoin:round;">
</g>
<g style="fill:#000000; fill-opacity:0.0; 
stroke:#000000; stroke-width:59.0551; stroke-opacity:1; 
stroke-linecap:round; stroke-linejoin:round;">
<path d="M69685 75396
L112205 75396
" />
</g>
<g style="fill:#000000; fill-opacity:0.0; 
stroke:#000000; stroke-width:39.3701; stroke-opacity:1; 
stroke-linecap:round; stroke-linejoin:round;">
</g>
<g style="fill:#000000; fill-opacity:0.0; 
stroke:#000000; stroke-width:118.11; stroke-opacity:1; 
stroke-linecap:round; stroke-linejoin:round;">
<path d="M104022 76293
L103825 76012
" />
<path d="M103684 76293
L103684 75703
L103909 75703
L103965 75731
L103994 75759
L104022 75815
L104022 75899
L103994 75956
L103965 75984
L103909 76012
L103684 76012
" />
<path d="M104500 76265
L104444 76293
L104331 76293
L104275 76265
L104247 76209
L104247 75984
L104275 75928
L104331 75899
L104444 75899
L104500 75928
L104528 75984
L104528 76040
L104247 76096
" />
<path d="M104725 75899
L104865 76293
L105006 75899
" />
<path d="M105231 76237
L105259 76265
L105231 76293
L105203 76265
L105231 76237
L105231 76293
" />
<path d="M105231 75928
L105259 75956
L105231 75984
L105203 75956
L105231 75928
L105231 75984
" />
</g>
<g style="fill:#000000; fill-opacity:0.0; 
stroke:#000000; stroke-width:39.3701; stroke-opacity:1; 
stroke-linecap:round; stroke-linejoin:round;">
</g>
<g style="fill:#000000; fill-opacity:0.0; 
stroke:#000000; stroke-width:59.0551; stroke-opacity:1; 
stroke-linecap:round; stroke-linejoin:round;">
<path d="M70192 76265
L70276 76293
L70417 76293
L70473 76265
L70501 76237
L70529 76181
L70529 76124
L70501 76068
L70473 76040
L70417 76012
L70304 75984
L70248 75956
L70220 75928
L70192 75871
L70192 75815
L70220 75759
L70248 75731
L70304 75703
L70445 75703
L70529 75731
" />
<path d="M70782 76293
L70782 75899
" />
<path d="M70782 75703
L70754 75731
L70782 75759
L70810 75731
L70782 75703
L70782 75759
" />
<path d="M71007 75899
L71316 75899
L71007 76293
L71316 76293
" />
<path d="M71766 76265
L71710 76293
L71598 76293
L71541 76265
L71513 76209
L71513 75984
L71541 75928
L71598 75899
L71710 75899
L71766 75928
L71795 75984
L71795 76040
L71513 76096
" />
<path d="M72048 76237
L72076 76265
L72048 76293
L72019 76265
L72048 76237
L72048 76293
" />
<path d="M72048 75928
L72076 75956
L72048 75984
L72019 75956
L72048 75928
L72048 75984
" />
<path d="M72751 76124
L73032 76124
" />
<path d="M72694 76293
L72891 75703
L73088 76293
" />
<path d="M73538 75899
L73538 76293
" />
<path d="M73397 75674
L73257 76096
L73622 76096
" />
</g>
<g style="fill:#000000; fill-opacity:0.0; 
stroke:#000000; stroke-width:39.3701; stroke-opacity:1; 
stroke-linecap:round; stroke-linejoin:round;">
</g>
<g style="fill:#000000; fill-opacity:0.0; 
stroke:#000000; stroke-width:59.0551; stroke-opacity:1; 
stroke-linecap:round; stroke-linejoin:round;">
<path d="M103684 77395
L103684 76805
" />
<path d="M104219 77395
L104219 76805
" />
<path d="M104219 77367
L104162 77395
L104050 77395
L103994 77367
L103965 77339
L103937 77283
L103937 77114
L103965 77058
L103994 77030
L104050 77002
L104162 77002
L104219 77030
" />
<path d="M104500 77339
L104528 77367
L104500 77395
L104472 77367
L104500 77339
L104500 77395
" />
<path d="M104500 77030
L104528 77058
L104500 77086
L104472 77058
L104500 77030
L104500 77086
" />
<path d="M105540 77395
L105203 77395
" />
<path d="M105372 77395
L105372 76805
L105315 76889
L105259 76946
L105203 76974
" />
<path d="M106215 76777
L105709 77536
" />
<path d="M106721 77395
L106384 77395
" />
<path d="M106553 77395
L106553 76805
L106496 76889
L106440 76946
L106384 76974
" />
</g>
<g style="fill:#000000; fill-opacity:0.0; 
stroke:#000000; stroke-width:39.3701; stroke-opacity:1; 
stroke-linecap:round; stroke-linejoin:round;">
</g>
<g style="fill:#000000; fill-opacity:0.0; 
stroke:#000000; stroke-width:59.0551; stroke-opacity:1; 
stroke-linecap:round; stroke-linejoin:round;">
<path d="M69685 73821
L112205 73821
" />
</g>
<g style="fill:#000000; fill-opacity:0.0; 
stroke:#000000; stroke-width:39.3701; stroke-opacity:1; 
stroke-linecap:round; stroke-linejoin:round;">
</g>
<g style="fill:#000000; fill-opacity:0.0; 
stroke:#000000; stroke-width:157.48; stroke-opacity:1; 
stroke-linecap:round; stroke-linejoin:round;">
<path d="M70257 74099
L70707 74099
" />
<path d="M70384 74886
L70482 74099
" />
<path d="M70871 74886
L70937 74361
" />
<path d="M70970 74099
L70927 74136
L70960 74174
L71002 74136
L70970 74099
L70960 74174
" />
<path d="M71199 74361
L71499 74361
" />
<path d="M71345 74099
L71260 74774
L71288 74849
L71359 74886
L71434 74886
" />
<path d="M71809 74886
L71738 74849
L71710 74774
L71795 74099
" />
<path d="M72413 74849
L72334 74886
L72184 74886
L72113 74849
L72085 74774
L72123 74474
L72169 74399
L72249 74361
L72399 74361
L72469 74399
L72498 74474
L72488 74549
L72104 74624
" />
<path d="M72793 74811
L72826 74849
L72783 74886
L72751 74849
L72793 74811
L72783 74886
" />
<path d="M72844 74399
L72877 74436
L72835 74474
L72802 74436
L72844 74399
L72835 74474
" />
</g>
<g style="fill:#000000; fill-opacity:0.0; 
stroke:#000000; stroke-width:39.3701; stroke-opacity:1; 
stroke-linecap:round; stroke-linejoin:round;">
</g>
<g style="fill:#000000; fill-opacity:0.0; 
stroke:#000000; stroke-width:59.0551; stroke-opacity:1; 
stroke-linecap:round; stroke-linejoin:round;">
<path d="M70417 73070
L70220 73070
" />
<path d="M70220 73380
L70220 72789
L70501 72789
" />
<path d="M70726 73380
L70726 72986
" />
<path d="M70726 72789
L70698 72817
L70726 72845
L70754 72817
L70726 72789
L70726 72845
" />
<path d="M71091 73380
L71035 73352
L71007 73295
L71007 72789
" />
<path d="M71541 73352
L71485 73380
L71373 73380
L71316 73352
L71288 73295
L71288 73070
L71316 73014
L71373 72986
L71485 72986
L71541 73014
L71570 73070
L71570 73127
L71288 73183
" />
<path d="M71823 73323
L71851 73352
L71823 73380
L71795 73352
L71823 73323
L71823 73380
" />
<path d="M71823 73014
L71851 73042
L71823 73070
L71795 73042
L71823 73014
L71823 73070
" />
<path d="M72554 73380
L72554 72789
L72751 73211
L72947 72789
L72947 73380
" />
<path d="M73482 72986
L73482 73380
" />
<path d="M73229 72986
L73229 73295
L73257 73352
L73313 73380
L73397 73380
L73454 73352
L73482 73323
" />
<path d="M73847 73380
L73791 73352
L73763 73295
L73763 72789
" />
<path d="M73988 72986
L74213 72986
" />
<path d="M74072 72789
L74072 73295
L74100 73352
L74157 73380
L74213 73380
" />
<path d="M74410 73380
L74410 72986
" />
<path d="M74410 72789
L74382 72817
L74410 72845
L74438 72817
L74410 72789
L74410 72845
" />
<path d="M74663 73352
L74747 73380
L74888 73380
L74944 73352
L74972 73323
L75000 73267
L75000 73211
L74972 73155
L74944 73127
L74888 73099
L74775 73070
L74719 73042
L74691 73014
L74663 72958
L74663 72902
L74691 72845
L74719 72817
L74775 72789
L74916 72789
L75000 72817
" />
<path d="M75478 73352
L75422 73380
L75310 73380
L75253 73352
L75225 73295
L75225 73070
L75253 73014
L75310 72986
L75422 72986
L75478 73014
L75507 73070
L75507 73127
L75225 73183
" />
<path d="M75760 72986
L75760 73380
" />
<path d="M75760 73042
L75788 73014
L75844 72986
L75928 72986
L75985 73014
L76013 73070
L76013 73380
" />
<path d="M76266 73352
L76322 73380
L76435 73380
L76491 73352
L76519 73295
L76519 73267
L76491 73211
L76435 73183
L76350 73183
L76294 73155
L76266 73099
L76266 73070
L76294 73014
L76350 72986
L76435 72986
L76491 73014
" />
<path d="M76856 73380
L76800 73352
L76772 73323
L76744 73267
L76744 73099
L76772 73042
L76800 73014
L76856 72986
L76941 72986
L76997 73014
L77025 73042
L77053 73099
L77053 73267
L77025 73323
L76997 73352
L76941 73380
L76856 73380
" />
<path d="M77306 73380
L77306 72986
" />
<path d="M77306 73099
L77334 73042
L77363 73014
L77419 72986
L77475 72986
" />
<path d="M77644 73352
L77700 73380
L77813 73380
L77869 73352
L77897 73295
L77897 73267
L77869 73211
L77813 73183
L77728 73183
L77672 73155
L77644 73099
L77644 73070
L77672 73014
L77728 72986
L77813 72986
L77869 73014
" />
<path d="M78150 73155
L78600 73155
" />
<path d="M78881 73380
L78881 72986
" />
<path d="M78881 73099
L78909 73042
L78937 73014
L78994 72986
L79050 72986
" />
<path d="M79472 73352
L79415 73380
L79303 73380
L79247 73352
L79219 73295
L79219 73070
L79247 73014
L79303 72986
L79415 72986
L79472 73014
L79500 73070
L79500 73127
L79219 73183
" />
<path d="M79697 72986
L79837 73380
L79978 72986
" />
<path d="M80512 73380
L80175 73380
" />
<path d="M80343 73380
L80343 72789
L80287 72874
L80231 72930
L80175 72958
" />
<path d="M80765 73323
L80793 73352
L80765 73380
L80737 73352
L80765 73323
L80765 73380
" />
<path d="M81046 73380
L81046 72789
" />
<path d="M81103 73155
L81271 73380
" />
<path d="M81271 72986
L81046 73211
" />
<path d="M81525 73380
L81525 72986
" />
<path d="M81525 72789
L81496 72817
L81525 72845
L81553 72817
L81525 72789
L81525 72845
" />
<path d="M82059 73352
L82003 73380
L81890 73380
L81834 73352
L81806 73323
L81778 73267
L81778 73099
L81806 73042
L81834 73014
L81890 72986
L82003 72986
L82059 73014
" />
<path d="M82565 73380
L82565 73070
L82537 73014
L82481 72986
L82368 72986
L82312 73014
" />
<path d="M82565 73352
L82509 73380
L82368 73380
L82312 73352
L82284 73295
L82284 73239
L82312 73183
L82368 73155
L82509 73155
L82565 73127
" />
<path d="M83099 73380
L83099 72789
" />
<path d="M83099 73352
L83043 73380
L82931 73380
L82874 73352
L82846 73323
L82818 73267
L82818 73099
L82846 73042
L82874 73014
L82931 72986
L83043 72986
L83099 73014
" />
<path d="M83240 73436
L83690 73436
" />
<path d="M83831 72986
L83831 73577
" />
<path d="M83831 73014
L83887 72986
L83999 72986
L84055 73014
L84084 73042
L84112 73099
L84112 73267
L84084 73323
L84055 73352
L83999 73380
L83887 73380
L83831 73352
" />
<path d="M84618 73352
L84562 73380
L84449 73380
L84393 73352
L84365 73323
L84337 73267
L84337 73099
L84365 73042
L84393 73014
L84449 72986
L84562 72986
L84618 73014
" />
<path d="M84871 73380
L84871 72789
" />
<path d="M84871 73014
L84927 72986
L85040 72986
L85096 73014
L85124 73042
L85152 73099
L85152 73267
L85124 73323
L85096 73352
L85040 73380
L84927 73380
L84871 73352
" />
</g>
<g style="fill:#000000; fill-opacity:0.0; 
stroke:#000000; stroke-width:39.3701; stroke-opacity:1; 
stroke-linecap:round; stroke-linejoin:round;">
</g>
<g style="fill:#000000; fill-opacity:0.0; 
stroke:#000000; stroke-width:59.0551; stroke-opacity:1; 
stroke-linecap:round; stroke-linejoin:round;">
<path d="M69685 71459
L112205 71459
" />
</g>
<g style="fill:#000000; fill-opacity:0.0; 
stroke:#000000; stroke-width:39.3701; stroke-opacity:1; 
stroke-linecap:round; stroke-linejoin:round;">
</g>
<g style="fill:#000000; fill-opacity:0.0; 
stroke:#000000; stroke-width:59.0551; stroke-opacity:1; 
stroke-linecap:round; stroke-linejoin:round;">
<path d="M70192 72289
L70276 72317
L70417 72317
L70473 72289
L70501 72260
L70529 72204
L70529 72148
L70501 72092
L70473 72064
L70417 72036
L70304 72007
L70248 71979
L70220 71951
L70192 71895
L70192 71839
L70220 71782
L70248 71754
L70304 71726
L70445 71726
L70529 71754
" />
<path d="M70782 72317
L70782 71726
" />
<path d="M71035 72317
L71035 72007
L71007 71951
L70951 71923
L70867 71923
L70810 71951
L70782 71979
" />
<path d="M71541 72289
L71485 72317
L71373 72317
L71316 72289
L71288 72232
L71288 72007
L71316 71951
L71373 71923
L71485 71923
L71541 71951
L71570 72007
L71570 72064
L71288 72120
" />
<path d="M72048 72289
L71991 72317
L71879 72317
L71823 72289
L71795 72232
L71795 72007
L71823 71951
L71879 71923
L71991 71923
L72048 71951
L72076 72007
L72076 72064
L71795 72120
" />
<path d="M72244 71923
L72469 71923
" />
<path d="M72329 71726
L72329 72232
L72357 72289
L72413 72317
L72469 72317
" />
<path d="M72666 72260
L72694 72289
L72666 72317
L72638 72289
L72666 72260
L72666 72317
" />
<path d="M72666 71951
L72694 71979
L72666 72007
L72638 71979
L72666 71951
L72666 72007
" />
</g>
<g style="fill:#000000; fill-opacity:0.0; 
stroke:#000000; stroke-width:39.3701; stroke-opacity:1; 
stroke-linecap:round; stroke-linejoin:round;">
</g>
<g style="fill:#000000; fill-opacity:0.0; 
stroke:#000000; stroke-width:59.0551; stroke-opacity:1; 
stroke-linecap:round; stroke-linejoin:round;">
<path d="M77559 75396
L77559 76577
" />
</g>
<g style="fill:#000000; fill-opacity:0.0; 
stroke:#000000; stroke-width:39.3701; stroke-opacity:1; 
stroke-linecap:round; stroke-linejoin:round;">
</g>
<g style="fill:#000000; fill-opacity:0.0; 
stroke:#000000; stroke-width:59.0551; stroke-opacity:1; 
stroke-linecap:round; stroke-linejoin:round;">
<path d="M102756 75396
L102756 77955
" />
</g>
<g style="fill:#C2C200; fill-opacity:0.0; 
stroke:#C2C200; stroke-width:39.3701; stroke-opacity:1; 
stroke-linecap:round; stroke-linejoin:round;">
<circle cx="73750" cy="27650" r="656.168" /> 
<path d="M72765 27650
L74734 27650
" />
<path d="M73750 26665
L73750 28634
" />
<circle cx="66925" cy="20975" r="656.168" /> 
<path d="M65940 20975
L67909 20975
" />
<path d="M66925 19990
L66925 21959
" />
<circle cx="35500" cy="45125" r="656.168" /> 
<path d="M34515 45125
L36484 45125
" />
<path d="M35500 44140
L35500 46109
" />
<path d="M37575 44400
L37575 22700
" />
<path d="M65425 44400
L37575 44400
" />
<path d="M65425 22700
L65425 44400
" />
<path d="M37575 22700
L65425 22700
" />
<path d="M65360 22700
L65365 22700
" />
</g>
<g style="fill:#840084; fill-opacity:0.0; 
stroke:#840084; stroke-width:59.0551; stroke-opacity:1; 
stroke-linecap:round; stroke-linejoin:round;">
<path d="M59640 32534
L59659 32515
L59678 32459
L59678 32421
L59659 32365
L59621 32328
L59584 32309
L59509 32290
L59453 32290
L59378 32309
L59340 32328
L59303 32365
L59284 32421
L59284 32459
L59303 32515
L59321 32534
" />
<path d="M59678 32909
L59678 32684
" />
<path d="M59678 32796
L59284 32796
L59340 32759
L59378 32721
L59396 32684
" />
<path d="M58365 27140
L58384 27159
L58440 27178
L58478 27178
L58534 27159
L58571 27121
L58590 27084
L58609 27009
L58609 26953
L58590 26878
L58571 26840
L58534 26803
L58478 26784
L58440 26784
L58384 26803
L58365 26821
" />
<path d="M58215 26821
L58196 26803
L58159 26784
L58065 26784
L58028 26803
L58009 26821
L57990 26859
L57990 26896
L58009 26953
L58234 27178
L57990 27178
" />
<path d="M60265 36740
L60284 36759
L60340 36778
L60378 36778
L60434 36759
L60471 36721
L60490 36684
L60509 36609
L60509 36553
L60490 36478
L60471 36440
L60434 36403
L60378 36384
L60340 36384
L60284 36403
L60265 36421
" />
<path d="M60134 36384
L59890 36384
L60021 36534
L59965 36534
L59928 36553
L59909 36571
L59890 36609
L59890 36703
L59909 36740
L59928 36759
L59965 36778
L60078 36778
L60115 36759
L60134 36740
" />
<path d="M41815 27190
L41834 27209
L41890 27228
L41928 27228
L41984 27209
L42021 27171
L42040 27134
L42059 27059
L42059 27003
L42040 26928
L42021 26890
L41984 26853
L41928 26834
L41890 26834
L41834 26853
L41815 26871
" />
<path d="M41478 26965
L41478 27228
" />
<path d="M41571 26815
L41665 27096
L41421 27096
" />
<path d="M39553 27228
L39778 27228
" />
<path d="M39665 27228
L39665 26834
L39703 26890
L39740 26928
L39778 26946
" />
<path d="M39309 26834
L39271 26834
L39234 26853
L39215 26871
L39196 26909
L39178 26984
L39178 27078
L39196 27153
L39215 27190
L39234 27209
L39271 27228
L39309 27228
L39346 27209
L39365 27190
L39384 27153
L39403 27078
L39403 26984
L39384 26909
L39365 26871
L39346 26853
L39309 26834
" />
<path d="M39009 26965
L39009 27228
" />
<path d="M39009 27003
L38990 26984
L38953 26965
L38896 26965
L38859 26984
L38840 27021
L38840 27228
" />
<path d="M50215 36490
L50234 36509
L50290 36528
L50328 36528
L50384 36509
L50421 36471
L50440 36434
L50459 36359
L50459 36303
L50440 36228
L50421 36190
L50384 36153
L50328 36134
L50290 36134
L50234 36153
L50215 36171
" />
<path d="M49859 36134
L50046 36134
L50065 36321
L50046 36303
L50009 36284
L49915 36284
L49878 36303
L49859 36321
L49840 36359
L49840 36453
L49859 36490
L49878 36509
L49915 36528
L50009 36528
L50046 36509
L50065 36490
" />
<path d="M49940 38578
L50165 38578
" />
<path d="M50053 38578
L50053 38184
L50090 38240
L50128 38278
L50165 38296
" />
<path d="M49696 38184
L49659 38184
L49621 38203
L49603 38221
L49584 38259
L49565 38334
L49565 38428
L49584 38503
L49603 38540
L49621 38559
L49659 38578
L49696 38578
L49734 38559
L49753 38540
L49771 38503
L49790 38428
L49790 38334
L49771 38259
L49753 38221
L49734 38203
L49696 38184
" />
<path d="M49321 38184
L49284 38184
L49246 38203
L49228 38221
L49209 38259
L49190 38334
L49190 38428
L49209 38503
L49228 38540
L49246 38559
L49284 38578
L49321 38578
L49359 38559
L49378 38540
L49396 38503
L49415 38428
L49415 38334
L49396 38259
L49378 38221
L49359 38203
L49321 38184
" />
<path d="M49021 38315
L49021 38578
" />
<path d="M49021 38353
L49003 38334
L48965 38315
L48909 38315
L48871 38334
L48853 38371
L48853 38578
" />
<path d="M59290 42578
L59290 42184
L59196 42184
L59140 42203
L59103 42240
L59084 42278
L59065 42353
L59065 42409
L59084 42484
L59103 42521
L59140 42559
L59196 42578
L59290 42578
" />
<path d="M58728 42315
L58728 42578
" />
<path d="M58821 42165
L58915 42446
L58671 42446
" />
<path d="M58090 42528
L58090 42134
L57996 42134
L57940 42153
L57903 42190
L57884 42228
L57865 42303
L57865 42359
L57884 42434
L57903 42471
L57940 42509
L57996 42528
L58090 42528
" />
<path d="M57509 42134
L57696 42134
L57715 42321
L57696 42303
L57659 42284
L57565 42284
L57528 42303
L57509 42321
L57490 42359
L57490 42453
L57509 42490
L57528 42509
L57565 42528
L57659 42528
L57696 42509
L57715 42490
" />
<path d="M56340 42528
L56340 42134
L56246 42134
L56190 42153
L56153 42190
L56134 42228
L56115 42303
L56115 42359
L56134 42434
L56153 42471
L56190 42509
L56246 42528
L56340 42528
" />
<path d="M55778 42134
L55853 42134
L55890 42153
L55909 42171
L55946 42228
L55965 42303
L55965 42453
L55946 42490
L55928 42509
L55890 42528
L55815 42528
L55778 42509
L55759 42490
L55740 42453
L55740 42359
L55759 42321
L55778 42303
L55815 42284
L55890 42284
L55928 42303
L55946 42321
L55965 42359
" />
<path d="M53714 36808
L53714 36414
" />
<path d="M53301 36770
L53320 36789
L53376 36808
L53414 36808
L53470 36789
L53508 36751
L53526 36714
L53545 36639
L53545 36583
L53526 36508
L53508 36470
L53470 36433
L53414 36414
L53376 36414
L53320 36433
L53301 36451
" />
<path d="M52926 36808
L53151 36808
" />
<path d="M53039 36808
L53039 36414
L53076 36470
L53114 36508
L53151 36526
" />
<path d="M52799 37328
L52799 36934
L52668 37215
L52537 36934
L52537 37328
" />
<path d="M52368 37215
L52181 37215
" />
<path d="M52406 37328
L52274 36934
L52143 37328
" />
<path d="M52049 36934
L51787 37328
" />
<path d="M51787 36934
L52049 37328
" />
<path d="M51468 37065
L51468 37328
" />
<path d="M51562 36915
L51656 37196
L51412 37196
" />
<path d="M51206 37103
L51243 37084
L51262 37065
L51281 37028
L51281 37009
L51262 36971
L51243 36953
L51206 36934
L51131 36934
L51093 36953
L51075 36971
L51056 37009
L51056 37028
L51075 37065
L51093 37084
L51131 37103
L51206 37103
L51243 37121
L51262 37140
L51281 37178
L51281 37253
L51262 37290
L51243 37309
L51206 37328
L51131 37328
L51093 37309
L51075 37290
L51056 37253
L51056 37178
L51075 37140
L51093 37121
L51131 37103
" />
<path d="M50925 36934
L50662 36934
L50831 37328
" />
</g>
<g style="fill:#840084; fill-opacity:0.0; 
stroke:#840084; stroke-width:120; stroke-opacity:1; 
stroke-linecap:round; stroke-linejoin:round;">
<path d="M45821 30664
L45221 30664
" />
<path d="M45764 31292
L45792 31264
L45821 31178
L45821 31121
L45792 31035
L45735 30978
L45678 30950
L45564 30921
L45478 30921
L45364 30950
L45307 30978
L45250 31035
L45221 31121
L45221 31178
L45250 31264
L45278 31292
" />
<path d="M45278 31521
L45250 31550
L45221 31607
L45221 31750
L45250 31807
L45278 31835
L45335 31864
L45392 31864
L45478 31835
L45821 31492
L45821 31864
" />
</g>
<g style="fill:#840084; fill-opacity:0.0; 
stroke:#840084; stroke-width:59.0551; stroke-opacity:1; 
stroke-linecap:round; stroke-linejoin:round;">
<path d="M64815 31378
L64946 31190
" />
<path d="M65040 31378
L65040 30984
L64890 30984
L64853 31003
L64834 31021
L64815 31059
L64815 31115
L64834 31153
L64853 31171
L64890 31190
L65040 31190
" />
<path d="M64440 31378
L64665 31378
" />
<path d="M64553 31378
L64553 30984
L64590 31040
L64628 31078
L64665 31096
" />
<path d="M65059 31878
L65059 31484
L64834 31878
L64834 31484
" />
<path d="M64421 31840
L64440 31859
L64496 31878
L64534 31878
L64590 31859
L64628 31821
L64646 31784
L64665 31709
L64665 31653
L64646 31578
L64628 31540
L64590 31503
L64534 31484
L64496 31484
L64440 31503
L64421 31521
" />
<path d="M64615 35328
L64746 35140
" />
<path d="M64840 35328
L64840 34934
L64690 34934
L64653 34953
L64634 34971
L64615 35009
L64615 35065
L64634 35103
L64653 35121
L64690 35140
L64840 35140
" />
<path d="M64465 34971
L64446 34953
L64409 34934
L64315 34934
L64278 34953
L64259 34971
L64240 35009
L64240 35046
L64259 35103
L64484 35328
L64240 35328
" />
<path d="M63971 34651
L64196 34651
" />
<path d="M64084 34651
L64084 34257
L64121 34313
L64159 34351
L64196 34370
" />
<path d="M63728 34257
L63690 34257
L63653 34276
L63634 34295
L63615 34332
L63596 34407
L63596 34501
L63615 34576
L63634 34613
L63653 34632
L63690 34651
L63728 34651
L63765 34632
L63784 34613
L63803 34576
L63821 34501
L63821 34407
L63803 34332
L63784 34295
L63765 34276
L63728 34257
" />
<path d="M63353 34257
L63315 34257
L63278 34276
L63259 34295
L63240 34332
L63221 34407
L63221 34501
L63240 34576
L63259 34613
L63278 34632
L63315 34651
L63353 34651
L63390 34632
L63409 34613
L63428 34576
L63446 34501
L63446 34407
L63428 34332
L63409 34295
L63390 34276
L63353 34257
" />
<path d="M63053 34651
L63053 34257
" />
<path d="M63015 34501
L62903 34651
" />
<path d="M62903 34388
L63053 34538
" />
<path d="M63765 38428
L63896 38240
" />
<path d="M63990 38428
L63990 38034
L63840 38034
L63803 38053
L63784 38071
L63765 38109
L63765 38165
L63784 38203
L63803 38221
L63840 38240
L63990 38240
" />
<path d="M63634 38034
L63390 38034
L63521 38184
L63465 38184
L63428 38203
L63409 38221
L63390 38259
L63390 38353
L63409 38390
L63428 38409
L63465 38428
L63578 38428
L63615 38409
L63634 38390
" />
<path d="M62064 37374
L62064 37411
L62083 37449
L62101 37468
L62139 37486
L62214 37505
L62308 37505
L62383 37486
L62420 37468
L62439 37449
L62458 37411
L62458 37374
L62439 37336
L62420 37318
L62383 37299
L62308 37280
L62214 37280
L62139 37299
L62101 37318
L62083 37336
L62064 37374
" />
<path d="M62458 37899
L62270 37768
" />
<path d="M62458 37674
L62064 37674
L62064 37824
L62083 37861
L62101 37880
L62139 37899
L62195 37899
L62233 37880
L62251 37861
L62270 37824
L62270 37674
" />
<path d="M64115 36228
L64246 36040
" />
<path d="M64340 36228
L64340 35834
L64190 35834
L64153 35853
L64134 35871
L64115 35909
L64115 35965
L64134 36003
L64153 36021
L64190 36040
L64340 36040
" />
<path d="M63778 35965
L63778 36228
" />
<path d="M63871 35815
L63965 36096
L63721 36096
" />
<path d="M64696 36371
L64678 36353
L64640 36334
L64546 36334
L64509 36353
L64490 36371
L64471 36409
L64471 36446
L64490 36503
L64715 36728
L64471 36728
" />
<path d="M64321 36371
L64303 36353
L64265 36334
L64171 36334
L64134 36353
L64115 36371
L64096 36409
L64096 36446
L64115 36503
L64340 36728
L64096 36728
" />
<path d="M63703 36728
L63834 36540
" />
<path d="M63928 36728
L63928 36334
L63778 36334
L63740 36353
L63721 36371
L63703 36409
L63703 36465
L63721 36503
L63740 36521
L63778 36540
L63928 36540
" />
<path d="M62715 30178
L62846 29990
" />
<path d="M62940 30178
L62940 29784
L62790 29784
L62753 29803
L62734 29821
L62715 29859
L62715 29915
L62734 29953
L62753 29971
L62790 29990
L62940 29990
" />
<path d="M62359 29784
L62546 29784
L62565 29971
L62546 29953
L62509 29934
L62415 29934
L62378 29953
L62359 29971
L62340 30009
L62340 30103
L62359 30140
L62378 30159
L62415 30178
L62509 30178
L62546 30159
L62565 30140
" />
<path d="M63771 31528
L63996 31528
" />
<path d="M63884 31528
L63884 31134
L63921 31190
L63959 31228
L63996 31246
" />
<path d="M63528 31134
L63490 31134
L63453 31153
L63434 31171
L63415 31209
L63396 31284
L63396 31378
L63415 31453
L63434 31490
L63453 31509
L63490 31528
L63528 31528
L63565 31509
L63584 31490
L63603 31453
L63621 31378
L63621 31284
L63603 31209
L63584 31171
L63565 31153
L63528 31134
" />
<path d="M63153 31134
L63115 31134
L63078 31153
L63059 31171
L63040 31209
L63021 31284
L63021 31378
L63040 31453
L63059 31490
L63078 31509
L63115 31528
L63153 31528
L63190 31509
L63209 31490
L63228 31453
L63246 31378
L63246 31284
L63228 31209
L63209 31171
L63190 31153
L63153 31134
" />
<path d="M62853 31528
L62853 31134
" />
<path d="M62815 31378
L62703 31528
" />
<path d="M62703 31265
L62853 31415
" />
<path d="M64565 25428
L64696 25240
" />
<path d="M64790 25428
L64790 25034
L64640 25034
L64603 25053
L64584 25071
L64565 25109
L64565 25165
L64584 25203
L64603 25221
L64640 25240
L64790 25240
" />
<path d="M64228 25034
L64303 25034
L64340 25053
L64359 25071
L64396 25128
L64415 25203
L64415 25353
L64396 25390
L64378 25409
L64340 25428
L64265 25428
L64228 25409
L64209 25390
L64190 25353
L64190 25259
L64209 25221
L64228 25203
L64265 25184
L64340 25184
L64378 25203
L64396 25221
L64415 25259
" />
<path d="M64809 25928
L64809 25534
L64584 25928
L64584 25534
" />
<path d="M64171 25890
L64190 25909
L64246 25928
L64284 25928
L64340 25909
L64378 25871
L64396 25834
L64415 25759
L64415 25703
L64396 25628
L64378 25590
L64340 25553
L64284 25534
L64246 25534
L64190 25553
L64171 25571
" />
<path d="M62465 28278
L62596 28090
" />
<path d="M62690 28278
L62690 27884
L62540 27884
L62503 27903
L62484 27921
L62465 27959
L62465 28015
L62484 28053
L62503 28071
L62540 28090
L62690 28090
" />
<path d="M62334 27884
L62071 27884
L62240 28278
" />
<path d="M62521 27028
L62746 27028
" />
<path d="M62634 27028
L62634 26634
L62671 26690
L62709 26728
L62746 26746
" />
<path d="M62278 26634
L62240 26634
L62203 26653
L62184 26671
L62165 26709
L62146 26784
L62146 26878
L62165 26953
L62184 26990
L62203 27009
L62240 27028
L62278 27028
L62315 27009
L62334 26990
L62353 26953
L62371 26878
L62371 26784
L62353 26709
L62334 26671
L62315 26653
L62278 26634
" />
<path d="M61903 26634
L61865 26634
L61828 26653
L61809 26671
L61790 26709
L61771 26784
L61771 26878
L61790 26953
L61809 26990
L61828 27009
L61865 27028
L61903 27028
L61940 27009
L61959 26990
L61978 26953
L61996 26878
L61996 26784
L61978 26709
L61959 26671
L61940 26653
L61903 26634
" />
<path d="M61603 27028
L61603 26634
" />
<path d="M61565 26878
L61453 27028
" />
<path d="M61453 26765
L61603 26915
" />
<path d="M61015 30178
L61146 29990
" />
<path d="M61240 30178
L61240 29784
L61090 29784
L61053 29803
L61034 29821
L61015 29859
L61015 29915
L61034 29953
L61053 29971
L61090 29990
L61240 29990
" />
<path d="M60790 29953
L60828 29934
L60846 29915
L60865 29878
L60865 29859
L60846 29821
L60828 29803
L60790 29784
L60715 29784
L60678 29803
L60659 29821
L60640 29859
L60640 29878
L60659 29915
L60678 29934
L60715 29953
L60790 29953
L60828 29971
L60846 29990
L60865 30028
L60865 30103
L60846 30140
L60828 30159
L60790 30178
L60715 30178
L60678 30159
L60659 30140
L60640 30103
L60640 30028
L60659 29990
L60678 29971
L60715 29953
" />
<path d="M61165 30284
L61128 30284
L61090 30303
L61071 30321
L61053 30359
L61034 30434
L61034 30528
L61053 30603
L61071 30640
L61090 30659
L61128 30678
L61165 30678
L61203 30659
L61221 30640
L61240 30603
L61259 30528
L61259 30434
L61240 30359
L61221 30321
L61203 30303
L61165 30284
" />
<path d="M60640 30678
L60771 30490
" />
<path d="M60865 30678
L60865 30284
L60715 30284
L60678 30303
L60659 30321
L60640 30359
L60640 30415
L60659 30453
L60678 30471
L60715 30490
L60865 30490
" />
<path d="M58365 28978
L58496 28790
" />
<path d="M58590 28978
L58590 28584
L58440 28584
L58403 28603
L58384 28621
L58365 28659
L58365 28715
L58384 28753
L58403 28771
L58440 28790
L58590 28790
" />
<path d="M58178 28978
L58103 28978
L58065 28959
L58046 28940
L58009 28884
L57990 28809
L57990 28659
L58009 28621
L58028 28603
L58065 28584
L58140 28584
L58178 28603
L58196 28621
L58215 28659
L58215 28753
L58196 28790
L58178 28809
L58140 28828
L58065 28828
L58028 28809
L58009 28790
L57990 28753
" />
<path d="M58846 29971
L58828 29953
L58790 29934
L58696 29934
L58659 29953
L58640 29971
L58621 30009
L58621 30046
L58640 30103
L58865 30328
L58621 30328
" />
<path d="M58471 29971
L58453 29953
L58415 29934
L58321 29934
L58284 29953
L58265 29971
L58246 30009
L58246 30046
L58265 30103
L58490 30328
L58246 30328
" />
<path d="M57853 30328
L57984 30140
" />
<path d="M58078 30328
L58078 29934
L57928 29934
L57890 29953
L57871 29971
L57853 30009
L57853 30065
L57871 30103
L57890 30121
L57928 30140
L58078 30140
" />
<path d="M61003 25128
L61134 24940
" />
<path d="M61228 25128
L61228 24734
L61078 24734
L61040 24753
L61021 24771
L61003 24809
L61003 24865
L61021 24903
L61040 24921
L61078 24940
L61228 24940
" />
<path d="M60628 25128
L60853 25128
" />
<path d="M60740 25128
L60740 24734
L60778 24790
L60815 24828
L60853 24846
" />
<path d="M60384 24734
L60346 24734
L60309 24753
L60290 24771
L60271 24809
L60253 24884
L60253 24978
L60271 25053
L60290 25090
L60309 25109
L60346 25128
L60384 25128
L60421 25109
L60440 25090
L60459 25053
L60478 24978
L60478 24884
L60459 24809
L60440 24771
L60421 24753
L60384 24734
" />
<path d="M62271 26328
L62496 26328
" />
<path d="M62384 26328
L62384 25934
L62421 25990
L62459 26028
L62496 26046
" />
<path d="M62028 25934
L61990 25934
L61953 25953
L61934 25971
L61915 26009
L61896 26084
L61896 26178
L61915 26253
L61934 26290
L61953 26309
L61990 26328
L62028 26328
L62065 26309
L62084 26290
L62103 26253
L62121 26178
L62121 26084
L62103 26009
L62084 25971
L62065 25953
L62028 25934
" />
<path d="M61653 25934
L61615 25934
L61578 25953
L61559 25971
L61540 26009
L61521 26084
L61521 26178
L61540 26253
L61559 26290
L61578 26309
L61615 26328
L61653 26328
L61690 26309
L61709 26290
L61728 26253
L61746 26178
L61746 26084
L61728 26009
L61709 25971
L61690 25953
L61653 25934
" />
<path d="M61353 26328
L61353 25934
" />
<path d="M61315 26178
L61203 26328
" />
<path d="M61203 26065
L61353 26215
" />
<path d="M45853 38928
L45984 38740
" />
<path d="M46078 38928
L46078 38534
L45928 38534
L45890 38553
L45871 38571
L45853 38609
L45853 38665
L45871 38703
L45890 38721
L45928 38740
L46078 38740
" />
<path d="M45478 38928
L45703 38928
" />
<path d="M45590 38928
L45590 38534
L45628 38590
L45665 38628
L45703 38646
" />
<path d="M45103 38928
L45328 38928
" />
<path d="M45215 38928
L45215 38534
L45253 38590
L45290 38628
L45328 38646
" />
<path d="M46409 39428
L46334 39428
L46296 39409
L46278 39390
L46240 39334
L46221 39259
L46221 39109
L46240 39071
L46259 39053
L46296 39034
L46371 39034
L46409 39053
L46428 39071
L46446 39109
L46446 39203
L46428 39240
L46409 39259
L46371 39278
L46296 39278
L46259 39259
L46240 39240
L46221 39203
" />
<path d="M46090 39034
L45828 39034
L45996 39428
" />
<path d="M45509 39034
L45584 39034
L45621 39053
L45640 39071
L45678 39128
L45696 39203
L45696 39353
L45678 39390
L45659 39409
L45621 39428
L45546 39428
L45509 39409
L45490 39390
L45471 39353
L45471 39259
L45490 39221
L45509 39203
L45546 39184
L45621 39184
L45659 39203
L45678 39221
L45696 39259
" />
<path d="M45303 39428
L45303 39034
" />
<path d="M45265 39278
L45153 39428
" />
<path d="M45153 39165
L45303 39315
" />
<path d="M61703 36428
L61834 36240
" />
<path d="M61928 36428
L61928 36034
L61778 36034
L61740 36053
L61721 36071
L61703 36109
L61703 36165
L61721 36203
L61740 36221
L61778 36240
L61928 36240
" />
<path d="M61328 36428
L61553 36428
" />
<path d="M61440 36428
L61440 36034
L61478 36090
L61515 36128
L61553 36146
" />
<path d="M61178 36071
L61159 36053
L61121 36034
L61028 36034
L60990 36053
L60971 36071
L60953 36109
L60953 36146
L60971 36203
L61196 36428
L60953 36428
" />
<path d="M61146 37728
L61371 37728
" />
<path d="M61259 37728
L61259 37334
L61296 37390
L61334 37428
L61371 37446
" />
<path d="M60978 37728
L60978 37334
" />
<path d="M60940 37578
L60828 37728
" />
<path d="M60828 37465
L60978 37615
" />
<path d="M58853 30928
L58984 30740
" />
<path d="M59078 30928
L59078 30534
L58928 30534
L58890 30553
L58871 30571
L58853 30609
L58853 30665
L58871 30703
L58890 30721
L58928 30740
L59078 30740
" />
<path d="M58478 30928
L58703 30928
" />
<path d="M58590 30928
L58590 30534
L58628 30590
L58665 30628
L58703 30646
" />
<path d="M58346 30534
L58103 30534
L58234 30684
L58178 30684
L58140 30703
L58121 30721
L58103 30759
L58103 30853
L58121 30890
L58140 30909
L58178 30928
L58290 30928
L58328 30909
L58346 30890
" />
<path d="M58896 31428
L59121 31428
" />
<path d="M59009 31428
L59009 31034
L59046 31090
L59084 31128
L59121 31146
" />
<path d="M58728 31428
L58728 31034
" />
<path d="M58690 31278
L58578 31428
" />
<path d="M58578 31165
L58728 31315
" />
<path d="M55103 29701
L55234 29513
" />
<path d="M55328 29701
L55328 29307
L55178 29307
L55140 29326
L55121 29345
L55103 29382
L55103 29438
L55121 29476
L55140 29495
L55178 29513
L55328 29513
" />
<path d="M54728 29701
L54953 29701
" />
<path d="M54840 29701
L54840 29307
L54878 29363
L54915 29401
L54953 29420
" />
<path d="M54390 29438
L54390 29701
" />
<path d="M54484 29288
L54578 29570
L54334 29570
" />
<path d="M55346 31092
L55346 31354
" />
<path d="M55440 30942
L55534 31223
L55290 31223
" />
<path d="M55178 30961
L54915 30961
L55084 31354
" />
<path d="M54690 30961
L54653 30961
L54615 30979
L54596 30998
L54578 31036
L54559 31111
L54559 31204
L54578 31279
L54596 31317
L54615 31336
L54653 31354
L54690 31354
L54728 31336
L54746 31317
L54765 31279
L54784 31204
L54784 31111
L54765 31036
L54746 30998
L54728 30979
L54690 30961
" />
<path d="M54165 31354
L54296 31167
" />
<path d="M54390 31354
L54390 30961
L54240 30961
L54203 30979
L54184 30998
L54165 31036
L54165 31092
L54184 31129
L54203 31148
L54240 31167
L54390 31167
" />
<path d="M56403 27578
L56534 27390
" />
<path d="M56628 27578
L56628 27184
L56478 27184
L56440 27203
L56421 27221
L56403 27259
L56403 27315
L56421 27353
L56440 27371
L56478 27390
L56628 27390
" />
<path d="M56028 27578
L56253 27578
" />
<path d="M56140 27578
L56140 27184
L56178 27240
L56215 27278
L56253 27296
" />
<path d="M55671 27184
L55859 27184
L55878 27371
L55859 27353
L55821 27334
L55728 27334
L55690 27353
L55671 27371
L55653 27409
L55653 27503
L55671 27540
L55690 27559
L55728 27578
L55821 27578
L55859 27559
L55878 27540
" />
<path d="M57396 28278
L57621 28278
" />
<path d="M57509 28278
L57509 27884
L57546 27940
L57584 27978
L57621 27996
" />
<path d="M57228 28278
L57228 27884
" />
<path d="M57190 28128
L57078 28278
" />
<path d="M57078 28015
L57228 28165
" />
<path d="M47978 43196
L47790 43065
" />
<path d="M47978 42971
L47584 42971
L47584 43121
L47603 43159
L47621 43178
L47659 43196
L47715 43196
L47753 43178
L47771 43159
L47790 43121
L47790 42971
" />
<path d="M47978 43571
L47978 43346
" />
<path d="M47978 43459
L47584 43459
L47640 43421
L47678 43384
L47696 43346
" />
<path d="M47584 43909
L47584 43834
L47603 43796
L47621 43778
L47678 43740
L47753 43721
L47903 43721
L47940 43740
L47959 43759
L47978 43796
L47978 43871
L47959 43909
L47940 43928
L47903 43946
L47809 43946
L47771 43928
L47753 43909
L47734 43871
L47734 43796
L47753 43759
L47771 43740
L47809 43721
" />
<path d="M46871 42928
L47096 42928
" />
<path d="M46984 42928
L46984 42534
L47021 42590
L47059 42628
L47096 42646
" />
<path d="M46628 42534
L46590 42534
L46553 42553
L46534 42571
L46515 42609
L46496 42684
L46496 42778
L46515 42853
L46534 42890
L46553 42909
L46590 42928
L46628 42928
L46665 42909
L46684 42890
L46703 42853
L46721 42778
L46721 42684
L46703 42609
L46684 42571
L46665 42553
L46628 42534
" />
<path d="M46253 42534
L46215 42534
L46178 42553
L46159 42571
L46140 42609
L46121 42684
L46121 42778
L46140 42853
L46159 42890
L46178 42909
L46215 42928
L46253 42928
L46290 42909
L46309 42890
L46328 42853
L46346 42778
L46346 42684
L46328 42609
L46309 42571
L46290 42553
L46253 42534
" />
<path d="M45953 42928
L45953 42534
" />
<path d="M45915 42778
L45803 42928
" />
<path d="M45803 42665
L45953 42815
" />
<path d="M57753 44028
L57884 43840
" />
<path d="M57978 44028
L57978 43634
L57828 43634
L57790 43653
L57771 43671
L57753 43709
L57753 43765
L57771 43803
L57790 43821
L57828 43840
L57978 43840
" />
<path d="M57378 44028
L57603 44028
" />
<path d="M57490 44028
L57490 43634
L57528 43690
L57565 43728
L57603 43746
" />
<path d="M57246 43634
L56984 43634
L57153 44028
" />
<path d="M56303 43634
L56490 43634
L56509 43821
L56490 43803
L56453 43784
L56359 43784
L56321 43803
L56303 43821
L56284 43859
L56284 43953
L56303 43990
L56321 44009
L56359 44028
L56453 44028
L56490 44009
L56509 43990
" />
<path d="M56040 43634
L56003 43634
L55965 43653
L55946 43671
L55928 43709
L55909 43784
L55909 43878
L55928 43953
L55946 43990
L55965 44009
L56003 44028
L56040 44028
L56078 44009
L56096 43990
L56115 43953
L56134 43878
L56134 43784
L56115 43709
L56096 43671
L56078 43653
L56040 43634
" />
<path d="M55740 44028
L55740 43634
" />
<path d="M55703 43878
L55590 44028
" />
<path d="M55590 43765
L55740 43915
" />
<path d="M54373 26128
L54504 25940
" />
<path d="M54598 26128
L54598 25734
L54448 25734
L54410 25753
L54391 25771
L54373 25809
L54373 25865
L54391 25903
L54410 25921
L54448 25940
L54598 25940
" />
<path d="M53998 26128
L54223 26128
" />
<path d="M54110 26128
L54110 25734
L54148 25790
L54185 25828
L54223 25846
" />
<path d="M53773 25903
L53810 25884
L53829 25865
L53848 25828
L53848 25809
L53829 25771
L53810 25753
L53773 25734
L53698 25734
L53660 25753
L53641 25771
L53623 25809
L53623 25828
L53641 25865
L53660 25884
L53698 25903
L53773 25903
L53810 25921
L53829 25940
L53848 25978
L53848 26053
L53829 26090
L53810 26109
L53773 26128
L53698 26128
L53660 26109
L53641 26090
L53623 26053
L53623 25978
L53641 25940
L53660 25921
L53698 25903
" />
<path d="M54337 26603
L54562 26603
" />
<path d="M54449 26603
L54449 26209
L54487 26265
L54524 26303
L54562 26321
" />
<path d="M54093 26209
L54056 26209
L54018 26228
L54000 26246
L53981 26284
L53962 26359
L53962 26453
L53981 26528
L54000 26565
L54018 26584
L54056 26603
L54093 26603
L54131 26584
L54149 26565
L54168 26528
L54187 26453
L54187 26359
L54168 26284
L54149 26246
L54131 26228
L54093 26209
" />
<path d="M53718 26209
L53681 26209
L53643 26228
L53625 26246
L53606 26284
L53587 26359
L53587 26453
L53606 26528
L53625 26565
L53643 26584
L53681 26603
L53718 26603
L53756 26584
L53775 26565
L53793 26528
L53812 26453
L53812 26359
L53793 26284
L53775 26246
L53756 26228
L53718 26209
" />
<path d="M55673 25623
L55804 25435
" />
<path d="M55898 25623
L55898 25229
L55748 25229
L55710 25248
L55691 25266
L55673 25304
L55673 25360
L55691 25398
L55710 25416
L55748 25435
L55898 25435
" />
<path d="M55298 25623
L55523 25623
" />
<path d="M55410 25623
L55410 25229
L55448 25285
L55485 25323
L55523 25341
" />
<path d="M55110 25623
L55035 25623
L54998 25604
L54979 25585
L54941 25529
L54923 25454
L54923 25304
L54941 25266
L54960 25248
L54998 25229
L55073 25229
L55110 25248
L55129 25266
L55148 25304
L55148 25398
L55129 25435
L55110 25454
L55073 25473
L54998 25473
L54960 25454
L54941 25435
L54923 25398
" />
<path d="M56365 23387
L56628 23387
" />
<path d="M56215 23293
L56496 23200
L56496 23443
" />
<path d="M56234 23556
L56234 23818
L56628 23649
" />
<path d="M58978 25046
L58790 24915
" />
<path d="M58978 24821
L58584 24821
L58584 24971
L58603 25009
L58621 25028
L58659 25046
L58715 25046
L58753 25028
L58771 25009
L58790 24971
L58790 24821
" />
<path d="M58621 25196
L58603 25215
L58584 25253
L58584 25346
L58603 25384
L58621 25403
L58659 25421
L58696 25421
L58753 25403
L58978 25178
L58978 25421
" />
<path d="M58584 25665
L58584 25703
L58603 25740
L58621 25759
L58659 25778
L58734 25796
L58828 25796
L58903 25778
L58940 25759
L58959 25740
L58978 25703
L58978 25665
L58959 25628
L58940 25609
L58903 25590
L58828 25571
L58734 25571
L58659 25590
L58621 25609
L58603 25628
L58584 25665
" />
<path d="M58315 23437
L58578 23437
" />
<path d="M58165 23343
L58446 23250
L58446 23493
" />
<path d="M58184 23606
L58184 23868
L58578 23699
" />
<path d="M55353 41878
L55484 41690
" />
<path d="M55578 41878
L55578 41484
L55428 41484
L55390 41503
L55371 41521
L55353 41559
L55353 41615
L55371 41653
L55390 41671
L55428 41690
L55578 41690
" />
<path d="M55203 41521
L55184 41503
L55146 41484
L55053 41484
L55015 41503
L54996 41521
L54978 41559
L54978 41596
L54996 41653
L55221 41878
L54978 41878
" />
<path d="M54603 41878
L54828 41878
" />
<path d="M54715 41878
L54715 41484
L54753 41540
L54790 41578
L54828 41596
" />
<path d="M56759 40878
L56984 40878
" />
<path d="M56871 40878
L56871 40484
L56909 40540
L56946 40578
L56984 40596
" />
<path d="M56515 40484
L56478 40484
L56440 40503
L56421 40521
L56403 40559
L56384 40634
L56384 40728
L56403 40803
L56421 40840
L56440 40859
L56478 40878
L56515 40878
L56553 40859
L56571 40840
L56590 40803
L56609 40728
L56609 40634
L56590 40559
L56571 40521
L56553 40503
L56515 40484
" />
<path d="M56140 40484
L56103 40484
L56065 40503
L56046 40521
L56028 40559
L56009 40634
L56009 40728
L56028 40803
L56046 40840
L56065 40859
L56103 40878
L56140 40878
L56178 40859
L56196 40840
L56215 40803
L56234 40728
L56234 40634
L56215 40559
L56196 40521
L56178 40503
L56140 40484
" />
<path d="M55615 40878
L55746 40690
" />
<path d="M55840 40878
L55840 40484
L55690 40484
L55653 40503
L55634 40521
L55615 40559
L55615 40615
L55634 40653
L55653 40671
L55690 40690
L55840 40690
" />
<path d="M47953 31928
L48084 31740
" />
<path d="M48178 31928
L48178 31534
L48028 31534
L47990 31553
L47971 31571
L47953 31609
L47953 31665
L47971 31703
L47990 31721
L48028 31740
L48178 31740
" />
<path d="M47803 31571
L47784 31553
L47746 31534
L47653 31534
L47615 31553
L47596 31571
L47578 31609
L47578 31646
L47596 31703
L47821 31928
L47578 31928
" />
<path d="M47446 31534
L47203 31534
L47334 31684
L47278 31684
L47240 31703
L47221 31721
L47203 31759
L47203 31853
L47221 31890
L47240 31909
L47278 31928
L47390 31928
L47428 31909
L47446 31890
" />
<path d="M47265 30687
L47528 30687
" />
<path d="M47115 30593
L47396 30500
L47396 30743
" />
<path d="M47134 30856
L47134 31118
L47528 30949
" />
<path d="M49153 31928
L49284 31740
" />
<path d="M49378 31928
L49378 31534
L49228 31534
L49190 31553
L49171 31571
L49153 31609
L49153 31665
L49171 31703
L49190 31721
L49228 31740
L49378 31740
" />
<path d="M49003 31571
L48984 31553
L48946 31534
L48853 31534
L48815 31553
L48796 31571
L48778 31609
L48778 31646
L48796 31703
L49021 31928
L48778 31928
" />
<path d="M48440 31665
L48440 31928
" />
<path d="M48534 31515
L48628 31796
L48384 31796
" />
<path d="M48946 30228
L49171 30228
" />
<path d="M49059 30228
L49059 29834
L49096 29890
L49134 29928
L49171 29946
" />
<path d="M48778 30228
L48778 29834
" />
<path d="M48740 30078
L48628 30228
" />
<path d="M48628 29965
L48778 30115
" />
<path d="M50503 31928
L50634 31740
" />
<path d="M50728 31928
L50728 31534
L50578 31534
L50540 31553
L50521 31571
L50503 31609
L50503 31665
L50521 31703
L50540 31721
L50578 31740
L50728 31740
" />
<path d="M50353 31571
L50334 31553
L50296 31534
L50203 31534
L50165 31553
L50146 31571
L50128 31609
L50128 31646
L50146 31703
L50371 31928
L50128 31928
" />
<path d="M49771 31534
L49959 31534
L49978 31721
L49959 31703
L49921 31684
L49828 31684
L49790 31703
L49771 31721
L49753 31759
L49753 31853
L49771 31890
L49790 31909
L49828 31928
L49921 31928
L49959 31909
L49978 31890
" />
<path d="M50321 30340
L50303 30359
L50284 30396
L50284 30490
L50303 30528
L50321 30546
L50359 30565
L50396 30565
L50453 30546
L50678 30321
L50678 30565
" />
<path d="M50678 30734
L50284 30734
" />
<path d="M50528 30771
L50678 30884
" />
<path d="M50415 30884
L50565 30734
" />
<path d="M50321 31034
L50303 31053
L50284 31090
L50284 31184
L50303 31221
L50321 31240
L50359 31259
L50396 31259
L50453 31240
L50678 31015
L50678 31259
" />
<path d="M55653 33801
L55784 33613
" />
<path d="M55878 33801
L55878 33407
L55728 33407
L55690 33426
L55671 33445
L55653 33482
L55653 33538
L55671 33576
L55690 33595
L55728 33613
L55878 33613
" />
<path d="M55503 33445
L55484 33426
L55446 33407
L55353 33407
L55315 33426
L55296 33445
L55278 33482
L55278 33520
L55296 33576
L55521 33801
L55278 33801
" />
<path d="M54940 33407
L55015 33407
L55053 33426
L55071 33445
L55109 33501
L55128 33576
L55128 33726
L55109 33763
L55090 33782
L55053 33801
L54978 33801
L54940 33782
L54921 33763
L54903 33726
L54903 33632
L54921 33595
L54940 33576
L54978 33557
L55053 33557
L55090 33576
L55109 33595
L55128 33632
" />
<path d="M55709 35192
L55709 35454
" />
<path d="M55803 35042
L55896 35323
L55653 35323
" />
<path d="M55503 35454
L55503 35061
" />
<path d="M55278 35454
L55446 35229
" />
<path d="M55278 35061
L55503 35286
" />
<path d="M55146 35061
L54884 35061
L55053 35454
" />
<path d="M45278 26446
L45090 26315
" />
<path d="M45278 26221
L44884 26221
L44884 26371
L44903 26409
L44921 26428
L44959 26446
L45015 26446
L45053 26428
L45071 26409
L45090 26371
L45090 26221
" />
<path d="M44921 26596
L44903 26615
L44884 26653
L44884 26746
L44903 26784
L44921 26803
L44959 26821
L44996 26821
L45053 26803
L45278 26578
L45278 26821
" />
<path d="M44884 26953
L44884 27215
L45278 27046
" />
<path d="M44528 25000
L44134 25000
L44528 25225
L44134 25225
" />
<path d="M44490 25638
L44509 25619
L44528 25563
L44528 25525
L44509 25469
L44471 25431
L44434 25413
L44359 25394
L44303 25394
L44228 25413
L44190 25431
L44153 25469
L44134 25525
L44134 25563
L44153 25619
L44171 25638
" />
<path d="M46078 26446
L45890 26315
" />
<path d="M46078 26221
L45684 26221
L45684 26371
L45703 26409
L45721 26428
L45759 26446
L45815 26446
L45853 26428
L45871 26409
L45890 26371
L45890 26221
" />
<path d="M45721 26596
L45703 26615
L45684 26653
L45684 26746
L45703 26784
L45721 26803
L45759 26821
L45796 26821
L45853 26803
L46078 26578
L46078 26821
" />
<path d="M45853 27046
L45834 27009
L45815 26990
L45778 26971
L45759 26971
L45721 26990
L45703 27009
L45684 27046
L45684 27121
L45703 27159
L45721 27178
L45759 27196
L45778 27196
L45815 27178
L45834 27159
L45853 27121
L45853 27046
L45871 27009
L45890 26990
L45928 26971
L46003 26971
L46040 26990
L46059 27009
L46078 27046
L46078 27121
L46059 27159
L46040 27178
L46003 27196
L45928 27196
L45890 27178
L45871 27159
L45853 27121
" />
<path d="M44528 24980
L44134 24980
L44528 25205
L44134 25205
" />
<path d="M44490 25618
L44509 25599
L44528 25543
L44528 25505
L44509 25449
L44471 25411
L44434 25393
L44359 25374
L44303 25374
L44228 25393
L44190 25411
L44153 25449
L44134 25505
L44134 25543
L44153 25599
L44171 25618
" />
<path d="M50203 39178
L50334 38990
" />
<path d="M50428 39178
L50428 38784
L50278 38784
L50240 38803
L50221 38821
L50203 38859
L50203 38915
L50221 38953
L50240 38971
L50278 38990
L50428 38990
" />
<path d="M50053 38821
L50034 38803
L49996 38784
L49903 38784
L49865 38803
L49846 38821
L49828 38859
L49828 38896
L49846 38953
L50071 39178
L49828 39178
" />
<path d="M49640 39178
L49565 39178
L49528 39159
L49509 39140
L49471 39084
L49453 39009
L49453 38859
L49471 38821
L49490 38803
L49528 38784
L49603 38784
L49640 38803
L49659 38821
L49678 38859
L49678 38953
L49659 38990
L49640 39009
L49603 39028
L49528 39028
L49490 39009
L49471 38990
L49453 38953
" />
<path d="M50246 39334
L50321 39334
L50359 39353
L50378 39371
L50415 39428
L50434 39503
L50434 39653
L50415 39690
L50396 39709
L50359 39728
L50284 39728
L50246 39709
L50228 39690
L50209 39653
L50209 39559
L50228 39521
L50246 39503
L50284 39484
L50359 39484
L50396 39503
L50415 39521
L50434 39559
" />
<path d="M49984 39503
L50021 39484
L50040 39465
L50059 39428
L50059 39409
L50040 39371
L50021 39353
L49984 39334
L49909 39334
L49871 39353
L49853 39371
L49834 39409
L49834 39428
L49853 39465
L49871 39484
L49909 39503
L49984 39503
L50021 39521
L50040 39540
L50059 39578
L50059 39653
L50040 39690
L50021 39709
L49984 39728
L49909 39728
L49871 39709
L49853 39690
L49834 39653
L49834 39578
L49853 39540
L49871 39521
L49909 39503
" />
<path d="M49590 39334
L49553 39334
L49515 39353
L49496 39371
L49478 39409
L49459 39484
L49459 39578
L49478 39653
L49496 39690
L49515 39709
L49553 39728
L49590 39728
L49628 39709
L49646 39690
L49665 39653
L49684 39578
L49684 39484
L49665 39409
L49646 39371
L49628 39353
L49590 39334
" />
<path d="M49065 39728
L49196 39540
" />
<path d="M49290 39728
L49290 39334
L49140 39334
L49103 39353
L49084 39371
L49065 39409
L49065 39465
L49084 39503
L49103 39521
L49140 39540
L49290 39540
" />
<path d="M53378 38046
L53190 37915
" />
<path d="M53378 37821
L52984 37821
L52984 37971
L53003 38009
L53021 38028
L53059 38046
L53115 38046
L53153 38028
L53171 38009
L53190 37971
L53190 37821
" />
<path d="M52984 38178
L52984 38421
L53134 38290
L53134 38346
L53153 38384
L53171 38403
L53209 38421
L53303 38421
L53340 38403
L53359 38384
L53378 38346
L53378 38234
L53359 38196
L53340 38178
" />
<path d="M52984 38665
L52984 38703
L53003 38740
L53021 38759
L53059 38778
L53134 38796
L53228 38796
L53303 38778
L53340 38759
L53359 38740
L53378 38703
L53378 38665
L53359 38628
L53340 38609
L53303 38590
L53228 38571
L53134 38571
L53059 38590
L53021 38609
L53003 38628
L52984 38665
" />
<path d="M53694 40793
L53694 40718
L53713 40680
L53731 40661
L53788 40624
L53863 40605
L54013 40605
L54050 40624
L54069 40643
L54088 40680
L54088 40755
L54069 40793
L54050 40811
L54013 40830
L53919 40830
L53881 40811
L53863 40793
L53844 40755
L53844 40680
L53863 40643
L53881 40624
L53919 40605
" />
<path d="M53863 41055
L53844 41018
L53825 40999
L53788 40980
L53769 40980
L53731 40999
L53713 41018
L53694 41055
L53694 41130
L53713 41168
L53731 41186
L53769 41205
L53788 41205
L53825 41186
L53844 41168
L53863 41130
L53863 41055
L53881 41018
L53900 40999
L53938 40980
L54013 40980
L54050 40999
L54069 41018
L54088 41055
L54088 41130
L54069 41168
L54050 41186
L54013 41205
L53938 41205
L53900 41186
L53881 41168
L53863 41130
" />
<path d="M53694 41449
L53694 41486
L53713 41524
L53731 41543
L53769 41561
L53844 41580
L53938 41580
L54013 41561
L54050 41543
L54069 41524
L54088 41486
L54088 41449
L54069 41411
L54050 41393
L54013 41374
L53938 41355
L53844 41355
L53769 41374
L53731 41393
L53713 41411
L53694 41449
" />
<path d="M54088 41974
L53900 41843
" />
<path d="M54088 41749
L53694 41749
L53694 41899
L53713 41936
L53731 41955
L53769 41974
L53825 41974
L53863 41955
L53881 41936
L53900 41899
L53900 41749
" />
<path d="M50903 40228
L51034 40040
" />
<path d="M51128 40228
L51128 39834
L50978 39834
L50940 39853
L50921 39871
L50903 39909
L50903 39965
L50921 40003
L50940 40021
L50978 40040
L51128 40040
" />
<path d="M50771 39834
L50528 39834
L50659 39984
L50603 39984
L50565 40003
L50546 40021
L50528 40059
L50528 40153
L50546 40190
L50565 40209
L50603 40228
L50715 40228
L50753 40209
L50771 40190
" />
<path d="M50153 40228
L50378 40228
" />
<path d="M50265 40228
L50265 39834
L50303 39890
L50340 39928
L50378 39946
" />
<path d="M51009 40728
L51234 40728
" />
<path d="M51121 40728
L51121 40334
L51159 40390
L51196 40428
L51234 40446
" />
<path d="M50859 40371
L50840 40353
L50803 40334
L50709 40334
L50671 40353
L50653 40371
L50634 40409
L50634 40446
L50653 40503
L50878 40728
L50634 40728
" />
<path d="M50390 40334
L50353 40334
L50315 40353
L50296 40371
L50278 40409
L50259 40484
L50259 40578
L50278 40653
L50296 40690
L50315 40709
L50353 40728
L50390 40728
L50428 40709
L50446 40690
L50465 40653
L50484 40578
L50484 40484
L50465 40409
L50446 40371
L50428 40353
L50390 40334
" />
<path d="M49865 40728
L49996 40540
" />
<path d="M50090 40728
L50090 40334
L49940 40334
L49903 40353
L49884 40371
L49865 40409
L49865 40465
L49884 40503
L49903 40521
L49940 40540
L50090 40540
" />
<path d="M54508 39406
L54320 39275
" />
<path d="M54508 39181
L54114 39181
L54114 39331
L54133 39369
L54151 39388
L54189 39406
L54245 39406
L54283 39388
L54301 39369
L54320 39331
L54320 39181
" />
<path d="M54114 39538
L54114 39781
L54264 39650
L54264 39706
L54283 39744
L54301 39763
L54339 39781
L54433 39781
L54470 39763
L54489 39744
L54508 39706
L54508 39594
L54489 39556
L54470 39538
" />
<path d="M54151 39931
L54133 39950
L54114 39988
L54114 40081
L54133 40119
L54151 40138
L54189 40156
L54226 40156
L54283 40138
L54508 39913
L54508 40156
" />
<path d="M52659 40165
L52659 40428
" />
<path d="M52753 40015
L52846 40296
L52603 40296
" />
<path d="M52490 40034
L52228 40034
L52396 40428
" />
<path d="M51853 40428
L51984 40240
" />
<path d="M52078 40428
L52078 40034
L51928 40034
L51890 40053
L51871 40071
L51853 40109
L51853 40165
L51871 40203
L51890 40221
L51928 40240
L52078 40240
" />
<path d="M41290 39384
L41309 39365
L41328 39309
L41328 39271
L41309 39215
L41271 39178
L41234 39159
L41159 39140
L41103 39140
L41028 39159
L40990 39178
L40953 39215
L40934 39271
L40934 39309
L40953 39365
L40971 39384
" />
<path d="M40934 39721
L40934 39646
L40953 39609
L40971 39590
L41028 39553
L41103 39534
L41253 39534
L41290 39553
L41309 39571
L41328 39609
L41328 39684
L41309 39721
L41290 39740
L41253 39759
L41159 39759
L41121 39740
L41103 39721
L41084 39684
L41084 39609
L41103 39571
L41121 39553
L41159 39534
" />
<path d="M46565 36040
L46584 36059
L46640 36078
L46678 36078
L46734 36059
L46771 36021
L46790 35984
L46809 35909
L46809 35853
L46790 35778
L46771 35740
L46734 35703
L46678 35684
L46640 35684
L46584 35703
L46565 35721
" />
<path d="M46434 35684
L46171 35684
L46340 36078
" />
<path d="M47065 39540
L47084 39559
L47140 39578
L47178 39578
L47234 39559
L47271 39521
L47290 39484
L47309 39409
L47309 39353
L47290 39278
L47271 39240
L47234 39203
L47178 39184
L47140 39184
L47084 39203
L47065 39221
" />
<path d="M46840 39353
L46878 39334
L46896 39315
L46915 39278
L46915 39259
L46896 39221
L46878 39203
L46840 39184
L46765 39184
L46728 39203
L46709 39221
L46690 39259
L46690 39278
L46709 39315
L46728 39334
L46765 39353
L46840 39353
L46878 39371
L46896 39390
L46915 39428
L46915 39503
L46896 39540
L46878 39559
L46840 39578
L46765 39578
L46728 39559
L46709 39540
L46690 39503
L46690 39428
L46709 39390
L46728 39371
L46765 39353
" />
<path d="M46003 37478
L46134 37290
" />
<path d="M46228 37478
L46228 37084
L46078 37084
L46040 37103
L46021 37121
L46003 37159
L46003 37215
L46021 37253
L46040 37271
L46078 37290
L46228 37290
" />
<path d="M45853 37121
L45834 37103
L45796 37084
L45703 37084
L45665 37103
L45646 37121
L45628 37159
L45628 37196
L45646 37253
L45871 37478
L45628 37478
" />
<path d="M45478 37121
L45459 37103
L45421 37084
L45328 37084
L45290 37103
L45271 37121
L45253 37159
L45253 37196
L45271 37253
L45496 37478
L45253 37478
" />
<path d="M46390 37634
L46578 37634
L46596 37821
L46578 37803
L46540 37784
L46446 37784
L46409 37803
L46390 37821
L46371 37859
L46371 37953
L46390 37990
L46409 38009
L46446 38028
L46540 38028
L46578 38009
L46596 37990
" />
<path d="M46034 37634
L46109 37634
L46146 37653
L46165 37671
L46203 37728
L46221 37803
L46221 37953
L46203 37990
L46184 38009
L46146 38028
L46071 38028
L46034 38009
L46015 37990
L45996 37953
L45996 37859
L46015 37821
L46034 37803
L46071 37784
L46146 37784
L46184 37803
L46203 37821
L46221 37859
" />
<path d="M45846 37671
L45828 37653
L45790 37634
L45696 37634
L45659 37653
L45640 37671
L45621 37709
L45621 37746
L45640 37803
L45865 38028
L45621 38028
" />
<path d="M45453 38028
L45453 37634
" />
<path d="M45415 37878
L45303 38028
" />
<path d="M45303 37765
L45453 37915
" />
<path d="M45053 43504
L45184 43317
" />
<path d="M45278 43504
L45278 43111
L45128 43111
L45090 43129
L45071 43148
L45053 43186
L45053 43242
L45071 43279
L45090 43298
L45128 43317
L45278 43317
" />
<path d="M44921 43111
L44678 43111
L44809 43261
L44753 43261
L44715 43279
L44696 43298
L44678 43336
L44678 43429
L44696 43467
L44715 43486
L44753 43504
L44865 43504
L44903 43486
L44921 43467
" />
<path d="M44340 43242
L44340 43504
" />
<path d="M44434 43092
L44528 43373
L44284 43373
" />
<path d="M45459 44028
L45384 44028
L45346 44009
L45328 43990
L45290 43934
L45271 43859
L45271 43709
L45290 43671
L45309 43653
L45346 43634
L45421 43634
L45459 43653
L45478 43671
L45496 43709
L45496 43803
L45478 43840
L45459 43859
L45421 43878
L45346 43878
L45309 43859
L45290 43840
L45271 43803
" />
<path d="M45140 43634
L44878 43634
L45046 44028
" />
<path d="M44559 43634
L44634 43634
L44671 43653
L44690 43671
L44728 43728
L44746 43803
L44746 43953
L44728 43990
L44709 44009
L44671 44028
L44596 44028
L44559 44009
L44540 43990
L44521 43953
L44521 43859
L44540 43821
L44559 43803
L44596 43784
L44671 43784
L44709 43803
L44728 43821
L44746 43859
" />
<path d="M44353 44028
L44353 43634
" />
<path d="M44315 43878
L44203 44028
" />
<path d="M44203 43765
L44353 43915
" />
<path d="M45978 40446
L45790 40315
" />
<path d="M45978 40221
L45584 40221
L45584 40371
L45603 40409
L45621 40428
L45659 40446
L45715 40446
L45753 40428
L45771 40409
L45790 40371
L45790 40221
" />
<path d="M45584 40578
L45584 40821
L45734 40690
L45734 40746
L45753 40784
L45771 40803
L45809 40821
L45903 40821
L45940 40803
L45959 40784
L45978 40746
L45978 40634
L45959 40596
L45940 40578
" />
<path d="M45584 41178
L45584 40990
L45771 40971
L45753 40990
L45734 41028
L45734 41121
L45753 41159
L45771 41178
L45809 41196
L45903 41196
L45940 41178
L45959 41159
L45978 41121
L45978 41028
L45959 40990
L45940 40971
" />
<path d="M46084 40459
L46084 40271
L46271 40253
L46253 40271
L46234 40309
L46234 40403
L46253 40440
L46271 40459
L46309 40478
L46403 40478
L46440 40459
L46459 40440
L46478 40403
L46478 40309
L46459 40271
L46440 40253
" />
<path d="M46084 40815
L46084 40740
L46103 40703
L46121 40684
L46178 40646
L46253 40628
L46403 40628
L46440 40646
L46459 40665
L46478 40703
L46478 40778
L46459 40815
L46440 40834
L46403 40853
L46309 40853
L46271 40834
L46253 40815
L46234 40778
L46234 40703
L46253 40665
L46271 40646
L46309 40628
" />
<path d="M46121 41003
L46103 41021
L46084 41059
L46084 41153
L46103 41190
L46121 41209
L46159 41228
L46196 41228
L46253 41209
L46478 40984
L46478 41228
" />
<path d="M46478 41396
L46084 41396
" />
<path d="M46328 41434
L46478 41546
" />
<path d="M46215 41546
L46365 41396
" />
<path d="M42359 37305
L42678 37305
L42715 37323
L42734 37342
L42753 37380
L42753 37455
L42734 37492
L42715 37511
L42678 37530
L42359 37530
" />
<path d="M42359 37679
L42359 37923
L42509 37792
L42509 37848
L42528 37886
L42546 37904
L42584 37923
L42678 37923
L42715 37904
L42734 37886
L42753 37848
L42753 37736
L42734 37698
L42715 37679
" />
<path d="M45274 36678
L45274 36284
L45143 36565
L45012 36284
L45012 36678
" />
<path d="M44599 36640
L44618 36659
L44674 36678
L44712 36678
L44768 36659
L44806 36621
L44824 36584
L44843 36509
L44843 36453
L44824 36378
L44806 36340
L44768 36303
L44712 36284
L44674 36284
L44618 36303
L44599 36321
" />
<path d="M44431 36678
L44431 36284
L44281 36284
L44243 36303
L44224 36321
L44206 36359
L44206 36415
L44224 36453
L44243 36471
L44281 36490
L44431 36490
" />
<path d="M43831 36678
L44056 36678
" />
<path d="M43943 36678
L43943 36284
L43981 36340
L44018 36378
L44056 36396
" />
<path d="M43493 36284
L43568 36284
L43606 36303
L43625 36321
L43662 36378
L43681 36453
L43681 36603
L43662 36640
L43643 36659
L43606 36678
L43531 36678
L43493 36659
L43475 36640
L43456 36603
L43456 36509
L43475 36471
L43493 36453
L43531 36434
L43606 36434
L43643 36453
L43662 36471
L43681 36509
" />
<path d="M43118 36415
L43118 36678
" />
<path d="M43212 36265
L43306 36546
L43062 36546
" />
<path d="M42837 36284
L42800 36284
L42762 36303
L42743 36321
L42725 36359
L42706 36434
L42706 36528
L42725 36603
L42743 36640
L42762 36659
L42800 36678
L42837 36678
L42875 36659
L42893 36640
L42912 36603
L42931 36528
L42931 36434
L42912 36359
L42893 36321
L42875 36303
L42837 36284
" />
<path d="M42734 40800
L43053 40800
L43090 40818
L43109 40837
L43128 40875
L43128 40950
L43109 40987
L43090 41006
L43053 41025
L42734 41025
" />
<path d="M42865 41381
L43128 41381
" />
<path d="M42715 41287
L42996 41193
L42996 41437
" />
<path d="M45174 40178
L45174 39784
L45043 40065
L44912 39784
L44912 40178
" />
<path d="M44499 40140
L44518 40159
L44574 40178
L44612 40178
L44668 40159
L44706 40121
L44724 40084
L44743 40009
L44743 39953
L44724 39878
L44706 39840
L44668 39803
L44612 39784
L44574 39784
L44518 39803
L44499 39821
" />
<path d="M44331 40178
L44331 39784
L44181 39784
L44143 39803
L44124 39821
L44106 39859
L44106 39915
L44124 39953
L44143 39971
L44181 39990
L44331 39990
" />
<path d="M43731 40178
L43956 40178
" />
<path d="M43843 40178
L43843 39784
L43881 39840
L43918 39878
L43956 39896
" />
<path d="M43393 39784
L43468 39784
L43506 39803
L43525 39821
L43562 39878
L43581 39953
L43581 40103
L43562 40140
L43543 40159
L43506 40178
L43431 40178
L43393 40159
L43375 40140
L43356 40103
L43356 40009
L43375 39971
L43393 39953
L43431 39934
L43506 39934
L43543 39953
L43562 39971
L43581 40009
" />
<path d="M43018 39915
L43018 40178
" />
<path d="M43112 39765
L43206 40046
L42962 40046
" />
<path d="M42737 39784
L42700 39784
L42662 39803
L42643 39821
L42625 39859
L42606 39934
L42606 40028
L42625 40103
L42643 40140
L42662 40159
L42700 40178
L42737 40178
L42775 40159
L42793 40140
L42812 40103
L42831 40028
L42831 39934
L42812 39859
L42793 39821
L42775 39803
L42737 39784
" />
<path d="M60750 31450
L61350 31450
" />
<path d="M61500 31500
L60600 31500
" />
<path d="M60500 31550
L61600 31550
" />
<path d="M61700 31600
L60400 31600
" />
<path d="M60350 31650
L61750 31650
" />
<circle cx="61050" cy="32600" r="1200" /> 
<path d="M59750 31300
L62350 31300
" />
<path d="M62350 31300
L62350 33600
" />
<path d="M62350 33600
L62050 33900
" />
<path d="M62050 33900
L60050 33900
" />
<path d="M60050 33900
L59750 33600
" />
<path d="M59750 33600
L59750 31300
" />
<path d="M61050 33450
L61050 33150
" />
<path d="M60900 33300
L61200 33300
" />
<path d="M58850 27800
L58850 27200
" />
<path d="M58900 27050
L58900 27950
" />
<path d="M58950 28050
L58950 26950
" />
<path d="M59000 26850
L59000 28150
" />
<path d="M59050 28200
L59050 26800
" />
<circle cx="60000" cy="27500" r="1200" /> 
<path d="M58700 28800
L58700 26200
" />
<path d="M58700 26200
L61000 26200
" />
<path d="M61000 26200
L61300 26500
" />
<path d="M61300 26500
L61300 28500
" />
<path d="M61300 28500
L61000 28800
" />
<path d="M61000 28800
L58700 28800
" />
<path d="M60850 27500
L60550 27500
" />
<path d="M60700 27650
L60700 27350
" />
<path d="M59000 37000
L59600 37000
" />
<path d="M59750 37050
L58850 37050
" />
<path d="M58750 37100
L59850 37100
" />
<path d="M59950 37150
L58650 37150
" />
<path d="M58600 37200
L60000 37200
" />
<circle cx="59300" cy="38150" r="1200" /> 
<path d="M58000 36850
L60600 36850
" />
<path d="M60600 36850
L60600 39150
" />
<path d="M60600 39150
L60300 39450
" />
<path d="M60300 39450
L58300 39450
" />
<path d="M58300 39450
L58000 39150
" />
<path d="M58000 39150
L58000 36850
" />
<path d="M59300 39000
L59300 38700
" />
<path d="M59150 38850
L59450 38850
" />
<path d="M40403 26665
L40796 26665
" />
<path d="M40796 27334
L40403 27334
" />
<path d="M50534 37103
L50534 37496
" />
<path d="M49865 37496
L49865 37103
" />
<path d="M58646 41244
L58665 41244
" />
<path d="M59433 41520
L59433 41244
" />
<path d="M59433 41244
L59335 41244
" />
<path d="M58646 41244
L58567 41244
" />
<path d="M58567 41244
L58567 41520
" />
<path d="M57396 41244
L57415 41244
" />
<path d="M58183 41520
L58183 41244
" />
<path d="M58183 41244
L58085 41244
" />
<path d="M57396 41244
L57317 41244
" />
<path d="M57317 41244
L57317 41520
" />
<path d="M56146 41244
L56165 41244
" />
<path d="M56933 41520
L56933 41244
" />
<path d="M56933 41244
L56835 41244
" />
<path d="M56146 41244
L56067 41244
" />
<path d="M56067 41244
L56067 41520
" />
<path d="M50750 36450
L50750 36400
" />
<path d="M50750 36400
L52850 36400
" />
<path d="M52850 37900
L50750 37900
" />
<path d="M50750 37900
L50750 36450
" />
<path d="M50750 37350
L50950 37350
" />
<path d="M50950 37350
L50950 36950
" />
<path d="M50950 36950
L50750 36950
" />
<path d="M52850 37900
L52850 36400
" />
</g>
<g style="fill:#840084; fill-opacity:0.0; 
stroke:#840084; stroke-width:150; stroke-opacity:1; 
stroke-linecap:round; stroke-linejoin:round;">
<path d="M39742 33730
L43758 33730
" />
<path d="M43758 33730
L43758 31919
" />
<path d="M43758 31919
L39742 31919
" />
<path d="M39742 31919
L39742 33730
" />
<path d="M44919 34380
L44919 28120
" />
<path d="M44919 28120
L38581 28100
" />
<path d="M38581 28100
L38581 34380
" />
<path d="M38581 34380
L44919 34380
" />
</g>
<g style="fill:#840084; fill-opacity:0.0; 
stroke:#840084; stroke-width:59.0551; stroke-opacity:1; 
stroke-linecap:round; stroke-linejoin:round;">
<path d="M64036 30855
L63563 30855
" />
<path d="M63563 31544
L64036 31544
" />
<path d="M63786 34955
L63313 34955
" />
<path d="M63313 35644
L63786 35644
" />
<path d="M62555 37513
L62555 37986
" />
<path d="M63244 37986
L63244 37513
" />
<path d="M62813 36744
L63286 36744
" />
<path d="M63286 36055
L62813 36055
" />
<path d="M62113 30994
L62586 30994
" />
<path d="M62586 30305
L62113 30305
" />
<path d="M63736 25255
L63263 25255
" />
<path d="M63263 25944
L63736 25944
" />
<path d="M62936 27105
L62463 27105
" />
<path d="M62463 27794
L62936 27794
" />
<path d="M60063 29794
L60536 29794
" />
<path d="M60536 29105
L60063 29105
" />
<path d="M59136 29105
L58663 29105
" />
<path d="M58663 29794
L59136 29794
" />
<path d="M60513 25944
L60986 25944
" />
<path d="M60986 25255
L60513 25255
" />
<path d="M44636 38705
L44163 38705
" />
<path d="M44163 39394
L44636 39394
" />
<path d="M61363 37194
L61836 37194
" />
<path d="M61836 36505
L61363 36505
" />
<path d="M59563 30894
L60036 30894
" />
<path d="M60036 30205
L59563 30205
" />
<path d="M54613 30694
L55086 30694
" />
<path d="M55086 30005
L54613 30005
" />
<path d="M57113 27744
L57586 27744
" />
<path d="M57586 27055
L57113 27055
" />
<path d="M47136 43055
L46663 43055
" />
<path d="M46663 43744
L47136 43744
" />
<path d="M56455 42813
L56455 43286
" />
<path d="M57144 43286
L57144 42813
" />
<path d="M53963 25644
L54436 25644
" />
<path d="M54436 24955
L53963 24955
" />
<path d="M56736 24855
L56263 24855
" />
<path d="M56263 25544
L56736 25544
" />
<path d="M58186 24855
L57713 24855
" />
<path d="M57713 25544
L58186 25544
" />
<path d="M55186 40655
L54713 40655
" />
<path d="M54713 41344
L55186 41344
" />
<path d="M48344 31086
L48344 30613
" />
<path d="M47655 30613
L47655 31086
" />
<path d="M49244 31086
L49244 30613
" />
<path d="M48555 30613
L48555 31086
" />
<path d="M49455 30613
L49455 31086
" />
<path d="M50144 31086
L50144 30613
" />
<path d="M55163 34794
L55636 34794
" />
<path d="M55636 34105
L55163 34105
" />
<path d="M45344 25736
L45344 25263
" />
<path d="M44655 25263
L44655 25736
" />
<path d="M46194 25736
L46194 25263
" />
<path d="M45505 25263
L45505 25736
" />
<path d="M51386 38905
L50913 38905
" />
<path d="M50913 39594
L51386 39594
" />
<path d="M52313 39594
L52786 39594
" />
<path d="M52786 38905
L52313 38905
" />
<path d="M52186 39805
L51713 39805
" />
<path d="M51713 40494
L52186 40494
" />
<path d="M53786 39805
L53313 39805
" />
<path d="M53313 40494
L53786 40494
" />
<path d="M39900 40600
L39300 40600
" />
<path d="M39150 40550
L40050 40550
" />
<path d="M40150 40500
L39050 40500
" />
<path d="M38950 40450
L40250 40450
" />
<path d="M40300 40400
L38900 40400
" />
<circle cx="39600" cy="39450" r="1200" /> 
<path d="M40900 40750
L38300 40750
" />
<path d="M38300 40750
L38300 38450
" />
<path d="M38300 38450
L38600 38150
" />
<path d="M38600 38150
L40600 38150
" />
<path d="M40600 38150
L40900 38450
" />
<path d="M40900 38450
L40900 40750
" />
<path d="M39600 38600
L39600 38900
" />
<path d="M39750 38750
L39450 38750
" />
<path d="M47900 35700
L48500 35700
" />
<path d="M48650 35750
L47750 35750
" />
<path d="M47650 35800
L48750 35800
" />
<path d="M48850 35850
L47550 35850
" />
<path d="M47500 35900
L48900 35900
" />
<circle cx="48200" cy="36850" r="1200" /> 
<path d="M46900 35550
L49500 35550
" />
<path d="M49500 35550
L49500 37850
" />
<path d="M49500 37850
L49200 38150
" />
<path d="M49200 38150
L47200 38150
" />
<path d="M47200 38150
L46900 37850
" />
<path d="M46900 37850
L46900 35550
" />
<path d="M48200 37700
L48200 37400
" />
<path d="M48050 37550
L48350 37550
" />
<path d="M47550 39800
L48150 39800
" />
<path d="M48300 39850
L47400 39850
" />
<path d="M47300 39900
L48400 39900
" />
<path d="M48500 39950
L47200 39950
" />
<path d="M47150 40000
L48550 40000
" />
<circle cx="47850" cy="40950" r="1200" /> 
<path d="M46550 39650
L49150 39650
" />
<path d="M49150 39650
L49150 41950
" />
<path d="M49150 41950
L48850 42250
" />
<path d="M48850 42250
L46850 42250
" />
<path d="M46850 42250
L46550 41950
" />
<path d="M46550 41950
L46550 39650
" />
<path d="M47850 41800
L47850 41500
" />
<path d="M47700 41650
L48000 41650
" />
<path d="M44455 37213
L44455 37686
" />
<path d="M45144 37686
L45144 37213
" />
<path d="M45036 42155
L44563 42155
" />
<path d="M44563 42844
L45036 42844
" />
<path d="M44755 40563
L44755 41036
" />
<path d="M45444 41036
L45444 40563
" />
<path d="M43150 37300
L42850 37500
" />
<path d="M43850 37300
L42825 37300
" />
<path d="M42825 37300
L42825 37900
" />
<path d="M42825 37900
L43850 37900
" />
<path d="M43850 37900
L43850 37300
" />
<path d="M43550 40850
L43250 41050
" />
<path d="M44250 40850
L43225 40850
" />
<path d="M43225 40850
L43225 41450
" />
<path d="M43225 41450
L44250 41450
" />
<path d="M44250 41450
L44250 40850
" />
</g> 
</svg>
